<svg viewBox="0 0 24 28" fill="none" xmlns="http://www.w3.org/2000/svg"><g clip-path="url(#clip0_1022_35)"><path d="M0.17164 13.392C0.259824 13.5346 0.379227 13.6568 0.521437 13.7499C0.663648 13.843 0.825208 13.9048 0.994736 13.9309C1.16426 13.9569 1.33764 13.9467 1.50264 13.9009C1.66765 13.8551 1.82028 13.7748 1.94977 13.6657L5.56931 15.676L5.43441 13.5803L2.01792 11.9925C1.81421 11.794 1.54237 11.6748 1.25393 11.6574C0.965484 11.64 0.680469 11.7256 0.452891 11.8981C0.225313 12.0706 0.0709838 12.318 0.0191475 12.5933C-0.0326888 12.8687 0.0215693 13.1528 0.17164 13.392Z" fill="#FFB8B8" /><path d="M10.6504 21.4454C9.57674 22.9007 9.61515 25.3353 9.91471 28H14.9911L15.2118 27.5013L15.5061 28H20.2882C20.2882 28 19.9203 21.2317 19.2582 21.0179C18.596 20.8042 10.6504 21.4454 10.6504 21.4454Z" fill="#2F2E41" /><path d="M14.9912 6.24102C16.4134 6.24102 17.5662 5.1246 17.5662 3.74742C17.5662 2.37024 16.4134 1.25382 14.9912 1.25382C13.5691 1.25382 12.4163 2.37024 12.4163 3.74742C12.4163 5.1246 13.5691 6.24102 14.9912 6.24102Z" fill="#FFB8B8" /><path d="M16.8523 6.88798L17.3559 7.82261L20.8387 9.32616L19.9232 17.9059L19.5379 18.7944L19.7461 19.566L19.2442 20.1354C19.748 20.5769 19.812 21.039 19.5379 21.517L17.934 21.8728C17.934 21.8728 9.01614 22.6408 9.76771 21.3029C10.5889 19.841 10.798 15.5238 8.98515 13.2167C7.44608 11.2581 8.62769 8.71661 8.62769 8.71661L12.2784 7.66007L13.6212 6.88798L16.8523 6.88798Z" fill="#FFFF00" /><path d="M16.1342 0.0946878C16.1463 0.0698948 16.1658 0.0491702 16.1902 0.0351755C16.2145 0.0211809 16.2426 0.0145549 16.2709 0.0161489C15.092 -0.0521392 13.8503 0.0809193 12.8641 0.710027C12.6251 0.86244 12.3999 1.04423 12.1399 1.15479C12.1276 1.16014 12.117 1.16846 12.109 1.17896C12.101 1.18945 12.096 1.20177 12.0944 1.2147C12.0928 1.22764 12.0947 1.24075 12.0998 1.25278C12.105 1.2648 12.1133 1.27533 12.1239 1.28333L12.1525 1.30501C12.1638 1.31357 12.1724 1.32496 12.1774 1.33793C12.1825 1.3509 12.1838 1.36497 12.1811 1.3786C12.1785 1.39223 12.1721 1.4049 12.1625 1.41524C12.153 1.42557 12.1407 1.43318 12.127 1.43722C12.1127 1.44143 12.1 1.44951 12.0903 1.4605C12.0806 1.47149 12.0744 1.48494 12.0723 1.49925C12.0702 1.51357 12.0724 1.52815 12.0786 1.5413C12.0848 1.55444 12.0948 1.56559 12.1073 1.57344L12.3262 1.71041C12.3372 1.71719 12.3463 1.72654 12.3526 1.7376C12.3589 1.74867 12.3623 1.76109 12.3624 1.77373C12.3624 1.78638 12.3592 1.79883 12.353 1.80996C12.3468 1.82109 12.3378 1.83054 12.3269 1.83743C12.3084 1.84852 12.2889 1.85808 12.2687 1.86601C12.2561 1.87058 12.245 1.8782 12.2364 1.88815C12.2277 1.8981 12.2219 1.91004 12.2194 1.92281C12.2169 1.93558 12.2179 1.94876 12.2222 1.96107C12.2265 1.97338 12.234 1.98441 12.2439 1.9931C12.3387 2.0748 12.4114 2.17771 12.4557 2.29286C12.5286 2.47652 12.5417 2.67655 12.554 2.87297C12.6294 2.58956 12.9488 2.42273 13.2505 2.40578C13.5522 2.38883 13.8465 2.48523 14.1401 2.55453C14.7796 2.70502 15.4438 2.72977 16.0934 2.62729C15.8728 3.05596 16.0589 3.56726 16.2461 4.01055L16.8522 3.75898C17.6845 3.30398 17.1047 5.22871 16.7935 5.49294C17.4289 5.70626 19.0919 3.33866 18.5569 2.44057C18.2786 1.9734 18.4762 1.37086 17.9291 0.927777C17.6609 0.654411 17.1255 0.775912 16.8522 0.548712C16.7446 0.45929 16.9086 0.220053 16.7607 0.167915C16.7116 0.150598 16.1424 0.0772345 16.1342 0.0946878Z" fill="#2F2E41" /><path d="M11.7726 7.90145C11.3001 9.93286 10.0882 14.6759 8.85873 15.6679C8.78076 15.7392 8.68727 15.7926 8.58514 15.8243C4.26342 16.8439 2.87866 14.2432 2.87866 14.2432C2.87866 14.2432 4.03683 13.6966 4.0662 12.6283L6.40183 13.3301L8.43785 8.89298L8.73746 8.62234L8.73914 8.62072L11.7726 7.90145Z" fill="#FFFF00" /><path d="M20.9873 26.6605C21.111 26.5453 21.2072 26.4053 21.269 26.2502C21.3308 26.0951 21.3567 25.9288 21.345 25.7629C21.3332 25.5971 21.2841 25.4358 21.201 25.2903C21.1179 25.1449 21.0028 25.0188 20.864 24.9211L22.0755 21.0544L19.9968 21.6516L19.165 25.2319C19.0109 25.4687 18.9518 25.7519 18.999 26.0281C19.0461 26.3042 19.1963 26.554 19.4209 26.7301C19.6455 26.9061 19.929 26.9963 20.2177 26.9835C20.5064 26.9707 20.7802 26.8558 20.9873 26.6605V26.6605Z" fill="#FFB8B8" /><path d="M19.8784 9.10985L20.8386 9.32616C20.8386 9.32616 24.8076 16.8044 23.8512 18.2293C22.8948 19.6542 21.7231 24.3718 21.7231 24.3718C21.7231 24.3718 19.9901 24.0381 19.328 23.1832L20.5405 17.5881L19.2898 12.8859L19.8784 9.10985Z" fill="#FFFF00" /><path d="M1.66089 20.2148L1.69537 8.17063C1.69635 7.92686 1.79715 7.69341 1.97564 7.52152C2.15413 7.34962 2.39575 7.25331 2.64747 7.25371L12.0403 7.27893C12.292 7.27988 12.5331 7.37749 12.7106 7.55034C12.8881 7.72319 12.9875 7.95717 12.9871 8.20094L12.9526 20.2451C12.9517 20.4889 12.8509 20.7223 12.6724 20.8942C12.4939 21.0661 12.2523 21.1624 12.0005 21.162L2.60773 21.1368C2.356 21.1359 2.11494 21.0382 1.93744 20.8654C1.75993 20.6925 1.66048 20.4586 1.66089 20.2148V20.2148Z" fill="#E6E6E6" /><path d="M2.39185 16.5789L2.41402 8.8358C2.41493 8.6075 2.50933 8.38887 2.67649 8.22789C2.84366 8.0669 3.06994 7.9767 3.30569 7.97708L11.3781 7.99875C11.6138 7.99964 11.8396 8.09105 12.0058 8.25293C12.1721 8.41481 12.2652 8.63394 12.2648 8.86225L12.2342 19.5799C12.2332 19.8082 12.1388 20.0268 11.9717 20.1878C11.8045 20.3488 11.5782 20.439 11.3424 20.4386L6.34178 20.4252C5.29165 20.4212 4.28603 20.0141 3.54553 19.293C2.80503 18.5719 2.39013 17.5958 2.39185 16.5789V16.5789Z" fill="white" /><path d="M10.453 11.3783H4.15867C4.05851 11.3783 3.96245 11.3398 3.89162 11.2712C3.8208 11.2026 3.78101 11.1096 3.78101 11.0126C3.78101 10.9156 3.8208 10.8225 3.89162 10.754C3.96245 10.6854 4.05851 10.6468 4.15867 10.6468H10.453C10.5532 10.6468 10.6493 10.6854 10.7201 10.754C10.7909 10.8225 10.8307 10.9156 10.8307 11.0126C10.8307 11.1096 10.7909 11.2026 10.7201 11.2712C10.6493 11.3398 10.5532 11.3783 10.453 11.3783V11.3783Z" fill="#42B983" /><path d="M5.54342 9.69189H4.15867C4.0585 9.69189 3.96245 9.65336 3.89162 9.58477C3.8208 9.51618 3.78101 9.42316 3.78101 9.32616C3.78101 9.22916 3.8208 9.13614 3.89162 9.06755C3.96245 8.99897 4.0585 8.96043 4.15867 8.96043H5.54342C5.64358 8.96043 5.73964 8.99897 5.81047 9.06755C5.88129 9.13614 5.92108 9.22916 5.92108 9.32616C5.92108 9.42316 5.88129 9.51618 5.81047 9.58477C5.73964 9.65336 5.64358 9.69189 5.54342 9.69189Z" fill="#42B983" /><path d="M10.453 13.0647H4.15867C4.05851 13.0647 3.96245 13.0262 3.89162 12.9576C3.8208 12.889 3.78101 12.796 3.78101 12.699C3.78101 12.602 3.8208 12.509 3.89162 12.4404C3.96245 12.3718 4.05851 12.3333 4.15867 12.3333H10.453C10.5532 12.3333 10.6493 12.3718 10.7201 12.4404C10.7909 12.509 10.8307 12.602 10.8307 12.699C10.8307 12.796 10.7909 12.889 10.7201 12.9576C10.6493 13.0262 10.5532 13.0647 10.453 13.0647Z" fill="#42B983" /><path d="M10.453 14.7511H4.15867C4.05851 14.7511 3.96245 14.7126 3.89162 14.644C3.8208 14.5754 3.78101 14.4824 3.78101 14.3854C3.78101 14.2884 3.8208 14.1954 3.89162 14.1268C3.96245 14.0582 4.05851 14.0197 4.15867 14.0197H10.453C10.5532 14.0197 10.6493 14.0582 10.7201 14.1268C10.7909 14.1954 10.8307 14.2884 10.8307 14.3854C10.8307 14.4824 10.7909 14.5754 10.7201 14.644C10.6493 14.7126 10.5532 14.7511 10.453 14.7511V14.7511Z" fill="#42B983" /><path d="M9.94364 19.1947C10.7736 19.1947 11.4464 18.5432 11.4464 17.7395C11.4464 16.9358 10.7736 16.2843 9.94364 16.2843C9.11371 16.2843 8.44092 16.9358 8.44092 17.7395C8.44092 18.5432 9.11371 19.1947 9.94364 19.1947Z" fill="#42B983" /><path d="M9.73859 18.4969C9.71265 18.4969 9.68705 18.491 9.66384 18.4798C9.64064 18.4686 9.62045 18.4522 9.60488 18.4321L9.19493 17.9028C9.18173 17.8858 9.17211 17.8664 9.16664 17.8458C9.16117 17.8252 9.15995 17.8038 9.16304 17.7827C9.16614 17.7616 9.17349 17.7414 9.18468 17.7231C9.19586 17.7047 9.21067 17.6888 9.22824 17.676C9.24581 17.6632 9.26582 17.6539 9.2871 17.6487C9.30838 17.6434 9.33053 17.6422 9.35227 17.6453C9.37402 17.6483 9.39493 17.6554 9.41383 17.6663C9.43272 17.6771 9.44921 17.6915 9.46237 17.7085L9.73058 18.0548L10.4194 17.0542C10.4316 17.0364 10.4472 17.0212 10.4655 17.0093C10.4837 16.9974 10.5042 16.9891 10.5258 16.9849C10.5473 16.9807 10.5695 16.9806 10.5911 16.9847C10.6127 16.9888 10.6332 16.997 10.6515 17.0089C10.6698 17.0207 10.6855 17.0359 10.6978 17.0536C10.71 17.0713 10.7185 17.0912 10.7228 17.1121C10.7271 17.1329 10.727 17.1545 10.7227 17.1753C10.7184 17.1962 10.7099 17.2161 10.6976 17.2338L9.87769 18.4248C9.86286 18.4463 9.84291 18.4641 9.81952 18.4767C9.79613 18.4892 9.76997 18.4961 9.74325 18.4968C9.7417 18.4969 9.74015 18.4969 9.73859 18.4969Z" fill="white" /><path d="M6.73924 4.4498C7.13322 4.4498 7.4526 4.14051 7.4526 3.75899C7.4526 3.37746 7.13322 3.06817 6.73924 3.06817C6.34526 3.06817 6.02588 3.37746 6.02588 3.75899C6.02588 4.14051 6.34526 4.4498 6.73924 4.4498Z" fill="#F2F2F2" /><path d="M4.13768 24.321C4.53166 24.321 4.85104 24.0117 4.85104 23.6302C4.85104 23.2486 4.53166 22.9393 4.13768 22.9393C3.7437 22.9393 3.42432 23.2486 3.42432 23.6302C3.42432 24.0117 3.7437 24.321 4.13768 24.321Z" fill="#F2F2F2" /><path d="M20.5449 7.13179C20.9389 7.13179 21.2583 6.8225 21.2583 6.44098C21.2583 6.05945 20.9389 5.75017 20.5449 5.75017C20.1509 5.75017 19.8315 6.05945 19.8315 6.44098C19.8315 6.8225 20.1509 7.13179 20.5449 7.13179Z" fill="#F2F2F2" /></g><defs><clipPath id="clip0_1022_35"><rect width="24" height="28" fill="white" /></clipPath></defs></svg>