<svg viewBox="0 0 28 28" fill="none" xmlns="http://www.w3.org/2000/svg"><g clip-path="url(#clip0_1022_55)"><path d="M2.69265 23.5875L2.44605 22.6179C2.00881 22.4331 1.56148 22.2731 1.10617 22.1386L1.07504 22.5892L0.948811 22.0928C0.384148 21.9318 0 21.861 0 21.861C0 21.861 0.518763 23.8283 1.60719 25.3322L2.87531 25.5543L1.89014 25.696C2.02705 25.8602 2.17419 26.0157 2.33068 26.1615C3.91385 27.6267 5.67723 28.2989 6.26926 27.6629C6.86129 27.027 6.05781 25.3238 4.47464 23.8588C3.98384 23.4046 3.3673 23.0401 2.75013 22.7532L2.69265 23.5875Z" fill="#42B983" /><path d="M5.03774 22.5343L5.32938 21.5772C5.05089 21.1937 4.75094 20.8261 4.43094 20.4763L4.17065 20.8461L4.31996 20.356C3.91995 19.9274 3.62783 19.6688 3.62783 19.6688C3.62783 19.6688 3.05211 21.6203 3.20398 23.4686L4.17441 24.3123L3.25747 23.9258C3.28956 24.137 3.33493 24.346 3.39333 24.5515C3.98901 26.6216 5.15002 28.1058 5.98651 27.8666C6.823 27.6273 7.01825 25.7552 6.42258 23.685C6.23793 23.0433 5.89908 22.4135 5.51951 21.8499L5.03774 22.5343Z" fill="#42B983" /><path d="M19.5383 6.63322H19.3845V2.43178C19.3845 2.11243 19.3214 1.79621 19.1988 1.50118C19.0762 1.20614 18.8966 0.938062 18.6701 0.712251C18.4436 0.48644 18.1747 0.307316 17.8788 0.185108C17.5829 0.0628996 17.2657 0 16.9454 0H8.01718C7.3703 0 6.74992 0.256204 6.29251 0.712251C5.8351 1.1683 5.57812 1.78683 5.57812 2.43178V25.4816C5.57812 25.801 5.64121 26.1172 5.76379 26.4122C5.88636 26.7073 6.06602 26.9753 6.29251 27.2011C6.51899 27.427 6.78787 27.6061 7.08379 27.7283C7.37971 27.8505 7.69687 27.9134 8.01718 27.9134H16.9454C17.5923 27.9134 18.2127 27.6572 18.6701 27.2011C19.1275 26.7451 19.3844 26.1266 19.3844 25.4816V9.62389H19.5383L19.5383 6.63322Z" fill="black" /><path d="M17.0437 0.632431H15.8784C15.932 0.763444 15.9524 0.905588 15.9379 1.04634C15.9235 1.18709 15.8745 1.32213 15.7953 1.43956C15.7161 1.557 15.6092 1.65321 15.484 1.71974C15.3587 1.78626 15.219 1.82106 15.0771 1.82105H9.96217C9.82026 1.82105 9.68053 1.78624 9.55529 1.71971C9.43005 1.65318 9.32314 1.55696 9.24399 1.43953C9.16483 1.3221 9.11585 1.18707 9.10137 1.04632C9.08689 0.905575 9.10735 0.763438 9.16094 0.632431H8.07244C7.58936 0.632431 7.12606 0.823762 6.78447 1.16433C6.44288 1.5049 6.25098 1.96682 6.25098 2.44846V25.4648C6.25098 25.9464 6.44288 26.4084 6.78447 26.7489C7.12606 27.0895 7.58936 27.2808 8.07244 27.2808H17.0437C17.5268 27.2808 17.9901 27.0895 18.3317 26.7489C18.6733 26.4084 18.8652 25.9464 18.8652 25.4648V25.4648V2.44842C18.8652 1.96679 18.6733 1.50488 18.3317 1.16432C17.9901 0.823756 17.5268 0.632431 17.0437 0.632431V0.632431Z" fill="white" /><path d="M11.4149 9.80098C11.4149 9.6401 11.4573 9.48204 11.5381 9.34273C11.6188 9.20342 11.7348 9.08776 11.8746 9.00739C11.7349 8.92694 11.5764 8.88457 11.4151 8.88455C11.2537 8.88453 11.0952 8.92686 10.9555 9.00729C10.8157 9.08771 10.6997 9.20339 10.619 9.34271C10.5383 9.48202 10.4958 9.64006 10.4958 9.80092C10.4958 9.96179 10.5383 10.1198 10.619 10.2591C10.6997 10.3985 10.8157 10.5141 10.9555 10.5946C11.0952 10.675 11.2537 10.7173 11.4151 10.7173C11.5764 10.7173 11.7349 10.6749 11.8746 10.5945C11.7349 10.5141 11.6188 10.3985 11.5381 10.2592C11.4574 10.1199 11.4149 9.96185 11.4149 9.80098V9.80098Z" fill="#CCCCCC" /><path d="M12.5704 9.80098C12.5704 9.6401 12.6129 9.48204 12.6936 9.34273C12.7743 9.20341 12.8904 9.08775 13.0302 9.00739C12.8904 8.92694 12.7319 8.88457 12.5706 8.88455C12.4092 8.88453 12.2507 8.92686 12.111 9.00729C11.9712 9.08771 11.8552 9.20339 11.7745 9.34271C11.6938 9.48202 11.6514 9.64006 11.6514 9.80092C11.6514 9.96179 11.6938 10.1198 11.7745 10.2591C11.8552 10.3985 11.9712 10.5141 12.111 10.5946C12.2507 10.675 12.4092 10.7173 12.5706 10.7173C12.7319 10.7173 12.8904 10.6749 13.0302 10.5945C12.8904 10.5141 12.7743 10.3985 12.6936 10.2592C12.6129 10.1199 12.5704 9.96185 12.5704 9.80098V9.80098Z" fill="#CCCCCC" /><path d="M13.6996 10.7173C14.2072 10.7173 14.6187 10.307 14.6187 9.80095C14.6187 9.29485 14.2072 8.88458 13.6996 8.88458C13.192 8.88458 12.7805 9.29485 12.7805 9.80095C12.7805 10.307 13.192 10.7173 13.6996 10.7173Z" fill="#42B983" /><path d="M15.2356 12.6631H9.87888C9.82788 12.6631 9.77899 12.6428 9.74293 12.6069C9.70687 12.5709 9.68658 12.5222 9.68652 12.4713V7.13053C9.68658 7.07969 9.70687 7.03094 9.74293 6.99499C9.77899 6.95904 9.82788 6.93881 9.87888 6.93875H15.2356C15.2866 6.93881 15.3355 6.95904 15.3716 6.99499C15.4077 7.03094 15.4279 7.07969 15.428 7.13053V12.4713C15.4279 12.5222 15.4077 12.5709 15.3716 12.6069C15.3355 12.6428 15.2866 12.6631 15.2356 12.6631V12.6631ZM9.87888 7.01551C9.84828 7.01554 9.81894 7.02767 9.79731 7.04924C9.77567 7.07081 9.7635 7.10006 9.76347 7.13057V12.4714C9.7635 12.5019 9.77567 12.5311 9.79731 12.5527C9.81894 12.5743 9.84828 12.5864 9.87888 12.5864H15.2356C15.2662 12.5864 15.2956 12.5743 15.3172 12.5527C15.3389 12.5311 15.351 12.5019 15.3511 12.4714V7.13057C15.351 7.10006 15.3389 7.07081 15.3172 7.04924C15.2956 7.02767 15.2662 7.01554 15.2356 7.01551H9.87888Z" fill="#CCCCCC" /><path d="M16.4318 16.7571H8.21606V16.8338H16.4318V16.7571Z" fill="#CCCCCC" /><path d="M8.47551 16.2781C8.6188 16.2781 8.73496 16.1623 8.73496 16.0194C8.73496 15.8766 8.6188 15.7607 8.47551 15.7607C8.33222 15.7607 8.21606 15.8766 8.21606 16.0194C8.21606 16.1623 8.33222 16.2781 8.47551 16.2781Z" fill="#42B983" /><path d="M16.4318 19.3438H8.21606V19.4205H16.4318V19.3438Z" fill="#CCCCCC" /><path d="M8.47551 18.8648C8.6188 18.8648 8.73496 18.749 8.73496 18.6061C8.73496 18.4633 8.6188 18.3475 8.47551 18.3475C8.33222 18.3475 8.21606 18.4633 8.21606 18.6061C8.21606 18.749 8.33222 18.8648 8.47551 18.8648Z" fill="#42B983" /><path d="M16.2814 22.2894H13.685C13.6402 22.2893 13.5972 22.2716 13.5655 22.2399C13.5338 22.2083 13.5159 22.1654 13.5159 22.1207V21.2134C13.5159 21.1687 13.5338 21.1258 13.5655 21.0942C13.5972 21.0626 13.6402 21.0448 13.685 21.0448H16.2814C16.3263 21.0448 16.3693 21.0626 16.401 21.0942C16.4327 21.1258 16.4505 21.1687 16.4506 21.2134V22.1207C16.4505 22.1654 16.4327 22.2083 16.401 22.2399C16.3693 22.2716 16.3263 22.2893 16.2814 22.2894V22.2894Z" fill="#42B983" /><path d="M9.32196 16.2781C9.46525 16.2781 9.58141 16.1623 9.58141 16.0194C9.58141 15.8766 9.46525 15.7607 9.32196 15.7607C9.17866 15.7607 9.0625 15.8766 9.0625 16.0194C9.0625 16.1623 9.17866 16.2781 9.32196 16.2781Z" fill="#42B983" /><path d="M10.1681 16.2781C10.3114 16.2781 10.4276 16.1623 10.4276 16.0194C10.4276 15.8766 10.3114 15.7607 10.1681 15.7607C10.0249 15.7607 9.90869 15.8766 9.90869 16.0194C9.90869 16.1623 10.0249 16.2781 10.1681 16.2781Z" fill="#42B983" /><path d="M9.32196 18.8648C9.46525 18.8648 9.58141 18.749 9.58141 18.6061C9.58141 18.4633 9.46525 18.3475 9.32196 18.3475C9.17866 18.3475 9.0625 18.4633 9.0625 18.6061C9.0625 18.749 9.17866 18.8648 9.32196 18.8648Z" fill="#42B983" /><path d="M10.1681 18.8648C10.3114 18.8648 10.4276 18.749 10.4276 18.6061C10.4276 18.4633 10.3114 18.3475 10.1681 18.3475C10.0249 18.3475 9.90869 18.4633 9.90869 18.6061C9.90869 18.749 10.0249 18.8648 10.1681 18.8648Z" fill="#42B983" /><path d="M27.8954 28H0.905117C0.847339 28 0.800537 27.9795 0.800537 27.9543C0.800537 27.9292 0.847339 27.9087 0.905117 27.9087H27.8954C27.9531 27.9087 27.9999 27.9291 27.9999 27.9543C27.9999 27.9796 27.9531 28 27.8954 28Z" fill="#3F3D56" /><path d="M21.227 18.3447C21.2454 18.3531 21.2632 18.363 21.28 18.3742L22.9661 17.6568L23.0263 17.214L23.7 17.2098L23.6602 18.2254L21.4347 18.8122C21.4301 18.8276 21.4244 18.8427 21.4179 18.8575C21.3858 18.9259 21.334 18.9834 21.2692 19.0226C21.2044 19.0618 21.1294 19.0811 21.0536 19.078C20.9779 19.0748 20.9047 19.0495 20.8434 19.005C20.7821 18.9606 20.7353 18.8991 20.7089 18.8282C20.6825 18.7573 20.6777 18.6803 20.6951 18.6067C20.7125 18.5331 20.7513 18.4663 20.8066 18.4147C20.862 18.363 20.9314 18.3288 21.0062 18.3164C21.081 18.3039 21.1578 18.3138 21.227 18.3447V18.3447Z" fill="#FFB8B8" /><path d="M23.945 27.5481H23.4841L23.2649 25.7758L23.9451 25.7759L23.945 27.5481Z" fill="#FFB8B8" /><path d="M23.1551 27.4168H24.0439V27.9748H22.5955C22.5955 27.8268 22.6544 27.6849 22.7594 27.5803C22.8643 27.4756 23.0067 27.4168 23.1551 27.4168Z" fill="#2F2E41" /><path d="M25.7374 27.4183L25.2787 27.4634L24.8862 25.721L25.5631 25.6545L25.7374 27.4183Z" fill="#FFB8B8" /><path d="M24.9383 27.3649L25.8228 27.2781L25.8777 27.8333L24.4362 27.9749C24.429 27.9019 24.4363 27.8283 24.4576 27.7582C24.4789 27.6881 24.5139 27.6229 24.5605 27.5662C24.6072 27.5096 24.6645 27.4627 24.7293 27.4281C24.7941 27.3936 24.8651 27.3721 24.9383 27.3649Z" fill="#2F2E41" /><path d="M24.0734 15.3341C24.5833 15.3341 24.9967 14.922 24.9967 14.4136C24.9967 13.9052 24.5833 13.4931 24.0734 13.4931C23.5635 13.4931 23.1501 13.9052 23.1501 14.4136C23.1501 14.922 23.5635 15.3341 24.0734 15.3341Z" fill="#FFB8B8" /><path d="M23.3812 27.1897C23.3416 27.1898 23.3032 27.176 23.2729 27.1506C23.2425 27.1253 23.2221 27.09 23.2153 27.0511C22.9767 25.7309 22.197 21.4141 22.1783 21.2945C22.1779 21.2917 22.1777 21.289 22.1777 21.2862V20.9643C22.1777 20.9526 22.1814 20.9411 22.1882 20.9316L22.2912 20.7878C22.2961 20.7809 22.3026 20.7752 22.31 20.7711C22.3175 20.767 22.3257 20.7647 22.3342 20.7644C22.9215 20.7369 24.8448 20.6565 24.9377 20.7722C25.031 20.8885 24.998 21.2409 24.9905 21.3104L24.9908 21.3177L25.8549 26.8269C25.8616 26.8709 25.8508 26.9157 25.8247 26.9517C25.7985 26.9877 25.7592 27.012 25.7152 27.0194L25.1756 27.108C25.1354 27.1145 25.0942 27.1063 25.0595 27.085C25.0249 27.0638 24.999 27.0308 24.9866 26.9921C24.8197 26.4603 24.26 24.6715 24.0661 23.9793C24.0648 23.9749 24.0621 23.9711 24.0583 23.9686C24.0544 23.9661 24.0498 23.9651 24.0453 23.9657C24.0408 23.9663 24.0367 23.9686 24.0337 23.9721C24.0307 23.9755 24.0291 23.9799 24.0292 23.9845C24.0389 24.6443 24.0623 26.3278 24.0704 26.9092L24.0713 26.9719C24.0716 27.0143 24.056 27.0553 24.0275 27.0867C23.999 27.1182 23.9597 27.1379 23.9174 27.1419L23.397 27.189C23.3917 27.1895 23.3864 27.1897 23.3812 27.1897Z" fill="#2F2E41" /><path d="M23.4873 15.6961C23.3261 15.7916 23.2297 15.9671 23.1744 16.1457C23.072 16.4763 23.0103 16.8181 22.9908 17.1636L22.9323 18.198L22.2085 20.9404C22.8359 21.4696 23.1977 21.3493 24.0422 20.9164C24.8867 20.4835 24.9832 21.0608 24.9832 21.0608L25.1521 18.7274L25.3934 16.1776C25.3392 16.1125 25.2779 16.0538 25.2106 16.0024C24.9876 15.8295 24.7281 15.7093 24.4518 15.6509C24.1754 15.5925 23.8894 15.5974 23.6152 15.6652L23.4873 15.6961Z" fill="#FFFF00" /><path d="M23.2524 18.8986C23.2719 18.9059 23.2907 18.9147 23.3088 18.925L24.9759 18.093L25.0036 17.6423L25.6913 17.5951L25.7282 18.6225L23.5002 19.357C23.4821 19.4348 23.4405 19.5052 23.3812 19.5589C23.3219 19.6126 23.2476 19.6471 23.1682 19.6576C23.0888 19.6682 23.008 19.6544 22.9366 19.6181C22.8653 19.5818 22.8067 19.5247 22.7687 19.4544C22.7307 19.384 22.715 19.3039 22.7238 19.2245C22.7326 19.1451 22.7655 19.0702 22.818 19.0099C22.8705 18.9496 22.9402 18.9066 23.0178 18.8867C23.0954 18.8668 23.1772 18.871 23.2524 18.8986Z" fill="#FFB8B8" /><path d="M25.3815 16.1892C25.7917 16.3336 25.8639 17.8973 25.8639 17.8973C25.3814 17.6327 24.8023 18.0657 24.8023 18.0657C24.8023 18.0657 24.6817 17.6568 24.5369 17.1275C24.4932 16.9787 24.488 16.8212 24.5217 16.6698C24.5555 16.5183 24.6271 16.3779 24.7299 16.2615C24.7299 16.2615 24.9713 16.0448 25.3815 16.1892Z" fill="#FFFF00" /><path d="M24.9012 14.657C24.7861 14.5653 24.6292 14.7321 24.6292 14.7321L24.5372 13.9063C24.5372 13.9063 23.962 13.9749 23.5939 13.8833C23.2257 13.7917 23.1682 14.216 23.1682 14.216C23.1493 14.0446 23.1454 13.8719 23.1567 13.6998C23.1797 13.4934 23.4788 13.2869 24.008 13.1493C24.5372 13.0116 24.8132 13.6081 24.8132 13.6081C25.1814 13.7916 25.0162 14.7488 24.9012 14.657Z" fill="#2F2E41" /></g><defs><clipPath id="clip0_1022_55"><rect width="28" height="28" fill="white" /></clipPath></defs></svg>