<svg viewBox="0 0 40 28" fill="none" xmlns="http://www.w3.org/2000/svg"><g clip-path="url(#clip0_1022_2)"><path d="M12.2563 19.857C12.0763 19.8572 11.9038 19.9269 11.7766 20.051C11.6494 20.175 11.5778 20.3432 11.5776 20.5186V22.0666C11.5778 22.242 11.6494 22.4102 11.7766 22.5342C11.9038 22.6583 12.0763 22.728 12.2563 22.7282H13.117C13.2969 22.728 13.4694 22.6583 13.5966 22.5342C13.7239 22.4102 13.7954 22.242 13.7956 22.0666V20.5186C13.7954 20.3432 13.7239 20.175 13.5966 20.051C13.4694 19.9269 13.2969 19.8572 13.117 19.857H12.2563Z" fill="#FEFFFF" /><path d="M28.1676 22.7797H27.3069C27.1129 22.7795 26.927 22.7043 26.7899 22.5706C26.6528 22.4369 26.5757 22.2557 26.5754 22.0666V20.5186C26.5757 20.3295 26.6528 20.1483 26.7899 20.0146C26.927 19.8809 27.1129 19.8057 27.3069 19.8055H28.1676C28.3615 19.8057 28.5475 19.8809 28.6846 20.0146C28.8217 20.1483 28.8988 20.3295 28.899 20.5186V22.0666C28.8988 22.2557 28.8217 22.4369 28.6846 22.5706C28.5475 22.7043 28.3615 22.7795 28.1676 22.7797V22.7797Z" fill="#FEFFFF" /><path d="M27.5966 21.5403H12.7746C12.1001 21.5403 11.5513 21.1526 11.5513 20.676V17.8971L12.287 17.1417H28.2273L28.8199 17.8987V20.676C28.8199 21.1526 28.2711 21.5403 27.5966 21.5403Z" fill="#FFFF4D" /><path d="M28.1583 18.5319H12.3716L12.2112 16.1335L12.3133 15.888L12.9067 14.4643H27.5164L28.3187 16.081L28.1583 18.5319Z" fill="#FFFF4D" /><path d="M28.2917 16.0862L28.174 17.8883H24.7007V16.5496L28.193 15.8874L28.2917 16.0862Z" fill="white" /><path d="M15.7761 16.5496V17.8883H12.355L12.2378 16.1376L12.3376 15.8977L15.7761 16.5496Z" fill="white" /><path d="M27.4281 14.8762H12.9944L14.5338 9.87293C14.5966 9.6663 14.7259 9.48484 14.9026 9.35538C15.0794 9.22591 15.2941 9.15531 15.5151 9.154L25.0741 9.06523C25.3051 9.06304 25.5301 9.13628 25.7135 9.27328C25.8968 9.41027 26.0278 9.60315 26.0857 9.82117L27.4281 14.8762Z" fill="#FFFF4D" /><path d="M26.3169 14.4031L14.1031 14.2619C14.0877 14.2617 14.0725 14.258 14.0588 14.251C14.0451 14.2441 14.0333 14.2341 14.0242 14.2219C14.0152 14.2097 14.0092 14.1956 14.0068 14.1807C14.0044 14.1658 14.0056 14.1506 14.0103 14.1363L15.1812 10.5745C15.1876 10.555 15.2001 10.5381 15.217 10.5261C15.2339 10.5141 15.2543 10.5076 15.2752 10.5076H25.099C25.1199 10.5076 25.1403 10.5141 25.1572 10.5261C25.1741 10.5381 25.1866 10.555 25.193 10.5744L26.4121 14.2775C26.4169 14.292 26.418 14.3074 26.4155 14.3224C26.413 14.3375 26.4068 14.3517 26.3975 14.364C26.3882 14.3763 26.3761 14.3862 26.3621 14.393C26.3481 14.3998 26.3326 14.4033 26.3169 14.4031V14.4031Z" fill="white" /><path d="M21.8573 9.67578H18.5652C18.5375 9.67578 18.5123 9.64916 18.4996 9.60626C18.4868 9.56236 18.4887 9.51565 18.5048 9.47282L18.7763 8.80346C18.7901 8.76934 18.8127 8.74898 18.8367 8.74898H21.5858C21.6098 8.74898 21.6324 8.76934 21.6463 8.80346L21.9177 9.47282C21.9339 9.51565 21.9357 9.56236 21.923 9.60626C21.9102 9.64916 21.8851 9.67578 21.8573 9.67578Z" fill="#42B983" /><path d="M13.0036 14.7732H10.8384V14.3092C10.8386 14.1592 10.8997 14.0154 11.0085 13.9093C11.1173 13.8032 11.2648 13.7436 11.4187 13.7434H13.0036V14.7732Z" fill="#FFFF4D" /><path d="M29.5856 14.7732H27.4204V13.7434H29.0053C29.1592 13.7436 29.3067 13.8032 29.4154 13.9093C29.5242 14.0154 29.5854 14.1592 29.5856 14.3092V14.7732Z" fill="#FFFF4D" /><path d="M10.585 22.0064L0 25.7138L0.044934 25.8358L10.6299 22.1284L10.585 22.0064Z" fill="white" /><path d="M29.7722 22.0067L29.7273 22.1286L40.3126 25.8351L40.3575 25.7132L29.7722 22.0067Z" fill="white" /><path d="M20.8001 24.6948H20.1665V23.897H20.8001V24.6948ZM20.8001 23.099H20.1665V22.3011H20.8001V23.099Z" fill="#E6E6E6" /><path d="M20.8001 28H20.1665V27.2021H20.8001V28ZM20.8001 26.4042H20.1665V25.6063H20.8001V26.4042Z" fill="#E6E6E6" /><path d="M20.1929 6.42246C21.9289 6.42246 23.3362 5.05033 23.3362 3.35773C23.3362 1.66513 21.9289 0.292999 20.1929 0.292999C18.4569 0.292999 17.0496 1.66513 17.0496 3.35773C17.0496 5.05033 18.4569 6.42246 20.1929 6.42246Z" fill="#42B983" /><path d="M19.8934 4.65141L18.9526 3.47198L19.4997 3.05708L19.9452 3.61553L21.4501 2.06664L21.9533 2.5315L19.8934 4.65141Z" fill="white" /></g><defs><clipPath id="clip0_1022_2"><rect width="40" height="28" fill="white" /></clipPath></defs></svg>