<svg viewBox="0 0 412 275" fill="none" xmlns="http://www.w3.org/2000/svg"><path d="M349.59 126.523C355.919 102.901 350.107 76.3519 334.484 57.5263C318.861 38.7006 293.833 28.0985 269.464 29.9607C245.096 31.823 221.958 46.1001 209.373 67.0737C205.121 74.1601 201.891 82.0925 195.837 87.7066C187.641 95.3094 175.688 97.32 164.525 97.0453C153.363 96.7706 142.222 94.6118 131.071 95.3204C111.295 96.5729 92.1781 107.62 82.0374 124.644C71.8967 141.668 71.4463 164.278 81.7188 181.225C90.1456 195.134 104.791 204.445 120.277 209.384C135.762 214.322 152.226 215.317 168.481 215.74C204.517 216.668 241.394 214.817 274.98 201.726C308.566 188.636 338.702 162.724 349.299 128.258" fill="#E0E0E0" /><path d="M61.6407 28.5049C66.5847 19.1663 76.4727 12.7556 87.833 13.9256C92.6726 13.64 101.434 16.8591 107.06 23.1654C112.685 29.4718 114.97 38.7775 112.778 46.9296C110.032 57.1417 104.071 64.4313 93.8372 67.1011C83.6031 69.7709 71.9298 66.2661 65.0851 58.2019C58.2404 50.1377 56.7022 37.8601 61.6407 28.5049Z" fill="#E0E0E0" /><path d="M390.027 243.948C390.027 244.03 307.627 244.091 206.033 244.091C104.439 244.091 22.0063 244.03 22.0063 243.948C22.0063 243.866 104.373 243.805 206.033 243.805C307.693 243.805 390.027 243.871 390.027 243.948Z" fill="#263238" /><path d="M178.072 243.948L105.055 243.613C100.839 243.587 96.8056 241.891 93.8382 238.897C90.8707 235.902 89.211 231.854 89.2227 227.638L89.9973 44.5839C90.022 40.3665 91.7181 36.3309 94.7137 33.3621C97.7093 30.3933 101.76 28.7335 105.977 28.7467L178.995 29.0818C183.208 29.1079 187.24 30.8024 190.207 33.7942C193.174 36.7861 194.835 40.8317 194.827 45.0454L194.052 228.1C194.03 232.319 192.335 236.357 189.339 239.329C186.344 242.3 182.291 243.961 178.072 243.948Z" fill="#455A64" /><path d="M178.89 35.3991L164.734 35.3332C163.802 35.3505 162.915 35.7367 162.267 36.407C161.62 37.0774 161.264 37.9773 161.279 38.9093V41.4802C161.286 41.9416 161.202 42.4 161.032 42.829C160.862 43.258 160.609 43.6493 160.288 43.9804C159.966 44.3116 159.583 44.5761 159.159 44.7588C158.735 44.9415 158.279 45.0389 157.818 45.0454L130.219 44.919C129.288 44.8917 128.405 44.4968 127.764 43.8205C127.122 43.1442 126.775 42.2416 126.797 41.3099V38.739C126.813 37.8135 126.465 36.9187 125.826 36.2484C125.188 35.578 124.311 35.1861 123.386 35.1574H118.409L106.021 35.064C103.068 35.0494 100.229 36.2084 98.1296 38.2861C96.0303 40.3639 94.8419 43.1903 94.8259 46.144L94.0734 224.82C94.0602 227.774 95.2206 230.612 97.2994 232.71C99.3782 234.809 102.205 235.996 105.159 236.01L178.033 236.345C179.496 236.352 180.946 236.07 182.3 235.516C183.655 234.962 184.886 234.147 185.925 233.117C186.965 232.087 187.791 230.863 188.356 229.514C188.922 228.165 189.217 226.717 189.223 225.254L189.976 46.5835C189.982 45.1212 189.701 43.672 189.147 42.3185C188.594 40.9651 187.779 39.7339 186.75 38.6954C185.72 37.6568 184.496 36.8311 183.148 36.2656C181.799 35.7 180.353 35.4056 178.89 35.3991Z" fill="#FAFAFA" /><path d="M94.738 67.5955H106.681L117.338 78.258L106.258 89.3381L94.8644 77.9394L94.738 67.5955Z" fill="#EBEBEB" /><path d="M119.771 73.5777L113.783 67.5955H127.253L119.771 73.5777Z" fill="#EBEBEB" /><path d="M125.006 78.4669L135.493 67.9801H172.134C172.134 67.9801 177.742 93.0297 155.654 109.114L125.006 78.4669Z" fill="#EBEBEB" /><path d="M120.518 81.8068L109.301 93.0296L140.344 124.072L151.561 112.476L120.518 81.8068Z" fill="#EBEBEB" /><path d="M94.6006 99.3909L101.632 92.0958L94.7379 85.2017L94.6006 99.3909Z" fill="#EBEBEB" /><path d="M105.84 96.3971L95.04 107.197V122.205L117.337 145.019L136.229 127.44L105.84 96.3971Z" fill="#EBEBEB" /><path d="M159.856 112.262C159.856 112.262 182.994 95.2985 175.512 67.9801H189.899L189.723 145.085L159.856 112.262Z" fill="#EBEBEB" /><path d="M155.505 116.711L144.321 128.39L178.621 162.696L189.113 151.578L155.505 116.711Z" fill="#EBEBEB" /><path d="M139.646 131.587L122.062 149.045L157.23 183.966L174.781 166.997L139.646 131.587Z" fill="#EBEBEB" /><path d="M130.428 219.058L157.313 191.196L182.884 217.261L130.428 219.058Z" fill="#EBEBEB" /><path d="M161.504 187.597L189.52 159.856C189.52 161.087 189.278 217.377 189.278 217.377L161.504 187.597Z" fill="#EBEBEB" /><path d="M137.537 172.018L153.418 187.9L122.062 220.255L107.576 202.88L137.537 172.018Z" fill="#EBEBEB" /><path d="M94.6282 205.132C96.1279 204.984 134.532 169.019 134.532 169.019L94.6282 127.671V205.132Z" fill="#EBEBEB" /><path d="M94.0732 213.328L103.319 205.132L116.123 220.255H94.0732V214.471" fill="#EBEBEB" /><path d="M106.021 56.7077C105.044 55.9868 104.126 55.1896 103.275 54.3236C103.275 53.9061 103.275 54.2082 103.275 54.1148L103.313 54.0819L103.379 54.0214L103.516 53.8951L103.78 53.6479L104.28 53.1864L105.142 52.4174C105.404 52.1505 105.699 51.9196 106.021 51.7307C105.825 52.0294 105.589 52.2994 105.318 52.5327L104.494 53.3458L104.005 53.8182L103.742 54.0709L103.61 54.1972L103.538 54.2576L103.505 54.2906V54.0819C104.411 54.8903 105.252 55.7683 106.021 56.7077Z" fill="#263238" /><path d="M181.967 52.5163C181.968 52.6352 181.933 52.7517 181.868 52.851C181.803 52.9503 181.709 53.0279 181.599 53.0739C181.49 53.1199 181.369 53.1322 181.252 53.1093C181.136 53.0864 181.028 53.0292 180.944 52.9451C180.86 52.8611 180.803 52.7539 180.78 52.6372C180.757 52.5206 180.77 52.3997 180.816 52.2901C180.862 52.1805 180.939 52.087 181.039 52.0216C181.138 51.9562 181.254 51.9219 181.373 51.923C181.531 51.923 181.682 51.9855 181.793 52.0968C181.904 52.208 181.967 52.3589 181.967 52.5163Z" fill="#263238" /><path d="M181.796 54.1478C181.88 54.2315 181.937 54.3382 181.961 54.4544C181.984 54.5706 181.972 54.691 181.927 54.8005C181.881 54.91 181.805 55.0036 181.706 55.0694C181.608 55.1353 181.492 55.1704 181.373 55.1704C181.255 55.1704 181.139 55.1353 181.041 55.0694C180.942 55.0036 180.865 54.91 180.82 54.8005C180.775 54.691 180.763 54.5706 180.786 54.4544C180.809 54.3382 180.867 54.2315 180.95 54.1478C181.063 54.0371 181.215 53.9751 181.373 53.9751C181.532 53.9751 181.683 54.0371 181.796 54.1478Z" fill="#263238" /><path d="M181.967 56.6198C181.952 56.768 181.883 56.9056 181.773 57.0057C181.663 57.1058 181.519 57.1613 181.371 57.1613C181.222 57.1613 181.078 57.1058 180.968 57.0057C180.858 56.9056 180.789 56.768 180.774 56.6198C180.766 56.5367 180.776 56.4529 180.802 56.3737C180.829 56.2945 180.871 56.2217 180.927 56.1599C180.983 56.0981 181.052 56.0488 181.128 56.015C181.205 55.9812 181.287 55.9637 181.371 55.9637C181.454 55.9637 181.537 55.9812 181.613 56.015C181.689 56.0488 181.758 56.0981 181.814 56.1599C181.87 56.2217 181.912 56.2945 181.939 56.3737C181.965 56.4529 181.975 56.5367 181.967 56.6198Z" fill="#263238" /><path d="M156.225 54.9498H130.527V57.0922H156.225V54.9498Z" fill="#263238" /><path d="M153.429 93.3867C153.429 83.3778 142.915 77.0385 132.192 82.054C129.765 83.1873 127.78 85.0892 126.544 87.4649C123.847 92.689 125.039 98.6548 127.484 103.61L135.834 124.765C136.097 125.439 136.558 126.018 137.156 126.426C137.754 126.834 138.461 127.052 139.185 127.052C139.908 127.052 140.615 126.834 141.213 126.426C141.811 126.018 142.272 125.439 142.536 124.765L150.715 103.5C153.55 97.0178 153.429 93.3867 153.429 93.3867ZM143.376 102.121C136.169 106.313 128.863 98.5669 132.812 90.9202C133.333 89.9118 134.127 89.0703 135.103 88.4921C142.316 84.3007 149.622 92.0463 145.667 99.693C145.149 100.703 144.354 101.545 143.376 102.121Z" fill="#FFD500" /><path d="M371.937 169.81H67.156V214.531H371.937V169.81Z" fill="#FFD500" /><g opacity="0.5"><path opacity="0.5" d="M371.937 169.81H67.156V214.531H371.937V169.81Z" fill="black" /></g><path d="M110.088 243.55C126.283 242.46 138.528 228.448 137.438 212.253C136.348 196.059 122.336 183.814 106.141 184.904C89.9467 185.994 77.7019 200.005 78.7917 216.2C79.8815 232.395 93.8934 244.64 110.088 243.55Z" fill="#263238" /><path d="M78.7304 213.729C78.7304 213.757 78.7304 213.784 78.7304 213.806C78.6745 217.665 79.3793 221.498 80.8046 225.085C82.2299 228.672 84.3477 231.944 87.0373 234.712C89.7268 237.481 92.9353 239.692 96.4796 241.221C100.024 242.75 103.835 243.565 107.694 243.621C111.553 243.677 115.386 242.972 118.973 241.547C122.56 240.122 125.831 238.004 128.6 235.314C131.369 232.625 133.58 229.416 135.109 225.872C136.638 222.328 137.453 218.517 137.509 214.658C137.509 214.63 137.509 214.603 137.509 214.581L78.7304 213.729Z" fill="#263238" /><path d="M87.4813 213.932C87.4208 218.013 88.572 222.02 90.7892 225.447C93.0065 228.874 96.1901 231.566 99.9374 233.182C103.685 234.799 107.828 235.269 111.842 234.531C115.856 233.793 119.561 231.882 122.488 229.038C125.416 226.194 127.434 222.546 128.288 218.555C129.142 214.564 128.793 210.409 127.286 206.617C125.778 202.824 123.18 199.564 119.819 197.248C116.458 194.932 112.486 193.665 108.405 193.607C102.936 193.529 97.6592 195.627 93.7356 199.438C89.8119 203.249 87.5623 208.463 87.4813 213.932Z" fill="#FAFAFA" /><path d="M108.405 193.602C102.935 193.522 97.6579 195.619 93.7339 199.431C89.8099 203.243 87.5608 208.457 87.4812 213.927L128.742 214.526C128.819 209.054 126.721 203.776 122.907 199.852C119.093 195.928 113.877 193.68 108.405 193.602Z" fill="#E0E0E0" /><path d="M95.5456 214.048C95.5089 216.534 96.2103 218.975 97.561 221.062C98.9118 223.149 100.851 224.789 103.134 225.774C105.417 226.759 107.941 227.044 110.386 226.595C112.831 226.145 115.088 224.98 116.871 223.248C118.654 221.516 119.884 219.293 120.404 216.862C120.924 214.431 120.711 211.9 119.792 209.589C118.874 207.279 117.291 205.293 115.243 203.883C113.196 202.472 110.776 201.701 108.29 201.666C106.64 201.642 105.002 201.943 103.468 202.552C101.935 203.162 100.537 204.067 99.3531 205.217C98.1696 206.367 97.2242 207.738 96.5709 209.254C95.9176 210.769 95.5692 212.398 95.5456 214.048Z" fill="#263238" /><path d="M334.558 243.54C350.762 242.6 363.136 228.702 362.196 212.498C361.256 196.293 347.358 183.92 331.154 184.86C314.95 185.8 302.576 199.697 303.516 215.902C304.456 232.106 318.354 244.48 334.558 243.54Z" fill="#263238" /><path d="M303.463 213.729C303.463 213.757 303.463 213.784 303.463 213.806C303.407 217.665 304.111 221.498 305.537 225.085C306.962 228.672 309.08 231.944 311.769 234.712C314.459 237.481 317.667 239.692 321.212 241.221C324.756 242.75 328.567 243.565 332.426 243.621C336.286 243.677 340.118 242.972 343.705 241.547C347.292 240.122 350.564 238.004 353.332 235.314C356.101 232.625 358.313 229.416 359.841 225.872C361.37 222.328 362.185 218.517 362.241 214.658C362.241 214.63 362.241 214.603 362.241 214.581L303.463 213.729Z" fill="#263238" /><path d="M312.213 213.932C312.153 218.013 313.304 222.02 315.521 225.447C317.739 228.874 320.922 231.566 324.67 233.182C328.417 234.799 332.56 235.269 336.574 234.531C340.588 233.793 344.293 231.882 347.221 229.038C350.148 226.194 352.166 222.546 353.02 218.555C353.874 214.564 353.526 210.409 352.018 206.617C350.51 202.824 347.912 199.564 344.551 197.248C341.19 194.932 337.218 193.665 333.138 193.607C327.668 193.529 322.391 195.627 318.468 199.438C314.544 203.249 312.294 208.463 312.213 213.932Z" fill="#FAFAFA" /><path d="M333.138 193.602C327.668 193.522 322.39 195.619 318.466 199.431C314.542 203.243 312.293 208.457 312.213 213.927L353.474 214.526C353.552 209.054 351.453 203.776 347.639 199.852C343.825 195.928 338.609 193.68 333.138 193.602Z" fill="#E0E0E0" /><path d="M320.261 214.048C320.224 216.534 320.926 218.975 322.277 221.062C323.627 223.149 325.567 224.789 327.85 225.774C330.133 226.759 332.656 227.044 335.101 226.595C337.547 226.145 339.804 224.98 341.587 223.248C343.37 221.516 344.599 219.293 345.119 216.862C345.639 214.431 345.427 211.9 344.508 209.589C343.589 207.279 342.006 205.293 339.959 203.883C337.911 202.472 335.492 201.701 333.006 201.666C331.356 201.642 329.717 201.943 328.184 202.552C326.651 203.162 325.252 204.067 324.069 205.217C322.885 206.367 321.94 207.738 321.286 209.254C320.633 210.769 320.285 212.398 320.261 214.048Z" fill="#263238" /><path d="M146.633 144.65C146.633 144.65 103.357 147.842 87.3055 151.44C76.0002 153.973 54.2027 158.351 54.4663 172.062L56.1967 181.895C56.1967 181.895 48.116 185.587 48.116 195.013C48.116 204.44 46.1439 219.052 65.019 219.64C68.1283 219.733 74.0336 219.64 74.0336 219.64C74.0336 219.64 70.4135 179.44 107.34 178.264C144.909 177.067 142.415 219.272 142.415 219.272H299.211C299.211 219.272 292.773 178.154 333.215 178.072C373.656 177.99 367.504 219.541 367.504 219.541C367.504 219.541 382.38 220.827 389.301 208.324C396.223 195.821 394.427 186.9 394.427 186.9L394.196 178.995C394.152 177.698 393.617 176.465 392.699 175.547C391.782 174.63 390.549 174.095 389.252 174.051C389.252 174.051 391.955 154.154 387.807 150.71C383.66 147.265 360.934 126.484 360.934 126.484L362.033 125.808C362.44 125.551 362.766 125.183 362.973 124.748C363.18 124.313 363.259 123.828 363.201 123.35C363.144 122.871 362.952 122.419 362.648 122.045C362.344 121.671 361.94 121.392 361.483 121.238C352.853 118.271 335.791 112.399 331.781 110.998C331.18 110.785 330.554 110.652 329.919 110.603C327.523 110.422 320.745 109.993 308.302 109.861C293.146 109.696 232.972 109.861 232.972 109.861C232.972 109.861 212.262 111.564 200.726 116.64C188.63 121.98 146.633 144.65 146.633 144.65Z" fill="#FFD500" /><g opacity="0.4"><path opacity="0.4" d="M59.0916 193.915C57.5205 193.596 55.1145 193.569 53.9169 194.629C53.027 195.42 52.7908 196.7 52.659 197.881C52.4067 199.499 52.4438 201.149 52.7688 202.754C52.9345 203.555 53.264 204.314 53.7367 204.982C54.2093 205.65 54.8149 206.214 55.5155 206.637C56.9547 207.417 58.9213 207.291 60.0365 206.088C61.0583 204.989 61.1736 203.341 61.1352 201.875C61.0967 199.754 61.267 197.958 60.877 195.876C60.7909 195.434 60.6028 195.018 60.3276 194.662C60.1908 194.449 60.0066 194.27 59.7894 194.139C59.5721 194.009 59.3277 193.93 59.0752 193.909" fill="black" /></g><path d="M56.2077 181.895C60.8001 181.895 65.2552 181.643 69.8422 181.346C70.3418 181.368 70.834 181.219 71.2375 180.923C71.422 180.693 71.5592 180.43 71.6412 180.147C71.7233 179.864 71.7485 179.568 71.7154 179.275C71.7154 176.814 71.6165 174.012 69.7488 172.408C68.6062 171.43 67.0405 171.123 65.5409 170.986C61.8167 170.583 58.0496 170.957 54.4773 172.084L56.2077 181.895Z" fill="#FAFAFA" /><path d="M151.616 218.014C151.616 218.014 151.616 217.882 151.583 217.618C151.55 217.355 151.539 216.965 151.506 216.465C151.451 215.443 151.369 213.954 151.264 212.032C151.16 210.109 151.028 207.752 150.753 205.028C150.47 201.943 149.928 198.887 149.133 195.892C148.13 192.275 146.643 188.81 144.711 185.592C142.523 181.876 139.615 178.634 136.158 176.056C128.747 170.782 118.733 167.816 108.257 167.673C97.7812 167.53 87.7614 170.843 80.5322 176.396C77.0669 178.96 74.0315 182.059 71.5396 185.576C69.3638 188.63 67.5947 191.953 66.277 195.464C65.1899 198.365 64.4433 201.383 64.0522 204.456C63.7458 206.774 63.6557 209.115 63.783 211.449C63.8731 212.924 64.0566 214.392 64.3323 215.844C64.4202 216.333 64.4916 216.712 64.5356 216.976C64.5795 217.239 64.596 217.366 64.596 217.366C64.596 217.366 64.563 217.239 64.5081 216.987L64.2719 215.888C63.9729 214.439 63.7747 212.97 63.6786 211.493C63.5292 209.152 63.6028 206.801 63.8983 204.473C64.2769 201.384 65.0144 198.349 66.0957 195.431C67.4089 191.893 69.178 188.541 71.3583 185.46C73.8559 181.915 76.9048 178.792 80.3893 176.21C87.6515 170.628 97.6933 167.283 108.252 167.42C118.81 167.558 128.841 170.552 136.311 175.875C139.789 178.478 142.712 181.75 144.909 185.499C146.839 188.742 148.317 192.233 149.303 195.876C150.094 198.883 150.625 201.952 150.891 205.05C151.149 207.796 151.264 210.136 151.352 212.059C151.44 213.982 151.501 215.476 151.544 216.498C151.544 216.998 151.577 217.382 151.588 217.651C151.599 217.921 151.616 218.014 151.616 218.014Z" fill="white" /><path d="M153.264 218.695V218.365L153.231 217.393C153.204 216.525 153.165 215.256 153.11 213.597C153.017 210.263 152.879 205.39 152.704 199.188C152.528 192.986 152.325 185.455 152.088 176.83C152.028 174.671 151.973 172.436 151.907 170.156C151.869 168.991 151.92 167.825 152.061 166.668L152.308 164.899L152.671 163.125C153.24 160.7 154.059 158.342 155.115 156.088C156.203 153.724 157.548 151.488 159.125 149.419L186.279 132.312L193.613 127.698C196.084 126.055 198.679 124.606 201.375 123.364C204.131 122.066 206.959 120.927 209.845 119.952C211.285 119.447 212.762 119.035 214.24 118.596C215.718 118.156 217.223 117.794 218.75 117.497C224.508 116.265 230.362 115.53 236.246 115.3C241.893 115.029 247.549 115.047 253.193 115.354H253.353L253.314 115.514L246.019 148.15C244.671 150.363 243.566 152.715 242.723 155.165C241.893 157.488 241.52 159.951 241.624 162.416C241.811 164.827 241.877 167.19 241.937 169.48C241.998 171.771 242.025 173.99 242.069 176.149C242.196 184.774 242.229 192.294 242.251 198.491C242.272 204.687 242.251 209.56 242.251 212.889C242.251 214.537 242.251 215.817 242.251 216.685C242.251 217.108 242.251 217.432 242.251 217.657C242.251 217.882 242.251 217.986 242.251 217.986C242.251 217.986 242.251 217.871 242.251 217.657C242.251 217.443 242.251 217.108 242.251 216.685C242.251 215.817 242.251 214.548 242.251 212.889C242.251 209.56 242.201 204.687 242.163 198.496C242.124 192.305 242.069 184.763 241.921 176.149C241.877 173.996 241.829 171.775 241.778 169.486C241.712 167.195 241.646 164.844 241.454 162.432C241.343 159.936 241.716 157.442 242.553 155.088C243.39 152.618 244.495 150.247 245.849 148.018V148.056C248.084 138.009 250.529 127.044 253.116 115.415L253.243 115.58C247.611 115.276 241.967 115.262 236.334 115.536C230.464 115.763 224.625 116.498 218.882 117.733C217.36 118.035 215.877 118.458 214.388 118.832C212.9 119.205 211.444 119.683 209.994 120.183C207.107 121.159 204.279 122.3 201.523 123.6C198.841 124.834 196.259 126.274 193.799 127.907L186.46 132.521L159.307 149.589V149.561C157.732 151.617 156.391 153.84 155.308 156.192C154.252 158.429 153.435 160.771 152.868 163.179C151.632 167.887 152.253 172.518 152.264 176.83L152.814 199.188C152.962 205.385 153.077 210.263 153.154 213.592C153.193 215.24 153.215 216.525 153.237 217.393C153.237 217.814 153.237 218.138 153.237 218.365C153.264 218.585 153.264 218.695 153.264 218.695Z" fill="#263238" /><path d="M252.995 116.261H253.254L254.006 116.233L256.923 116.162L267.739 115.953L304.204 115.327H304.276L304.32 115.382L309.428 121.639C314.603 127.995 319.536 134.037 324.019 139.531L325.667 141.563C326.2 142.244 326.659 142.981 327.035 143.761C327.715 145.206 328.085 146.778 328.12 148.375C328.155 149.973 327.854 151.559 327.238 153.033L325.59 156.879L320.547 168.546L319.163 171.711L318.795 172.535C318.712 172.716 318.663 172.809 318.663 172.809C318.663 172.809 318.696 172.71 318.767 172.524C318.838 172.337 318.965 172.046 319.108 171.689C319.421 170.953 319.866 169.876 320.443 168.502L325.387 156.802C326.331 154.319 327.996 151.704 327.88 148.518C327.856 146.898 327.481 145.304 326.782 143.843C326.414 143.084 325.964 142.368 325.441 141.706L323.793 139.673L309.187 121.798L304.083 115.541L304.193 115.596L267.723 116.146L256.907 116.272H253.99H253.243L252.995 116.261Z" fill="#263238" /><path d="M234.565 164.756C234.565 164.756 234.719 164.756 234.999 164.69C235.411 164.617 235.804 164.46 236.153 164.229C236.706 163.868 237.121 163.329 237.328 162.702C237.454 162.312 237.506 161.902 237.482 161.493C237.469 161.037 237.353 160.59 237.142 160.186C236.896 159.725 236.532 159.339 236.086 159.068C235.641 158.796 235.131 158.649 234.609 158.642H230.907H222.419C221.703 158.643 221.012 158.914 220.486 159.4C219.972 159.868 219.644 160.506 219.563 161.196C219.48 161.863 219.602 162.54 219.914 163.136C220.233 163.695 220.728 164.133 221.321 164.383C221.908 164.584 222.531 164.661 223.15 164.608H224.946H228.176L232.851 164.652L234.12 164.679C234.269 164.676 234.418 164.687 234.565 164.712C234.418 164.729 234.269 164.739 234.12 164.74H232.851L228.176 164.784H224.946H223.15C222.837 164.784 222.535 164.784 222.2 164.784C221.864 164.763 221.533 164.687 221.222 164.558C220.57 164.291 220.027 163.813 219.678 163.201C219.33 162.559 219.193 161.822 219.288 161.098C219.375 160.327 219.741 159.615 220.319 159.097C220.896 158.579 221.644 158.292 222.419 158.29H230.907H234.615C235.175 158.302 235.722 158.465 236.198 158.762C236.674 159.059 237.06 159.479 237.317 159.977C237.537 160.41 237.656 160.887 237.663 161.372C237.681 161.801 237.62 162.229 237.482 162.636C237.25 163.288 236.802 163.842 236.213 164.207C235.85 164.438 235.438 164.583 235.01 164.63C234.867 164.689 234.718 164.732 234.565 164.756Z" fill="#263238" /><path d="M315.866 164.756C315.866 164.756 316.02 164.756 316.3 164.69C316.713 164.617 317.105 164.46 317.454 164.229C318.008 163.868 318.422 163.329 318.63 162.702C318.756 162.312 318.808 161.902 318.783 161.493C318.77 161.037 318.654 160.59 318.443 160.186C318.197 159.725 317.833 159.339 317.387 159.068C316.942 158.796 316.432 158.649 315.91 158.642H312.208H303.721C303.004 158.643 302.314 158.914 301.787 159.4C301.273 159.868 300.945 160.506 300.864 161.196C300.781 161.863 300.904 162.54 301.216 163.136C301.534 163.695 302.029 164.133 302.622 164.383C303.21 164.584 303.833 164.661 304.451 164.608H306.248H309.478L314.153 164.652L315.422 164.679C315.571 164.676 315.72 164.687 315.866 164.712C315.719 164.729 315.57 164.739 315.422 164.74H314.153L309.478 164.784H306.248H304.451C304.138 164.784 303.836 164.784 303.501 164.784C303.165 164.763 302.834 164.687 302.523 164.558C301.872 164.291 301.328 163.813 300.98 163.201C300.631 162.559 300.494 161.822 300.59 161.098C300.676 160.327 301.043 159.615 301.62 159.097C302.198 158.579 302.945 158.292 303.721 158.29H312.208H315.916C316.477 158.302 317.023 158.465 317.499 158.762C317.975 159.059 318.362 159.479 318.619 159.977C318.839 160.41 318.957 160.887 318.965 161.372C318.983 161.801 318.921 162.229 318.783 162.636C318.551 163.288 318.104 163.842 317.514 164.207C317.151 164.438 316.739 164.583 316.311 164.63C316.169 164.689 316.019 164.732 315.866 164.756Z" fill="#263238" /><path d="M387.11 151.495H370.849C369.756 151.495 368.684 151.793 367.748 152.357C366.812 152.922 366.047 153.731 365.537 154.698C365.118 155.498 364.885 156.382 364.854 157.284C364.824 158.187 364.997 159.085 365.361 159.911L371.734 174.397L388.016 174.238C388.016 174.238 391.482 155.873 387.11 151.495Z" fill="#FAFAFA" /><path d="M161.284 149.446L245.184 147.897L299.788 146.897L317.795 136.498C318.137 136.299 318.433 136.029 318.663 135.707C318.893 135.384 319.053 135.017 319.13 134.628C319.207 134.24 319.201 133.839 319.112 133.453C319.023 133.067 318.853 132.705 318.613 132.389L307.401 117.662C306.825 116.903 306.083 116.287 305.232 115.861C304.38 115.434 303.443 115.208 302.49 115.201L241.415 114.706C241.415 114.706 218.42 113.366 200.298 123.496C181.241 134.191 161.284 149.446 161.284 149.446Z" fill="#263238" /><path d="M199.732 116.228C199.732 116.228 203.94 118.145 201.204 119.92C198.469 121.694 155.961 148.485 155.961 148.485L146.188 144.063C163.498 134.433 180.978 125.067 199.732 116.228Z" fill="#455A64" /><path d="M157.334 149.166L157.071 149.232L156.296 149.402L153.313 150.017C150.72 150.534 146.963 151.259 142.327 152.061C132.988 153.665 120.068 155.533 105.692 156.774C102.093 157.087 98.5503 157.324 95.1884 157.565C91.8264 157.807 88.5195 157.999 85.4102 158.279C79.1863 158.829 73.616 159.73 69.0895 161.076C65.4917 162.076 62.0292 163.511 58.7786 165.349C57.6085 165.965 56.7735 166.569 56.1857 166.931L55.5155 167.354L55.2793 167.492C55.3498 167.435 55.4231 167.382 55.499 167.332L56.1527 166.882C56.735 166.503 57.559 165.882 58.7236 165.234C61.9545 163.346 65.4093 161.869 69.0071 160.839C73.5446 159.461 79.1314 158.532 85.3608 157.977C88.4755 157.681 91.7495 157.472 95.1444 157.247C98.5393 157.021 102.05 156.758 105.642 156.445C120.013 155.203 132.95 153.368 142.272 151.814C146.936 151.039 150.693 150.347 153.291 149.864L156.285 149.314L157.065 149.171L157.334 149.166Z" fill="#263238" /><path d="M393.608 186.735C393.608 186.817 388.016 186.878 381.122 186.878C374.228 186.878 368.63 186.817 368.63 186.735C368.63 186.652 374.222 186.592 381.122 186.592C388.022 186.592 393.608 186.658 393.608 186.735Z" fill="#263238" /><path d="M291.306 201.007C291.306 201.089 259.741 201.149 220.81 201.149C181.879 201.149 150.309 201.089 150.309 201.007C150.309 200.924 181.868 200.864 220.81 200.864C259.752 200.864 291.306 200.93 291.306 201.007Z" fill="#263238" /><path d="M70.3146 187.207C70.3146 187.29 65.8485 187.35 60.3442 187.35C54.8399 187.35 50.3738 187.29 50.3738 187.207C50.3738 187.125 54.8399 187.065 60.3442 187.065C65.8485 187.065 70.3146 187.13 70.3146 187.207Z" fill="#263238" /><path d="M360.511 125.913C360.511 125.913 356.765 130.104 358.237 133.18C359.709 136.257 374.931 147.035 374.931 147.035L385.978 149.106L360.511 125.913Z" fill="#455A64" /><path d="M255.478 118.403L252.995 145.233L297.447 143.964L315.361 133.548L303.765 118.403H255.478Z" fill="#455A64" /><path d="M171.809 146.606C171.809 146.606 198.628 127.237 209.208 123.386C219.42 119.672 224.743 118.738 234.334 118.442C243.503 118.178 249.09 118.442 249.09 118.442L242.003 145.716L171.809 146.606Z" fill="#455A64" /><path d="M167.887 146.672C167.888 145.838 168.11 145.019 168.53 144.299C168.951 143.579 169.556 142.984 170.282 142.574L176.446 139.113C178.202 138.125 180.183 137.606 182.197 137.608C183.438 137.61 184.671 137.806 185.85 138.19C187.135 138.635 188.253 139.46 189.056 140.556C189.859 141.653 190.308 142.968 190.344 144.326C190.379 145.239 190.229 146.149 189.904 147.002C189.578 147.855 189.084 148.634 188.451 149.291C187.817 149.949 187.057 150.472 186.217 150.829C185.377 151.186 184.473 151.369 183.56 151.369H172.573C171.329 151.366 170.137 150.87 169.259 149.989C168.381 149.109 167.887 147.916 167.887 146.672Z" fill="#FFD500" /><path d="M167.887 146.672C167.887 146.672 167.887 146.881 167.959 147.265C168.041 147.831 168.228 148.377 168.508 148.875C168.952 149.66 169.606 150.305 170.398 150.737C170.891 150.995 171.427 151.163 171.98 151.232C172.61 151.278 173.243 151.291 173.875 151.27L183.274 151.237C184.165 151.261 185.052 151.115 185.889 150.809C186.772 150.478 187.575 149.965 188.245 149.302C188.915 148.639 189.438 147.842 189.778 146.963C190.124 146.036 190.265 145.044 190.19 144.057C190.116 143.084 189.83 142.14 189.35 141.29C188.871 140.44 188.211 139.707 187.416 139.141C186.649 138.61 185.784 138.237 184.872 138.042C182.367 137.45 179.737 137.703 177.391 138.762C176.682 139.08 176.034 139.481 175.391 139.827L173.556 140.849L170.398 142.596C169.603 143.024 168.947 143.67 168.508 144.458C168.231 144.958 168.045 145.503 167.959 146.068C167.904 146.452 167.909 146.661 167.893 146.661C167.872 146.46 167.872 146.258 167.893 146.057C167.954 145.48 168.126 144.921 168.398 144.409C168.83 143.588 169.492 142.912 170.304 142.464L173.441 140.679L175.265 139.641C175.902 139.289 176.55 138.883 177.275 138.542C179.665 137.441 182.355 137.171 184.916 137.773C185.861 137.961 186.759 138.334 187.559 138.872C188.389 139.46 189.08 140.224 189.581 141.11C190.083 141.996 190.382 142.982 190.459 143.997C190.54 145.027 190.393 146.062 190.031 147.029C189.676 147.948 189.13 148.78 188.429 149.471C187.729 150.163 186.889 150.697 185.966 151.039C185.098 151.352 184.179 151.499 183.257 151.473L173.858 151.446C173.219 151.459 172.579 151.439 171.941 151.385C171.363 151.305 170.804 151.119 170.293 150.836C169.484 150.383 168.82 149.708 168.381 148.891C168.113 148.378 167.943 147.819 167.882 147.243C167.868 147.053 167.87 146.862 167.887 146.672Z" fill="#263238" /><path d="M374.503 218.261C374.503 218.261 374.503 218.135 374.503 217.882C374.503 217.629 374.546 217.25 374.579 216.783C374.612 216.317 374.667 215.685 374.7 214.971C374.733 214.257 374.755 213.422 374.783 212.493C374.81 211.565 374.783 210.521 374.783 209.389C374.783 208.258 374.7 207.022 374.547 205.703C374.297 202.716 373.765 199.758 372.959 196.87C372.484 195.185 371.898 193.534 371.207 191.926C370.472 190.189 369.586 188.52 368.559 186.938C366.269 183.451 363.357 180.415 359.967 177.984C356.236 175.275 352.071 173.221 347.651 171.908C343.07 170.508 338.082 169.997 333.006 169.958C328.055 169.913 323.126 170.63 318.394 172.084C316.153 172.792 313.977 173.691 311.89 174.77C309.9 175.828 308.009 177.063 306.242 178.462C302.957 181.035 300.031 184.035 297.541 187.383C296.446 188.92 295.48 190.544 294.651 192.239C293.896 193.811 293.229 195.423 292.652 197.068C290.897 202.026 289.828 207.201 289.477 212.449C289.389 214.311 289.4 215.745 289.449 216.745C289.477 217.228 289.499 217.596 289.51 217.844C289.521 218.091 289.51 218.223 289.51 218.223C289.51 218.223 289.51 218.096 289.466 217.844C289.422 217.591 289.411 217.212 289.372 216.745C289.3 215.312 289.3 213.877 289.372 212.444C289.676 207.166 290.717 201.958 292.465 196.969C293.042 195.316 293.706 193.696 294.454 192.113C295.289 190.405 296.259 188.767 297.354 187.213C299.852 183.843 302.788 180.821 306.083 178.226C307.861 176.816 309.762 175.57 311.763 174.501C313.864 173.413 316.055 172.507 318.311 171.793C323.071 170.322 328.03 169.597 333.011 169.645C338.109 169.684 343.119 170.195 347.739 171.612C352.188 172.936 356.379 175.009 360.132 177.742C361.87 179.022 363.495 180.448 364.988 182.005C366.407 183.466 367.671 185.07 368.762 186.79C369.792 188.386 370.68 190.07 371.415 191.822C372.106 193.429 372.688 195.081 373.157 196.766C373.958 199.668 374.479 202.641 374.711 205.643C374.86 206.961 374.86 208.197 374.92 209.335C374.98 210.472 374.92 211.532 374.92 212.444C374.92 213.356 374.838 214.207 374.805 214.927C374.772 215.646 374.7 216.245 374.656 216.74C374.612 217.234 374.579 217.591 374.557 217.838C374.536 218.085 374.503 218.261 374.503 218.261Z" fill="white" /><path d="M240.828 149.446H240.701H240.328L238.894 149.479L233.626 149.573C229.176 149.655 223.035 149.82 216.245 150.006C209.455 150.193 203.308 150.32 198.859 150.353C196.634 150.353 194.832 150.353 193.585 150.353H192.151H191.783C191.74 150.361 191.695 150.361 191.651 150.353C191.695 150.345 191.74 150.345 191.783 150.353H192.151L193.585 150.32L198.853 150.226C203.303 150.144 209.45 149.979 216.24 149.798C223.029 149.616 229.176 149.479 233.626 149.446C235.823 149.446 237.653 149.446 238.894 149.446H240.328H240.701H240.828Z" fill="white" /><path d="M233.544 157.703C231.944 157.847 230.337 157.895 228.731 157.846C227.126 157.895 225.519 157.847 223.919 157.703C225.519 157.561 227.126 157.514 228.731 157.56C230.337 157.514 231.944 157.561 233.544 157.703Z" fill="white" /><path d="M235.312 128.308C235.34 128.379 229.368 130.868 221.969 133.862C214.569 136.855 208.549 139.229 208.516 139.152C208.483 139.075 214.46 136.592 221.859 133.598C229.259 130.604 235.279 128.236 235.312 128.308Z" fill="white" /><path d="M223.205 130.192C223.238 130.269 217.547 132.774 210.499 135.79C203.451 138.806 197.716 141.195 197.683 141.124C197.65 141.052 203.341 138.547 210.389 135.526C217.437 132.505 223.172 130.11 223.205 130.192Z" fill="white" /><path d="M299.98 127.27C300.013 127.341 294.036 129.829 286.637 132.823C279.237 135.817 273.216 138.185 273.183 138.113C273.151 138.042 279.127 135.553 286.532 132.56C293.937 129.566 299.936 127.193 299.98 127.27Z" fill="white" /><path d="M287.851 129.143C287.884 129.22 282.193 131.725 275.15 134.741C268.108 137.756 262.362 140.146 262.329 140.075C262.296 140.003 267.987 137.498 275.035 134.477C282.083 131.456 287.851 129.093 287.851 129.143Z" fill="white" /><path d="M301.15 149.419C301.15 149.496 289.268 149.633 274.612 149.721C259.955 149.809 248.073 149.814 248.073 149.721C248.073 149.627 259.95 149.507 274.612 149.424C289.273 149.342 301.15 149.358 301.15 149.419Z" fill="white" /><path d="M314.307 157.247C314.307 157.324 310.978 157.417 306.863 157.455C302.749 157.494 299.42 157.455 299.42 157.384C299.42 157.313 302.749 157.208 306.863 157.17C310.978 157.131 314.307 157.164 314.307 157.247Z" fill="white" /><path d="M86.7947 153.182C86.6899 153.217 86.581 153.239 86.4706 153.248L85.5423 153.368C85.1357 153.412 84.6413 153.473 84.07 153.572C83.4987 153.671 82.845 153.742 82.1309 153.885C80.6971 154.137 78.9997 154.511 77.1429 154.983C75.1316 155.538 73.1496 156.195 71.2047 156.95C69.1392 157.769 67.222 158.664 65.5081 159.548C63.7941 160.433 62.3109 161.323 61.1134 162.119C60.4927 162.498 59.9543 162.883 59.4654 163.218C58.9765 163.553 58.5755 163.828 58.2459 164.069L57.4823 164.619C57.3948 164.686 57.301 164.745 57.2021 164.795C57.2749 164.713 57.3559 164.64 57.4439 164.575L58.18 163.987C58.4986 163.734 58.8941 163.438 59.372 163.092C59.8499 162.746 60.3718 162.361 61.02 161.993C62.2286 161.174 63.7227 160.279 65.4147 159.362C69.1188 157.381 73.0421 155.842 77.1045 154.775C78.9722 154.291 80.6807 153.934 82.1254 153.709C82.845 153.577 83.4987 153.511 84.0755 153.434C84.6523 153.357 85.1742 153.308 85.5532 153.281L86.4926 153.209C86.5925 153.193 86.6935 153.184 86.7947 153.182Z" fill="white" /><path d="M184.895 140.223C184.895 140.223 184.735 140.009 184.345 139.712C183.818 139.309 183.192 139.056 182.532 138.981C181.544 138.899 180.548 139.005 179.599 139.295C176.254 140.137 173.147 141.736 170.518 143.969C169.211 145.068 168.519 145.876 168.48 145.837C168.613 145.627 168.768 145.432 168.942 145.255C169.396 144.75 169.877 144.27 170.381 143.816C172.059 142.321 173.966 141.104 176.028 140.212C177.16 139.716 178.335 139.325 179.539 139.042C180.519 138.757 181.545 138.667 182.56 138.778C183.249 138.873 183.895 139.169 184.417 139.63C184.555 139.754 184.679 139.894 184.785 140.047C184.873 140.157 184.906 140.217 184.895 140.223Z" fill="white" /><path d="M361.758 125.715C360.992 125.9 360.205 125.981 359.418 125.957C358.494 125.929 357.574 125.815 356.671 125.616C355.479 125.336 354.31 124.969 353.172 124.517C351.903 124.039 350.551 123.419 349.09 122.809L346.811 121.892C346.025 121.578 345.195 121.309 344.361 121.002C340.694 119.76 336.955 118.742 333.165 117.953C326.275 116.519 319.278 115.651 312.246 115.36C310.895 115.289 309.676 115.289 308.599 115.261H305.852L304.116 115.3H303.507C303.557 115.29 303.61 115.29 303.66 115.3L304.111 115.267L305.852 115.173L308.599 115.124C309.698 115.124 310.895 115.124 312.246 115.19C319.298 115.42 326.316 116.265 333.22 117.717C337.018 118.497 340.763 119.517 344.432 120.771C345.267 121.079 346.08 121.353 346.887 121.672L349.167 122.611C350.628 123.243 351.974 123.858 353.232 124.347C354.355 124.8 355.51 125.167 356.688 125.446C357.578 125.659 358.487 125.788 359.401 125.83C359.979 125.85 360.557 125.83 361.132 125.77L361.577 125.715H361.758Z" fill="#263238" /><path d="M97.4572 126.473C95.2598 114.454 93.7821 112.608 92.5406 108.471C91.2991 104.335 89.327 101.649 86.8715 100.698C85.2235 100.061 76.9451 97.0782 74.0665 98.067C71.2503 99.0683 68.5692 100.415 66.0847 102.077C64.1567 103.356 62.6956 105.226 61.9208 107.406L57.5261 119.804L65.2607 127.495L69.139 119.255L73.3469 129.143L72.7262 139.113L96.8584 145.606C99.0337 142.091 98.7041 133.29 97.4572 126.473Z" fill="#FFD500" /><g opacity="0.2"><path opacity="0.2" d="M91.1893 113.36C90.1236 119.617 89.9533 120.502 88.8876 126.737C88.5195 128.885 87.4483 132.23 85.9212 133.79C84.7896 134.938 83.6799 136.042 82.1033 136.416C80.6421 136.762 78.4173 136.801 77.044 136.196C75.6706 135.592 74.4951 132.9 75.0609 131.521C77.1099 131.961 77.7416 132.62 79.505 131.521C81.0431 130.544 83.2295 128.379 84.0644 126.759C87.5857 119.947 88.558 119.705 91.2058 113.36" fill="black" /></g><path d="M73.7039 125.484C73.3136 124.958 72.9577 124.408 72.6382 123.836L70.1553 119.755L67.6064 115.739C67.2264 115.199 66.8832 114.634 66.5791 114.047C66.7113 114.167 66.8276 114.304 66.9252 114.454C67.1339 114.723 67.4251 115.124 67.7712 115.624C68.4743 116.623 69.4192 118.024 70.397 119.601C71.3748 121.177 72.2262 122.639 72.814 123.71C73.1107 124.259 73.3634 124.677 73.4952 124.984C73.5904 125.139 73.6609 125.308 73.7039 125.484Z" fill="#263238" /><path d="M90.5467 136.707C90.3718 136.798 90.1876 136.87 89.9974 136.921C89.7722 136.997 89.543 137.059 89.3107 137.108C89.0072 137.19 88.699 137.255 88.3878 137.3C87.5826 137.444 86.7667 137.519 85.9488 137.526C84.9452 137.527 83.9434 137.441 82.9549 137.267C81.9674 137.081 80.9986 136.808 80.0599 136.449C79.3005 136.152 78.5657 135.796 77.8626 135.383C77.555 135.213 77.3133 135.026 77.0716 134.878C76.8715 134.748 76.679 134.607 76.4948 134.455C76.3273 134.34 76.1742 134.205 76.0388 134.054C76.0718 134.01 76.753 134.543 77.9615 135.207C78.67 135.589 79.4042 135.922 80.1588 136.202C82.0133 136.893 83.9752 137.252 85.9543 137.262C86.7608 137.263 87.5665 137.21 88.3659 137.103C89.7062 136.91 90.5302 136.652 90.5467 136.707Z" fill="#263238" /><path d="M80.8619 117.98C80.818 118.195 78.2251 123.358 78.2251 123.358L65.986 116.909L64.739 111.635C64.5332 110.789 64.0004 110.058 63.2571 109.603C62.5138 109.148 61.6206 109.006 60.7728 109.207L57.1637 110.685C57.0148 110.743 56.8827 110.838 56.7792 110.959C56.6756 111.081 56.6039 111.227 56.5704 111.383C56.5209 111.646 56.5704 111.932 57.0483 111.872C57.9437 111.8 59.795 111.603 59.795 111.603L58.9435 114.607C58.7188 115.395 58.8053 116.239 59.1852 116.964L59.7345 118.002L60.9266 119.93H60.8991C60.8991 119.93 72.7977 132.153 79.4776 132.95C83.4932 133.428 88.0417 122.172 88.0417 122.172L80.8619 117.98Z" fill="#FFBEA6" /><path d="M59.707 111.806C59.707 111.806 59.8004 111.679 60.0037 111.542C60.2758 111.353 60.6004 111.253 60.932 111.256C61.1052 111.266 61.2726 111.322 61.4166 111.419C61.5606 111.516 61.6759 111.649 61.7506 111.806C61.8659 112.053 61.789 112.218 61.7506 112.207C61.7121 112.196 61.7505 112.053 61.6187 111.866C61.5377 111.748 61.4308 111.649 61.3062 111.578C61.1816 111.506 61.0424 111.464 60.8991 111.454C60.6018 111.458 60.3098 111.534 60.0476 111.674C59.8773 111.756 59.7235 111.828 59.707 111.806Z" fill="#F2B199" /><path d="M61.2506 113.679C61.2506 113.679 61.1682 113.58 61.0529 113.432C60.9055 113.243 60.7099 113.096 60.4867 113.008C60.2635 112.92 60.0208 112.894 59.7839 112.932C59.5971 112.932 59.4818 112.998 59.4708 112.976C59.4598 112.954 59.5587 112.871 59.7564 112.806C60.0178 112.729 60.2971 112.742 60.5506 112.841C60.8041 112.941 61.0174 113.121 61.1573 113.355C61.2561 113.542 61.2671 113.673 61.2506 113.679Z" fill="#F2B199" /><path d="M83.3998 101.682L80.1038 117.387L88.8931 122.666L92.266 113.014C92.266 113.014 90.8487 101.292 83.3998 101.682Z" fill="#FFD500" /><path d="M88.135 101.956C88.135 101.956 88.0636 102.017 87.9098 102.099C87.756 102.182 87.5363 102.302 87.2451 102.451C86.6628 102.747 85.8059 103.165 84.7347 103.643C81.9498 104.916 79.0178 105.838 76.0058 106.389C72.9748 106.931 69.8635 106.826 66.8758 106.082C65.9816 105.847 65.1102 105.533 64.272 105.142C63.9699 105.016 63.7227 104.879 63.5963 104.802C63.5175 104.763 63.4422 104.717 63.3711 104.665C63.6928 104.773 64.0082 104.9 64.3159 105.044C65.1697 105.388 66.0473 105.671 66.9418 105.89C69.9068 106.568 72.9782 106.643 75.9728 106.109C78.9647 105.558 81.8841 104.668 84.6742 103.456C85.7729 103.006 86.6134 102.615 87.2122 102.357C87.5106 102.203 87.8189 102.069 88.135 101.956Z" fill="#EBEBEB" /><path d="M90.4477 103.692C90.3724 103.76 90.2894 103.819 90.2005 103.868L89.4753 104.335C89.092 104.586 88.696 104.817 88.2888 105.027C87.8164 105.274 87.289 105.576 86.6683 105.851L85.7124 106.29C85.3773 106.444 85.0148 106.571 84.6467 106.719C83.9161 107.021 83.1031 107.268 82.2571 107.543C78.548 108.662 74.6713 109.121 70.8035 108.9C69.9136 108.828 69.0676 108.779 68.2875 108.653C67.892 108.592 67.513 108.554 67.1504 108.488L66.1122 108.279C65.453 108.164 64.8652 107.988 64.3488 107.856C63.9048 107.749 63.4665 107.619 63.0359 107.466L62.2174 107.18C62.1194 107.154 62.0252 107.116 61.9373 107.065C62.0386 107.071 62.1385 107.091 62.2339 107.125L63.0689 107.356C63.4259 107.466 63.8654 107.592 64.3873 107.702C64.9091 107.812 65.486 107.982 66.1561 108.081L67.1889 108.268C67.5459 108.334 67.925 108.367 68.2875 108.416C69.0676 108.532 69.9356 108.576 70.787 108.636C74.6262 108.831 78.4707 108.376 82.1582 107.29C82.9987 107.027 83.8062 106.79 84.5368 106.494C84.8994 106.351 85.262 106.23 85.5971 106.087L86.5584 105.664C87.1791 105.412 87.7065 105.115 88.2064 104.884C88.7063 104.653 89.0908 104.428 89.4094 104.241L90.1675 103.824C90.2546 103.768 90.3488 103.723 90.4477 103.692Z" fill="#EBEBEB" /><path d="M88.871 122.666C88.6248 122.562 88.3862 122.441 88.1569 122.304L86.2232 121.205L79.6312 117.398L79.5488 117.349V117.255C79.785 116.085 80.0377 114.822 80.3014 113.525C80.6969 111.57 81.0815 109.713 81.4001 108.032C81.5814 107.186 81.7297 106.384 81.8945 105.62C82.0435 104.914 82.2797 104.23 82.5976 103.582C83.0581 102.62 83.8732 101.874 84.8719 101.5C85.1422 101.407 85.4264 101.361 85.7124 101.363C85.8106 101.356 85.9092 101.367 86.0035 101.396C85.6287 101.409 85.2581 101.479 84.9048 101.605C83.9612 102.003 83.2008 102.74 82.7734 103.67C82.4764 104.31 82.257 104.983 82.1197 105.675C81.9714 106.428 81.8176 107.235 81.6528 108.076C81.3122 109.779 80.9386 111.636 80.5541 113.569C80.2904 114.871 80.0322 116.129 79.796 117.299L79.7301 117.156L86.2837 121.051L88.1789 122.205C88.4221 122.339 88.6536 122.493 88.871 122.666Z" fill="#263238" /><path d="M91.5573 112.547C91.6057 113.036 91.5909 113.529 91.5134 114.014C91.3983 115.188 91.1889 116.351 90.8871 117.491C90.5856 118.633 90.1962 119.75 89.7226 120.831C89.5507 121.291 89.3199 121.727 89.0359 122.128C89.1703 121.659 89.3374 121.2 89.5358 120.754C90.3696 118.569 90.9663 116.3 91.3156 113.987C91.3656 113.502 91.4463 113.022 91.5573 112.547Z" fill="#263238" /><path d="M43.9026 199.908L43.8037 208.291C43.8037 208.291 35.2451 211.01 35.0803 212.559L51.3296 213.328L52.0218 200.27L43.9026 199.908Z" fill="#455A64" /><path d="M48.8907 207.824C49.0449 207.879 49.1733 207.989 49.2514 208.133C49.3295 208.277 49.3516 208.445 49.3137 208.604C49.2652 208.76 49.1583 208.892 49.015 208.972C48.8718 209.052 48.7033 209.074 48.5446 209.032C48.3818 208.972 48.2465 208.855 48.1645 208.702C48.0825 208.549 48.0594 208.372 48.0996 208.203C48.1687 208.046 48.2959 207.921 48.4546 207.856C48.6133 207.79 48.7913 207.789 48.9511 207.851" fill="#E0E0E0" /><path d="M51.3297 213.328V212.01L35.7396 211.762C35.7396 211.762 34.998 212.043 35.0584 212.559L51.3297 213.328Z" fill="#E0E0E0" /><path d="M43.5456 208.197C43.5456 208.274 43.9411 208.329 44.3147 208.604C44.6882 208.878 44.864 209.219 44.9629 209.192C45.0618 209.164 44.9629 208.703 44.474 208.379C43.9851 208.054 43.5291 208.12 43.5456 208.197Z" fill="#263238" /><path d="M41.8042 208.818C41.8042 208.895 42.1228 209.049 42.3535 209.395C42.5843 209.741 42.6667 210.104 42.7491 210.104C42.8315 210.104 42.8974 209.659 42.5733 209.23C42.2492 208.802 41.8097 208.747 41.8042 208.818Z" fill="#263238" /><path d="M40.7385 210.812C40.8099 210.812 40.9418 210.444 40.7385 209.999C40.5353 209.554 40.1892 209.367 40.1562 209.45C40.1233 209.532 40.3375 209.757 40.4803 210.126C40.6232 210.494 40.6506 210.801 40.7385 210.812Z" fill="#263238" /><path d="M43.7764 206.286C43.8093 206.363 44.1774 206.286 44.6278 206.319C45.0783 206.352 45.4134 206.533 45.4573 206.467C45.5013 206.401 45.1827 206.099 44.6553 206.044C44.128 205.989 43.7434 206.225 43.7764 206.286Z" fill="#263238" /><g opacity="0.3"><path opacity="0.3" d="M43.8862 201.567L43.8643 203.061L51.8571 203.369L51.9285 202.023L43.8862 201.567Z" fill="black" /></g><path d="M43.8313 204.594C44.0936 204.681 44.3749 204.694 44.6443 204.632C44.9402 204.594 45.23 204.518 45.5068 204.407C45.6721 204.345 45.832 204.27 45.9847 204.182C46.0796 204.137 46.1668 204.078 46.2429 204.006C46.298 203.952 46.3333 203.881 46.3432 203.804C46.3532 203.727 46.3372 203.649 46.2978 203.583C46.26 203.526 46.2096 203.479 46.1506 203.444C46.0915 203.41 46.0254 203.39 45.9572 203.385C45.8539 203.38 45.7503 203.389 45.6496 203.413C45.4751 203.446 45.3041 203.496 45.1387 203.561C44.8591 203.673 44.598 203.827 44.3642 204.017C43.9686 204.352 43.8148 204.643 43.8533 204.66C43.8917 204.676 44.084 204.445 44.4795 204.176C44.7121 204.021 44.9631 203.896 45.2266 203.803C45.3807 203.75 45.5387 203.71 45.699 203.682C45.8748 203.643 46.0231 203.649 46.0616 203.726C46.1 203.803 46.0616 203.77 46.0616 203.819C46.0047 203.87 45.942 203.914 45.8748 203.951C45.7265 204.033 45.5782 204.11 45.4354 204.176C45.1765 204.288 44.9081 204.376 44.6333 204.44C44.3629 204.474 44.095 204.525 43.8313 204.594Z" fill="#263238" /><path d="M43.9465 204.715C44.1099 204.49 44.1965 204.218 44.1937 203.94C44.2242 203.64 44.2019 203.337 44.1278 203.045C44.0836 202.87 44.021 202.701 43.9411 202.539C43.9024 202.43 43.8361 202.332 43.7484 202.256C43.6608 202.18 43.5549 202.128 43.4412 202.105C43.3694 202.102 43.2984 202.121 43.2369 202.158C43.1754 202.195 43.1261 202.249 43.0951 202.314C43.0466 202.407 43.0132 202.507 42.9962 202.611C42.9687 202.793 42.9687 202.978 42.9962 203.16C43.0263 203.467 43.132 203.761 43.3038 204.017C43.6005 204.456 43.9301 204.566 43.9356 204.539C43.9411 204.511 43.6939 204.336 43.4686 203.918C43.3398 203.679 43.2648 203.415 43.2489 203.143C43.2401 202.985 43.253 202.826 43.2873 202.671C43.3203 202.501 43.3917 202.363 43.4576 202.385C43.5236 202.407 43.6664 202.523 43.7268 202.666C43.8013 202.81 43.862 202.961 43.9081 203.116C43.987 203.382 44.0277 203.657 44.029 203.935C43.985 204.407 43.8861 204.698 43.9465 204.715Z" fill="#263238" /><path d="M77.0276 139.201C77.0276 139.201 51.6374 128.544 43.7819 128.099C38.8379 127.813 35.1244 130.978 35.7946 136.075C36.1297 138.63 43.1447 168.486 43.1447 168.486L53.8347 163.608L48.693 142.958L69.5676 153.099L77.0276 139.201Z" fill="#263238" /><path d="M45.5012 137.734C45.4188 137.806 46.2593 138.888 47.1492 140.322C48.0391 141.755 48.6324 142.991 48.7313 142.953C48.8302 142.914 48.3742 141.591 47.4678 140.129C46.5614 138.668 45.5946 137.668 45.5012 137.734Z" fill="#455A64" /><path d="M43.4248 138.921C43.3699 139.014 44.6498 139.827 46.1715 140.937C47.6931 142.047 48.8357 143.019 48.9181 142.942C49.0005 142.865 47.9019 141.728 46.3747 140.629C44.8476 139.531 43.4687 138.833 43.4248 138.921Z" fill="#455A64" /><path d="M96.831 145.606C96.831 145.606 93.6394 149.721 90.5961 150.847C86.7508 152.259 58.4821 165.602 58.4821 165.602C58.4821 165.602 53.3513 203.72 53.7578 202.127L41.9197 201.842L43.2051 166.734C43.3589 162.24 46.9626 157.076 50.8354 154.78L77.0276 139.201L96.831 145.606Z" fill="#263238" /><path d="M42.9797 173.161C43.0173 173.003 43.0339 172.84 43.0292 172.677C43.0292 172.326 43.0731 171.87 43.1006 171.299C43.1678 169.609 43.3255 167.923 43.573 166.25C43.9198 163.778 44.7968 161.409 46.1439 159.307C46.9775 158.098 48.0059 157.036 49.1872 156.165C50.4691 155.231 51.8105 154.381 53.2028 153.621C58.8994 150.358 63.8159 147.029 67.4525 144.749C69.2653 143.596 70.7485 142.678 71.7593 142.052L72.9349 141.327C73.0771 141.249 73.2114 141.157 73.3359 141.052C73.1846 141.107 73.0392 141.177 72.9019 141.261C72.6218 141.409 72.2098 141.629 71.6879 141.926C70.6387 142.514 69.1445 143.404 67.2932 144.524C63.6182 146.754 58.6742 150.045 53.0106 153.313C51.604 154.082 50.2496 154.943 48.9565 155.89C47.7456 156.788 46.6945 157.884 45.8472 159.131C44.4921 161.288 43.6276 163.717 43.3148 166.245C43.0886 167.929 42.9711 169.627 42.9632 171.326C42.9632 171.875 42.9632 172.353 42.9632 172.71C42.9553 172.861 42.9608 173.012 42.9797 173.161Z" fill="#455A64" /><path d="M86.3826 149.622C86.1632 149.282 85.9209 148.957 85.6574 148.65C85.1118 147.856 84.733 146.96 84.5441 146.016C84.3553 145.071 84.3603 144.099 84.5588 143.156C84.6808 142.77 84.7763 142.375 84.8444 141.975C84.5777 142.293 84.3896 142.67 84.2951 143.074C84.0138 144.049 83.9723 145.078 84.1742 146.073C84.3714 147.068 84.8089 148 85.4487 148.787C85.9486 149.419 86.3606 149.655 86.3826 149.622Z" fill="#455A64" /><path d="M46.2703 201.842C46.2897 201.779 46.3008 201.714 46.3032 201.649C46.3032 201.495 46.3472 201.309 46.3746 201.072C46.4351 200.523 46.512 199.798 46.6109 198.875C46.8031 196.919 47.0778 194.134 47.4184 190.707C47.5777 188.982 47.759 187.092 47.9677 185.065C48.1765 183.038 48.3687 180.868 48.517 178.583C48.6654 176.297 48.9071 173.908 49.3246 171.441C49.7323 168.911 50.4711 166.445 51.5219 164.108C52.6193 161.798 54.0685 159.672 55.8177 157.807C57.4567 156.072 59.2514 154.49 61.1792 153.083C64.4831 150.756 67.9144 148.616 71.4572 146.672C74.4621 144.947 76.8572 143.475 78.4447 142.365C79.2468 141.816 79.851 141.371 80.2575 141.058L80.7135 140.701C80.816 140.62 80.8655 140.576 80.8618 140.569C80.8006 140.594 80.7433 140.627 80.6915 140.668L80.2136 140.997C79.7961 141.288 79.1753 141.717 78.3678 142.25C76.7528 143.316 74.3467 144.749 71.3254 146.447C67.7537 148.362 64.2979 150.486 60.9759 152.808C59.0225 154.219 57.2054 155.81 55.5485 157.56C53.7681 159.45 52.2945 161.608 51.1813 163.954C50.126 166.321 49.3872 168.816 48.984 171.375C48.572 173.847 48.3632 176.248 48.1929 178.517C48.0226 180.786 47.8524 182.972 47.6436 184.999C47.4349 187.026 47.303 188.916 47.1547 190.646C46.8635 194.079 46.6054 196.865 46.468 198.826C46.3948 199.771 46.3399 200.503 46.3032 201.023C46.3032 201.259 46.2758 201.451 46.2648 201.6C46.2538 201.748 46.2593 201.842 46.2703 201.842Z" fill="#455A64" /><path d="M74.16 78.7414C73.7613 77.7148 73.0097 76.8638 72.0402 76.3413C71.0707 75.8188 69.9466 75.6589 68.8699 75.8904C68.3961 76.0637 67.9007 76.1709 67.3977 76.209C66.788 76.1045 66.1887 75.9465 65.6068 75.7366C64.9475 75.6297 64.272 75.7718 63.7115 76.1353C63.1511 76.4987 62.7459 77.0576 62.5745 77.7032C62.0585 77.5778 61.5214 77.5664 61.0005 77.6698C60.4797 77.7732 59.9876 77.989 59.5587 78.302C59.138 78.6277 58.8394 79.0856 58.7108 79.6018C58.5822 80.1181 58.6313 80.6626 58.85 81.1475C59.0643 81.5485 59.3994 81.8671 59.6136 82.2791C59.9377 82.9548 59.7894 83.7678 60.0146 84.4765C60.226 84.9918 60.5783 85.4372 61.031 85.7617C61.4837 86.0861 62.0186 86.2766 62.5745 86.3112C63.693 86.3688 64.8121 86.2102 65.8705 85.8443" fill="#263238" /><path d="M69.0457 100.468C68.9084 99.4019 68.8205 98.6548 68.8205 98.6548C68.8205 98.6548 65.2773 98.6548 63.8765 94.2601C63.1678 92.0628 62.6954 88.3932 62.4098 85.3609C62.3473 84.7149 62.4163 84.063 62.6126 83.4445C62.8089 82.8259 63.1284 82.2535 63.5519 81.7617C63.9754 81.27 64.494 80.8691 65.0766 80.5832C65.6592 80.2973 66.2937 80.1324 66.9418 80.0983L76.3463 79.6094L76.5496 81.0651L79.0271 99.1492C79.1167 99.8048 79.0758 100.472 78.9067 101.112C78.7376 101.751 78.4438 102.351 78.042 102.877C77.6402 103.403 77.1385 103.844 76.5656 104.175C75.9927 104.507 75.36 104.721 74.7038 104.807C74.0472 104.895 73.3796 104.853 72.7394 104.682C72.0993 104.511 71.4991 104.216 70.9734 103.813C70.4477 103.409 70.0068 102.906 69.676 102.332C69.3452 101.758 69.131 101.125 69.0457 100.468Z" fill="#FFBEA6" /><path d="M63.7226 87.9483C63.7458 88.0985 63.8262 88.2339 63.9471 88.3261C64.0679 88.4183 64.2198 88.46 64.3708 88.4426C64.4456 88.438 64.5186 88.418 64.5854 88.3841C64.6521 88.3502 64.7113 88.3029 64.7591 88.2453C64.8069 88.1877 64.8425 88.1209 64.8636 88.049C64.8847 87.9772 64.8908 87.9017 64.8817 87.8274C64.8612 87.6759 64.7814 87.5388 64.6599 87.4461C64.5384 87.3534 64.385 87.3127 64.2335 87.333C64.1587 87.3377 64.0857 87.3576 64.019 87.3915C63.9522 87.4255 63.8931 87.4727 63.8452 87.5303C63.7974 87.5879 63.7618 87.6547 63.7407 87.7266C63.7196 87.7985 63.7135 87.8739 63.7226 87.9483Z" fill="#263238" /><path d="M63.4809 87.1352C63.5633 87.1957 63.9478 86.8056 64.5795 86.7067C65.2113 86.6079 65.6782 86.8496 65.7606 86.7617C65.843 86.6738 65.6947 86.5969 65.4749 86.487C65.177 86.3409 64.8405 86.2928 64.5136 86.3497C64.1902 86.398 63.8913 86.5503 63.6621 86.7837C63.4809 86.9594 63.4369 87.1078 63.4809 87.1352Z" fill="#263238" /><path d="M69.6115 86.9485C69.6346 87.0983 69.7153 87.2332 69.8363 87.3245C69.9574 87.4158 70.1093 87.4563 70.2597 87.4374C70.3344 87.4334 70.4075 87.4141 70.4745 87.3808C70.5415 87.3476 70.601 87.3009 70.6494 87.2438C70.6977 87.1868 70.7339 87.1204 70.7557 87.0488C70.7775 86.9772 70.7844 86.902 70.7761 86.8276C70.7529 86.6774 70.6725 86.542 70.5516 86.4498C70.4307 86.3576 70.2789 86.3158 70.1279 86.3332C70.0526 86.3372 69.979 86.3566 69.9116 86.3902C69.8442 86.4238 69.7844 86.4709 69.736 86.5286C69.6876 86.5863 69.6515 86.6534 69.6301 86.7256C69.6087 86.7978 69.6023 86.8737 69.6115 86.9485Z" fill="#263238" /><path d="M69.6004 86.2783C69.6828 86.3442 70.0674 85.9487 70.6991 85.8553C71.3308 85.7619 71.7978 85.9926 71.8802 85.9047C71.9626 85.8168 71.8142 85.7454 71.5945 85.6301C71.2951 85.4888 70.9601 85.4409 70.6332 85.4927C70.311 85.5447 70.0132 85.6965 69.7817 85.9267C69.6004 86.1025 69.562 86.2453 69.6004 86.2783Z" fill="#263238" /><path d="M68.0789 91.2443C67.7343 91.1978 67.3851 91.1978 67.0406 91.2443C66.8813 91.2443 66.7275 91.2443 66.6835 91.1399C66.633 90.9809 66.633 90.8101 66.6835 90.651C66.7714 90.2445 66.8648 89.816 66.9637 89.3711C67.2319 88.279 67.4156 87.1679 67.513 86.0476C67.1531 87.1228 66.8794 88.225 66.6945 89.3436C66.6066 89.7941 66.5187 90.2225 66.4418 90.6345C66.3651 90.8381 66.3651 91.0627 66.4418 91.2663C66.4739 91.3183 66.5172 91.3626 66.5685 91.3958C66.6198 91.4291 66.6779 91.4505 66.7385 91.4585C66.8297 91.47 66.922 91.47 67.0131 91.4585C67.376 91.4325 67.7341 91.3605 68.0789 91.2443Z" fill="#263238" /><path d="M68.8206 98.6548C70.9436 98.35 72.9404 97.4619 74.5886 96.0894C74.5886 96.0894 73.6108 99.4293 69.0458 99.7095L68.8206 98.6548Z" fill="#F2B199" /><path d="M69.9741 91.3817C69.8697 91.3817 69.9741 92.0628 69.4797 92.6341C68.9853 93.2054 68.2492 93.2439 68.2547 93.3373C68.2602 93.4307 68.4359 93.4472 68.7436 93.4032C69.1395 93.35 69.5026 93.1548 69.7653 92.8539C70.0226 92.5688 70.1569 92.1937 70.1389 91.8101C70.1224 91.5245 70.018 91.3707 69.9741 91.3817Z" fill="#263238" /><path d="M69.0512 83.8722C69.1391 84.0315 69.7489 83.8722 70.4905 83.8227C71.2321 83.7733 71.8528 83.8996 71.9242 83.7348C71.9956 83.57 71.8308 83.5151 71.5672 83.3888C71.2175 83.2362 70.8374 83.1662 70.4563 83.1843C70.0752 83.2024 69.7034 83.3081 69.3698 83.4931C69.1281 83.6415 69.0128 83.7953 69.0512 83.8722Z" fill="#263238" /><path d="M63.4204 85.3005C63.5522 85.4214 63.9697 85.2071 64.4696 85.1193C64.9695 85.0314 65.4365 85.0643 65.5134 84.8995C65.5463 84.8226 65.4529 84.6908 65.2442 84.5919C64.9632 84.4669 64.6503 84.4323 64.3488 84.493C64.0479 84.5461 63.7713 84.6921 63.5577 84.9105C63.3984 85.0863 63.36 85.2401 63.4204 85.3005Z" fill="#263238" /><path d="M61.9153 83.3778C61.9153 83.3778 64.4038 84.2183 67.2603 82.3066C69.1335 81.0542 71.4078 80.2686 71.9736 80.6092C72.5394 80.9498 72.9074 82.9933 74.9674 83.3559C74.9674 83.3559 75.33 87.3111 76.8846 86.9705C77.9833 86.7288 77.3461 82.3671 76.8846 79.8786C76.7882 79.3975 76.5336 78.9625 76.1612 78.6429C75.7889 78.3233 75.3203 78.1376 74.8301 78.1152L71.9351 77.9999L68.3205 79.0106L64.4422 80.0654L61.4868 81.3014L61.9153 83.3778Z" fill="#263238" /><path d="M76.5386 85.3609C76.5935 85.3224 78.9941 84.059 79.4391 86.6793C79.884 89.2996 77.1648 89.2007 77.1428 89.1293C77.1209 89.0579 76.5386 85.3609 76.5386 85.3609Z" fill="#FFBEA6" /><path d="M77.7747 87.9978C77.7747 87.9978 77.8296 88.0252 77.912 88.0472C78.0277 88.0747 78.1495 88.057 78.2526 87.9978C78.402 87.8613 78.5131 87.688 78.5747 87.4953C78.6364 87.3025 78.6466 87.097 78.6041 86.8991C78.5724 86.6738 78.4918 86.4582 78.3679 86.2673C78.328 86.1901 78.2704 86.1235 78.1997 86.0728C78.1291 86.0222 78.0474 85.9891 77.9614 85.9762C77.9069 85.9715 77.8524 85.986 77.8073 86.017C77.7622 86.0481 77.7293 86.0939 77.7142 86.1465C77.7142 86.2234 77.7142 86.2728 77.7142 86.2838C77.7142 86.2948 77.6538 86.2454 77.6538 86.1355C77.6585 86.0682 77.6856 86.0044 77.7307 85.9542C77.7942 85.8879 77.8807 85.8486 77.9724 85.8444C78.0842 85.8464 78.1935 85.8774 78.2897 85.9342C78.386 85.991 78.4659 86.0717 78.5217 86.1685C78.672 86.376 78.7683 86.6176 78.8019 86.8716C78.8564 87.1029 78.8405 87.3452 78.7564 87.5673C78.6722 87.7895 78.5235 87.9815 78.3295 88.1186C78.2625 88.1504 78.1893 88.1668 78.1152 88.1668C78.0411 88.1668 77.968 88.1504 77.901 88.1186C77.7911 88.0637 77.7692 88.0087 77.7747 87.9978Z" fill="#F2B199" /><path d="M63.1733 76.7364C63.1733 76.7364 63.2612 76.8792 63.448 77.088C63.7155 77.384 64.0567 77.6039 64.4368 77.7252C65.0016 77.9076 65.6051 77.9342 66.1837 77.8021C66.9031 77.6272 67.6098 77.4033 68.2986 77.1319C69.0118 76.8511 69.7736 76.7148 70.5399 76.7309C71.1879 76.7543 71.8011 77.0304 72.2483 77.5C72.5529 77.8065 72.738 78.2117 72.7702 78.6426C72.793 78.7989 72.7661 78.9584 72.6933 79.0985C72.6658 79.0985 72.6933 78.9337 72.6603 78.6536C72.5918 78.2644 72.3991 77.9078 72.111 77.6373C71.6877 77.2317 71.1261 77.0019 70.5399 76.9946C69.8084 76.9952 69.0836 77.1331 68.403 77.4011C67.7027 77.6797 66.9806 77.9002 66.2441 78.0603C65.6223 78.1889 64.9768 78.1394 64.3819 77.9175C63.978 77.7692 63.6265 77.5056 63.3711 77.1594C63.1733 76.9067 63.1733 76.7419 63.1733 76.7364Z" fill="#455A64" /><path d="M72.0231 79.2468C72.0231 79.2468 71.8912 79.1095 71.6166 78.9173C71.2248 78.6775 70.7739 78.552 70.3147 78.5547C69.6182 78.5521 68.9317 78.7199 68.3151 79.0436C67.5444 79.4598 66.7481 79.8268 65.931 80.1423C65.1557 80.3829 64.3393 80.4617 63.5323 80.3738C62.7253 80.2859 61.945 80.0332 61.2397 79.6314C60.813 79.3913 60.4227 79.0917 60.0806 78.7415C59.9474 78.6224 59.8359 78.4812 59.751 78.324C60.2373 78.7538 60.7676 79.1313 61.3331 79.4501C62.7222 80.1791 64.3427 80.3311 65.8431 79.8731C66.6486 79.5472 67.437 79.1805 68.2052 78.7744C68.8609 78.4426 69.5917 78.2874 70.3257 78.324C70.8244 78.3431 71.3046 78.5179 71.699 78.8239C71.8431 78.9331 71.9551 79.0793 72.0231 79.2468Z" fill="#455A64" /><path d="M63.8875 123.886L51.132 113.014L46.9241 113.965C46.9241 113.965 51.3572 123.183 54.5653 126.561C54.5653 126.561 57.735 130.802 62.9646 128.967C68.1943 127.132 63.8875 123.886 63.8875 123.886Z" fill="#FFBEA6" /><path d="M50.1652 101.039H44.7433C44.5387 101.05 44.3391 101.106 44.1592 101.204C43.9792 101.302 43.8233 101.439 43.7028 101.605C43.5823 101.771 43.5003 101.961 43.4626 102.162C43.425 102.364 43.4328 102.571 43.4853 102.769L48.9402 113.388C49.0436 113.59 49.201 113.76 49.3949 113.878C49.5889 113.996 49.8117 114.059 50.0389 114.058H56.6309C56.7858 114.041 56.9341 113.985 57.0625 113.897C57.1909 113.808 57.2954 113.689 57.3666 113.551C57.4379 113.412 57.4737 113.258 57.4709 113.102C57.4681 112.946 57.4267 112.793 57.3505 112.657L52.0934 102.258C51.9144 101.898 51.64 101.594 51.3 101.379C50.96 101.164 50.5675 101.046 50.1652 101.039Z" fill="#455A64" /><path d="M49.8025 101.682H44.3806C44.225 101.681 44.0717 101.72 43.9356 101.795C43.7995 101.871 43.6851 101.98 43.6034 102.112C43.5217 102.245 43.4755 102.396 43.4692 102.551C43.463 102.707 43.4968 102.861 43.5676 103L48.8906 113.388C48.995 113.589 49.1526 113.758 49.3463 113.877C49.54 113.995 49.7624 114.057 49.9893 114.058H56.5263C56.6161 114.054 56.7035 114.029 56.7811 113.983C56.8586 113.938 56.9238 113.874 56.9709 113.798C57.0181 113.721 57.0458 113.634 57.0516 113.545C57.0574 113.455 57.0412 113.365 57.0043 113.284L51.7416 102.89C51.5638 102.528 51.2879 102.222 50.9451 102.008C50.6023 101.795 50.2064 101.682 49.8025 101.682Z" fill="#263238" /><path d="M49.3412 106.021L46.0452 107.34L45.342 109.999L46.9296 113.954L52.7361 114.811L51.0331 113.069L51.2474 111.548C51.2474 111.548 52.8954 111.037 52.8954 110.79C52.8954 110.542 52.6921 109.691 52.4449 109.663C51.7946 109.812 51.1572 110.012 50.5387 110.262C50.5387 110.262 52.5548 108.664 52.4999 108.405C52.4449 108.147 52.2252 107.494 51.8242 107.417C51.4232 107.34 48.1601 108.883 48.1601 108.883L47.6108 110.086L47.1493 108.158C47.1493 108.158 50.0553 107.345 49.3412 106.021Z" fill="#FFBEA6" /><path d="M49.7587 112.262C49.7587 112.262 49.6763 112.152 49.6433 111.932C49.6086 111.652 49.6402 111.368 49.7357 111.103C49.8311 110.838 49.9876 110.599 50.1926 110.405C50.3574 110.262 50.4838 110.213 50.4948 110.229C50.2441 110.507 50.0383 110.822 49.885 111.163C49.7872 111.521 49.7446 111.891 49.7587 112.262Z" fill="#F2B199" /><path d="M48.1875 111.685C48.2518 111.401 48.2959 111.113 48.3193 110.822C48.3327 110.498 48.3881 110.177 48.4841 109.867C48.5469 109.667 48.6565 109.486 48.8036 109.338C48.9508 109.19 49.1314 109.079 49.3301 109.015C50.1157 108.73 50.8298 108.499 51.3462 108.328C51.6223 108.224 51.9073 108.145 52.1976 108.092C51.9419 108.238 51.6712 108.356 51.3901 108.444C50.8792 108.642 50.1651 108.894 49.3905 109.174C49.2096 109.237 49.0446 109.338 48.9071 109.471C48.7852 109.6 48.6916 109.754 48.6325 109.922C48.5319 110.219 48.4673 110.527 48.4402 110.839C48.4295 111.138 48.3426 111.429 48.1875 111.685Z" fill="#F2B199" /><path d="M47.4294 111.092C47.3774 110.877 47.3774 110.653 47.4294 110.438C47.4898 110.086 47.5722 109.812 47.6216 109.817C47.6732 110.032 47.6732 110.256 47.6216 110.471C47.5612 110.823 47.4788 111.097 47.4294 111.092Z" fill="#F2B199" /><path d="M47.3416 103.687C47.3416 103.824 47.3822 103.957 47.4582 104.071C47.5343 104.185 47.6424 104.274 47.7689 104.326C47.8953 104.379 48.0345 104.392 48.1688 104.366C48.303 104.339 48.4264 104.273 48.5232 104.176C48.62 104.079 48.6859 103.956 48.7126 103.822C48.7393 103.687 48.7256 103.548 48.6732 103.422C48.6208 103.295 48.5321 103.187 48.4183 103.111C48.3045 103.035 48.1706 102.995 48.0337 102.995C47.9426 102.994 47.8523 103.011 47.768 103.046C47.6837 103.08 47.6071 103.131 47.5427 103.196C47.4783 103.26 47.4273 103.337 47.3928 103.421C47.3582 103.505 47.3408 103.596 47.3416 103.687Z" fill="#FAFAFA" /><path d="M28.3457 208.395C29.2061 208.662 30.0038 209.099 30.691 209.682C31.3782 210.264 31.9407 210.979 32.3448 211.784C33.1456 213.402 33.5647 215.182 33.5698 216.987C33.6797 220.458 32.2404 224.194 30.543 227.232C27.2964 225.144 26 220.832 25.4726 218.635C24.6486 215.13 25.2804 208.296 28.3457 208.39" fill="#FFD500" /><path d="M34.7124 232.395C34.374 231.446 34.2923 230.425 34.4755 229.434C34.6588 228.444 35.1006 227.519 35.7561 226.754C36.4251 226.001 37.2376 225.389 38.1459 224.954C39.0543 224.52 40.0403 224.27 41.0462 224.221C41.9691 224.155 43.0018 224.276 43.6336 224.957C43.9112 225.293 44.0942 225.696 44.1638 226.126C44.2333 226.556 44.1868 226.996 44.0291 227.402C43.7007 228.21 43.1644 228.917 42.4745 229.451C40.2057 231.385 37.6568 232.835 34.7124 232.395Z" fill="#FFD500" /><path d="M32.548 243.421C32.5231 243.183 32.5231 242.944 32.548 242.707C32.548 242.196 32.592 241.542 32.6194 240.756C32.6409 238.592 33.0119 236.446 33.7181 234.401C34.4565 232.351 35.7268 230.535 37.3986 229.138C37.906 228.728 38.4589 228.378 39.0466 228.094C39.2554 227.99 39.4312 227.94 39.541 227.891C39.6509 227.842 39.7168 227.831 39.7223 227.842C38.367 228.512 37.1583 229.444 36.1662 230.585C35.1742 231.727 34.4186 233.053 33.9433 234.488C33.2559 236.514 32.8727 238.63 32.8062 240.767C32.7513 241.586 32.7018 242.251 32.6579 242.712C32.6408 242.951 32.6041 243.188 32.548 243.421Z" fill="#263238" /><path d="M28.3238 213.641C28.3566 213.74 28.3823 213.841 28.4007 213.943C28.4483 214.17 28.5087 214.462 28.5819 214.817C28.7358 215.575 28.9445 216.679 29.1862 218.041C29.6751 220.788 30.2849 224.551 30.8836 228.737C31.4824 232.923 31.9274 236.724 32.213 239.482C32.3559 240.861 32.4602 241.976 32.5262 242.75C32.5518 243.117 32.5738 243.413 32.5921 243.64C32.6079 243.742 32.6079 243.846 32.5921 243.948C32.5647 243.847 32.5463 243.744 32.5371 243.64C32.5097 243.415 32.4712 243.124 32.4218 242.756C32.3229 241.959 32.1911 240.855 32.0263 239.504C31.6967 236.757 31.2187 232.956 30.631 228.77C30.0432 224.584 29.4499 220.832 29.0104 218.085C28.7907 216.739 28.6149 215.641 28.4611 214.844C28.4062 214.482 28.3622 214.191 28.3238 213.965C28.3094 213.858 28.3094 213.749 28.3238 213.641Z" fill="#263238" /><path d="M30.0321 235.203C29.3858 233.183 28.268 231.347 26.7712 229.845C25.2743 228.343 23.4414 227.22 21.424 226.567C20.3913 226.243 19.0949 226.128 18.4027 226.957C17.7105 227.787 18.0841 229.05 18.6169 229.989C19.7631 231.93 21.4585 233.487 23.4892 234.465C25.5199 235.443 27.7948 235.797 30.0266 235.483" fill="#FFD500" /><path d="M22.3414 229.742C22.5624 229.781 22.7794 229.84 22.9897 229.918C23.2422 229.992 23.4899 230.082 23.7313 230.187C24.0169 230.313 24.352 230.423 24.6926 230.61C25.0691 230.794 25.4358 230.998 25.7913 231.22C26.2097 231.472 26.6149 231.745 27.0053 232.038C28.803 233.389 30.2437 235.157 31.2022 237.191C31.4105 237.633 31.5939 238.086 31.7515 238.548C31.896 238.947 32.0152 239.354 32.1086 239.768C32.1939 240.108 32.2599 240.453 32.3064 240.8C32.3541 241.06 32.3853 241.322 32.3997 241.586C32.4225 241.808 32.4261 242.033 32.4107 242.256C32.3503 242.256 32.3118 241.295 31.9218 239.806C31.8179 239.402 31.6932 239.005 31.5483 238.614C31.3907 238.161 31.2072 237.717 30.9989 237.285C30.5118 236.308 29.9206 235.387 29.2356 234.538C28.5311 233.692 27.7394 232.922 26.8734 232.242C26.4941 231.949 26.0999 231.676 25.6924 231.423C25.3379 231.193 24.9711 230.982 24.5937 230.791C23.2478 230.061 22.3195 229.792 22.3414 229.742Z" fill="#263238" /></svg>