<svg viewBox="0 0 1003 517" fill="none" xmlns="http://www.w3.org/2000/svg"><g clip-path="url(#clip0_1073_2)"><path d="M50.3289 482.312L93.4055 413.951L50.3089 489.76L50.2858 497.549C47.2127 497.513 44.1705 497.395 41.1594 497.196L44.6729 397.133L44.6267 396.359L44.7059 396.212L45.0404 386.756L0 311.833L45.0869 379.676L45.2218 381.678L47.8759 306.077L9.15552 228.559L48.1785 292.793L49.9937 136.092L50.002 135.57L50.0083 136.083L50.8921 259.631L87.8916 210.198L50.8594 270.272L50.6877 337.94L85.0178 272.586L50.6688 347.889L50.5738 385.516L100.441 294.52L50.5344 398.642L50.3289 482.312Z" fill="#B3B3B3"/><path d="M654.962 193.768H642.851V279.752H654.962V193.768Z" fill="#2C3E50"/><path d="M206.837 10.7796L202.283 22.001L650.432 203.898L654.986 192.677L206.837 10.7796Z" fill="#2C3E50"/><path d="M1002.5 493.694C983.742 525.031 -0.989469 522.4 0.502671 493.692C19.2597 462.356 1003.99 464.987 1002.5 493.694Z" fill="#B3B3B3"/><path d="M879.005 366.947H773.644V408.123H879.005V366.947Z" fill="#2C3E50"/><path d="M869.317 403.278H349.778V449.298H869.317V403.278Z" fill="#2C3E50"/><path d="M783.938 426.288H659.2V269.458H752.451L783.938 348.555V426.288Z" fill="#B3B3B3"/><path d="M731.863 279.146H678.577V332.433H731.863V279.146Z" fill="white"/><path d="M771.827 333.038H737.918V279.752H752.451L771.827 333.038Z" fill="white"/><path d="M693.109 362.708H680.999V385.718H693.109V362.708Z" fill="#2C3E50"/><path d="M748.212 313.661H748.817C751.869 313.661 754.795 314.873 756.953 317.031C759.11 319.188 760.322 322.115 760.322 325.166V325.166C760.322 328.217 759.11 331.144 756.953 333.301C754.795 335.459 751.869 336.671 748.817 336.671H748.212V313.661Z" fill="#2C3E50"/><path d="M297.703 403.278H298.308C301.359 403.278 304.286 404.49 306.443 406.648C308.601 408.806 309.813 411.732 309.813 414.783V414.783C309.813 417.835 308.601 420.761 306.443 422.918C304.286 425.076 301.359 426.288 298.308 426.288H297.703V403.278Z" fill="#2C3E50"/><path d="M832.379 403.105C850.834 403.105 867.434 412.045 878.952 426.289H902.62L879.61 362.193L772.433 341.055L775.46 426.289H785.807C797.325 412.045 813.925 403.105 832.379 403.105Z" fill="#B3B3B3"/><path d="M833.591 494.107C862.685 494.107 886.271 470.521 886.271 441.427C886.271 412.332 862.685 388.746 833.591 388.746C804.496 388.746 780.91 412.332 780.91 441.427C780.91 470.521 804.496 494.107 833.591 494.107Z" fill="#2C3E50"/><path d="M833.591 469.153C848.904 469.153 861.317 456.74 861.317 441.427C861.317 426.114 848.904 413.7 833.591 413.7C818.278 413.7 805.864 426.114 805.864 441.427C805.864 456.74 818.278 469.153 833.591 469.153Z" fill="#B3B3B3"/><path d="M357.65 493.501C383.066 493.501 403.669 472.898 403.669 447.482C403.669 422.066 383.066 401.462 357.65 401.462C332.234 401.462 311.63 422.066 311.63 447.482C311.63 472.898 332.234 493.501 357.65 493.501Z" fill="#2C3E50"/><path d="M357.65 471.703C371.026 471.703 381.871 460.859 381.871 447.482C381.871 434.105 371.026 423.261 357.65 423.261C344.273 423.261 333.429 434.105 333.429 447.482C333.429 460.859 344.273 471.703 357.65 471.703Z" fill="#B3B3B3"/><path d="M662.833 247.659H637.401V431.133H662.833V247.659Z" fill="#2C3E50"/><path d="M662.833 397.829H297.097V408.729H662.833V397.829Z" fill="#2C3E50"/><path d="M500.232 329.316L101.372 437.83L104.233 448.347L503.093 339.834L500.232 329.316Z" fill="#2C3E50"/><path d="M473.007 342.537L466.176 347.557L508.135 404.653L514.966 399.633L473.007 342.537Z" fill="#2C3E50"/><path d="M755.478 335.46H743.368V340.304H755.478V335.46Z" fill="#2C3E50"/><path d="M648.906 371.791H490.259C489.968 371.791 489.687 371.686 489.467 371.496C489.247 371.306 489.103 371.042 489.061 370.754C489.019 370.466 489.082 370.173 489.239 369.928C489.396 369.683 489.636 369.502 489.915 369.419L644.929 323.4C645.102 323.348 645.284 323.336 645.462 323.364C645.64 323.393 645.81 323.46 645.959 323.562C646.108 323.664 646.232 323.799 646.322 323.955C646.412 324.111 646.466 324.285 646.48 324.465L650.114 370.485C650.127 370.652 650.105 370.819 650.05 370.977C649.996 371.135 649.909 371.28 649.795 371.402C649.682 371.525 649.545 371.623 649.391 371.69C649.238 371.757 649.073 371.791 648.906 371.791V371.791ZM498.593 369.369H647.596L644.184 326.147L498.593 369.369Z" fill="#2C3E50"/><path d="M219.299 318.505H219.288L184.522 318.178C184.352 318.176 184.185 318.139 184.03 318.069C183.876 317.998 183.738 317.896 183.625 317.769C183.513 317.642 183.429 317.492 183.378 317.33C183.327 317.169 183.31 316.998 183.33 316.829L201.394 159.214C201.428 158.919 201.569 158.646 201.791 158.448C202.013 158.25 202.3 158.141 202.597 158.141H202.602C202.901 158.142 203.188 158.253 203.409 158.453C203.63 158.653 203.77 158.928 203.802 159.225L220.504 317.167C220.521 317.336 220.504 317.507 220.451 317.668C220.399 317.83 220.313 317.978 220.199 318.105C220.086 318.231 219.947 318.332 219.792 318.401C219.637 318.47 219.469 318.505 219.299 318.505V318.505ZM185.89 315.769L217.952 316.07L202.548 170.41L185.89 315.769Z" fill="#2C3E50"/><path d="M887.527 384.648L886.961 384.863C884.107 385.942 880.941 385.844 878.16 384.589C875.378 383.334 873.209 381.026 872.13 378.172V378.172C871.051 375.318 871.149 372.152 872.404 369.37C873.659 366.589 875.967 364.42 878.821 363.341L879.387 363.126L887.527 384.648Z" fill="#2C3E50"/><path d="M150.879 391.711L117.097 401.167L118.598 406.529L152.38 397.074L150.879 391.711Z" fill="#2C3E50"/><path d="M395.503 324.686L388.982 328.246L124.089 402.39L120.157 397.505C113.342 389.145 108.986 379.054 107.576 368.361C106.575 360.377 107.307 351.961 112.877 346.838L102.761 265.248L249.261 224.044L318.746 253.943C318.746 253.943 345.362 245.99 364.948 260.023C371.148 264.469 376.646 271.118 380.364 280.93L383.567 290.182L395.503 324.686Z" fill="#42B983"/><path d="M336.948 373.596C355.707 373.596 370.914 358.389 370.914 339.63C370.914 320.87 355.707 305.663 336.948 305.663C318.188 305.663 302.981 320.87 302.981 339.63C302.981 358.389 318.188 373.596 336.948 373.596Z" fill="#2C3E50"/><path d="M336.947 357.507C346.821 357.507 354.825 349.503 354.825 339.63C354.825 329.757 346.821 321.753 336.947 321.753C327.074 321.753 319.07 329.757 319.07 339.63C319.07 349.503 327.074 357.507 336.947 357.507Z" fill="#B3B3B3"/><path d="M175.545 418.774C194.304 418.774 209.512 403.567 209.512 384.807C209.512 366.048 194.304 350.841 175.545 350.841C156.786 350.841 141.579 366.048 141.579 384.807C141.579 403.567 156.786 418.774 175.545 418.774Z" fill="#2C3E50"/><path d="M175.545 402.684C185.418 402.684 193.422 394.68 193.422 384.807C193.422 374.934 185.418 366.93 175.545 366.93C165.672 366.93 157.668 374.934 157.668 384.807C157.668 394.68 165.672 402.684 175.545 402.684Z" fill="#B3B3B3"/><path d="M294.724 254.884L189.624 284.302L180.769 252.665L247.797 233.903L294.724 254.884Z" fill="white"/><path d="M167.9 256.267L126.075 267.974L134.93 299.611L176.755 287.904L167.9 256.267Z" fill="white"/><path d="M201.591 306.395L196.229 307.896L199.08 318.084L204.442 316.583L201.591 306.395Z" fill="#2C3E50"/><path d="M287.516 272.514L286.015 267.151L275.826 270.003L277.327 275.365L287.516 272.514Z" fill="#2C3E50"/><path d="M273.967 248.898L274.557 248.733C277.529 247.901 280.71 248.284 283.4 249.798C286.09 251.311 288.069 253.831 288.901 256.803C289.732 259.776 289.35 262.957 287.836 265.647C286.323 268.337 283.803 270.315 280.83 271.147L280.241 271.312L273.967 248.898Z" fill="#2C3E50"/><path d="M383.567 290.181C379.634 291.755 375.272 291.891 371.25 290.565C367.227 289.238 363.801 286.535 361.576 282.931C359.351 279.326 358.47 275.052 359.086 270.862C359.703 266.671 361.779 262.833 364.948 260.022C371.148 264.468 376.646 271.117 380.364 280.93L383.567 290.181Z" fill="#2C3E50"/><path d="M208.086 10.8994H195.975V187.712H208.086V10.8994Z" fill="#2C3E50"/><path d="M202.03 33.9093C211.394 33.9093 218.985 26.3184 218.985 16.9547C218.985 7.59086 211.394 0 202.03 0C192.667 0 185.076 7.59086 185.076 16.9547C185.076 26.3184 192.667 33.9093 202.03 33.9093Z" fill="#2C3E50"/><path d="M648.906 213.144C658.27 213.144 665.861 205.553 665.861 196.189C665.861 186.825 658.27 179.234 648.906 179.234C639.543 179.234 631.952 186.825 631.952 196.189C631.952 205.553 639.543 213.144 648.906 213.144Z" fill="#2C3E50"/></g><defs><clipPath id="clip0_1073_2"><rect width="1002.5" height="516.22" fill="white"/></clipPath></defs></svg>