<svg viewBox="0 0 34 28" fill="none" xmlns="http://www.w3.org/2000/svg"><path d="M32.1607 24.0559C32.1607 24.0632 32.1593 24.0705 32.1565 24.0773C32.1537 24.0841 32.1496 24.0902 32.1444 24.0954C32.1392 24.1006 32.133 24.1047 32.1263 24.1075C32.1195 24.1103 32.1122 24.1118 32.1048 24.1117H11.0559C11.0411 24.1117 11.0268 24.1059 11.0164 24.0954C11.0059 24.0849 11 24.0707 11 24.0559C11 24.0411 11.0059 24.0268 11.0164 24.0164C11.0268 24.0059 11.0411 24 11.0559 24H32.1048C32.1122 24 32.1195 24.0014 32.1263 24.0042C32.133 24.007 32.1392 24.0111 32.1444 24.0163C32.1496 24.0215 32.1537 24.0277 32.1565 24.0345C32.1593 24.0413 32.1607 24.0485 32.1607 24.0559Z" fill="#CCCCCC" /><path d="M17.4259 0H7.63399C6.11105 0 4.87646 1.23459 4.87646 2.75753V25.1331C4.87646 26.656 6.11105 27.8906 7.63399 27.8906H17.4259C18.9489 27.8906 20.1834 26.656 20.1834 25.1331V2.75753C20.1834 1.23459 18.9489 0 17.4259 0Z" fill="#3F3D56" /><path d="M19.9252 2.75772V25.1332C19.9245 25.7958 19.6609 26.4311 19.1924 26.8996C18.7238 27.3682 18.0885 27.6318 17.4259 27.6325H7.63412C6.97149 27.6318 6.33621 27.3682 5.86766 26.8996C5.3991 26.4311 5.13553 25.7958 5.13477 25.1332V2.75772C5.13553 2.09509 5.3991 1.45981 5.86766 0.991255C6.33621 0.522701 6.97149 0.259129 7.63412 0.258362H8.91455V0.700669C8.91457 0.900909 8.99412 1.09294 9.13571 1.23454C9.2773 1.37613 9.46933 1.45568 9.66957 1.45569H15.3904C15.5907 1.45568 15.7827 1.37613 15.9243 1.23454C16.0659 1.09294 16.1454 0.900909 16.1455 0.700669V0.258362H17.4259C18.0885 0.259129 18.7238 0.522701 19.1924 0.991255C19.6609 1.45981 19.9245 2.09509 19.9252 2.75772Z" fill="white" /><path d="M4.80598 5.65794C4.75619 5.65788 4.70845 5.63808 4.67324 5.60287C4.63803 5.56766 4.61822 5.51992 4.61816 5.47012V5.09449C4.61816 5.04468 4.63795 4.99691 4.67317 4.96169C4.7084 4.92646 4.75617 4.90668 4.80598 4.90668C4.85579 4.90668 4.90356 4.92646 4.93879 4.96169C4.97401 4.99691 4.9938 5.04468 4.9938 5.09449V5.47012C4.99374 5.51992 4.97393 5.56766 4.93872 5.60287C4.90351 5.63808 4.85577 5.65788 4.80598 5.65794Z" fill="#3F3D56" /><path d="M4.80598 7.58407C4.75619 7.58401 4.70845 7.5642 4.67324 7.52899C4.63803 7.49378 4.61822 7.44604 4.61816 7.39625V6.36225C4.61816 6.31244 4.63795 6.26467 4.67317 6.22945C4.7084 6.19423 4.75617 6.17444 4.80598 6.17444C4.85579 6.17444 4.90356 6.19423 4.93879 6.22945C4.97401 6.26467 4.9938 6.31244 4.9938 6.36225V7.39625C4.99374 7.44604 4.97393 7.49378 4.93872 7.52899C4.90351 7.5642 4.85577 7.58401 4.80598 7.58407Z" fill="#3F3D56" /><path d="M4.80598 9.13253C4.75619 9.13247 4.70845 9.11267 4.67324 9.07746C4.63803 9.04225 4.61822 8.99451 4.61816 8.94471V7.91072C4.61816 7.8609 4.63795 7.81313 4.67317 7.77791C4.7084 7.74269 4.75617 7.7229 4.80598 7.7229C4.85579 7.7229 4.90356 7.74269 4.93879 7.77791C4.97401 7.81313 4.9938 7.8609 4.9938 7.91072V8.94471C4.99374 8.99451 4.97393 9.04225 4.93872 9.07746C4.90351 9.11267 4.85577 9.13247 4.80598 9.13253Z" fill="#3F3D56" /><path d="M20.2069 8.28736C20.1571 8.2873 20.1093 8.2675 20.0741 8.23229C20.0389 8.19708 20.0191 8.14934 20.019 8.09954V5.57655C20.019 5.52674 20.0388 5.47896 20.0741 5.44374C20.1093 5.40852 20.157 5.38873 20.2069 5.38873C20.2567 5.38873 20.3044 5.40852 20.3397 5.44374C20.3749 5.47896 20.3947 5.52674 20.3947 5.57655V8.09954C20.3946 8.14934 20.3748 8.19708 20.3396 8.23229C20.3044 8.2675 20.2567 8.2873 20.2069 8.28736Z" fill="#3F3D56" /><path d="M9.33083 25.8026H7.70001C7.48671 25.8024 7.28222 25.7175 7.1314 25.5667C6.98058 25.4159 6.89575 25.2114 6.89551 24.9981V23.3673C6.89575 23.154 6.98058 22.9495 7.1314 22.7987C7.28222 22.6479 7.48671 22.563 7.70001 22.5628H9.33083C9.54413 22.563 9.74861 22.6479 9.89943 22.7987C10.0503 22.9495 10.1351 23.154 10.1353 23.3673V24.9981C10.1351 25.2114 10.0503 25.4159 9.89943 25.5667C9.74861 25.7175 9.54413 25.8024 9.33083 25.8026Z" fill="#6C63FF" /><path d="M13.3452 25.8261H11.7144C11.5011 25.8259 11.2966 25.741 11.1458 25.5902C10.995 25.4394 10.9102 25.2349 10.9099 25.0216V23.3908C10.9102 23.1775 10.995 22.973 11.1458 22.8222C11.2966 22.6714 11.5011 22.5865 11.7144 22.5863H13.3452C13.5585 22.5865 13.763 22.6714 13.9138 22.8222C14.0647 22.973 14.1495 23.1775 14.1497 23.3908V25.0216C14.1495 25.2349 14.0647 25.4394 13.9138 25.5902C13.763 25.741 13.5585 25.8259 13.3452 25.8261Z" fill="#E6E6E6" /><path d="M17.3599 25.8496H15.7291C15.5158 25.8493 15.3113 25.7645 15.1605 25.6137C15.0096 25.4628 14.9248 25.2584 14.9246 25.0451V23.4142C14.9248 23.2009 15.0096 22.9965 15.1605 22.8456C15.3113 22.6948 15.5158 22.61 15.7291 22.6097H17.3599C17.5732 22.61 17.7777 22.6948 17.9285 22.8456C18.0793 22.9965 18.1641 23.2009 18.1644 23.4142V25.0451C18.1641 25.2584 18.0793 25.4628 17.9285 25.6137C17.7777 25.7645 17.5732 25.8493 17.3599 25.8496Z" fill="#E6E6E6" /><path d="M18.145 26.3426H6.92743C6.67164 26.3423 6.42642 26.2406 6.24555 26.0597C6.06468 25.8788 5.96294 25.6336 5.96265 25.3778V22.9876C5.96294 22.7318 6.06468 22.4866 6.24555 22.3057C6.42642 22.1249 6.67164 22.0231 6.92743 22.0228H18.145C18.4008 22.0231 18.646 22.1249 18.8268 22.3057C19.0077 22.4866 19.1095 22.7318 19.1097 22.9876V25.3778C19.1095 25.6336 19.0077 25.8788 18.8268 26.0597C18.646 26.2406 18.4008 26.3423 18.145 26.3426ZM6.92743 22.1167C6.69654 22.117 6.47519 22.2088 6.31192 22.3721C6.14866 22.5353 6.05682 22.7567 6.05655 22.9876V25.3778C6.05682 25.6087 6.14866 25.8301 6.31192 25.9933C6.47519 26.1566 6.69654 26.2484 6.92743 26.2487H18.145C18.3759 26.2484 18.5972 26.1566 18.7605 25.9933C18.9237 25.8301 19.0156 25.6087 19.0158 25.3778V22.9876C19.0156 22.7567 18.9237 22.5353 18.7605 22.3721C18.5972 22.2088 18.3759 22.117 18.145 22.1167H6.92743Z" fill="#E6E6E6" /><path d="M13.9192 23.5039C14.2303 23.5039 14.4826 23.2516 14.4826 22.9405C14.4826 22.6293 14.2303 22.377 13.9192 22.377C13.608 22.377 13.3557 22.6293 13.3557 22.9405C13.3557 23.2516 13.608 23.5039 13.9192 23.5039Z" fill="#CCCCCC" /><path d="M8.35506 1.36511H7.08731C7.02504 1.36511 6.96533 1.34037 6.9213 1.29635C6.87727 1.25232 6.85254 1.1926 6.85254 1.13034C6.85254 1.06807 6.87727 1.00836 6.9213 0.964331C6.96533 0.920303 7.02504 0.895569 7.08731 0.895569H8.35506C8.41733 0.895569 8.47705 0.920303 8.52107 0.964331C8.5651 1.00836 8.58983 1.06807 8.58983 1.13034C8.58983 1.1926 8.5651 1.25232 8.52107 1.29635C8.47705 1.34037 8.41733 1.36511 8.35506 1.36511Z" fill="#E6E6E6" /><path d="M16.6659 1.34165C16.7826 1.34165 16.8772 1.24705 16.8772 1.13036C16.8772 1.01367 16.7826 0.919067 16.6659 0.919067C16.5492 0.919067 16.4546 1.01367 16.4546 1.13036C16.4546 1.24705 16.5492 1.34165 16.6659 1.34165Z" fill="#E6E6E6" /><path d="M17.3234 1.34165C17.4401 1.34165 17.5347 1.24705 17.5347 1.13036C17.5347 1.01367 17.4401 0.919067 17.3234 0.919067C17.2067 0.919067 17.1121 1.01367 17.1121 1.13036C17.1121 1.24705 17.2067 1.34165 17.3234 1.34165Z" fill="#E6E6E6" /><path d="M17.9806 1.34165C18.0973 1.34165 18.1919 1.24705 18.1919 1.13036C18.1919 1.01367 18.0973 0.919067 17.9806 0.919067C17.8639 0.919067 17.7693 1.01367 17.7693 1.13036C17.7693 1.24705 17.8639 1.34165 17.9806 1.34165Z" fill="#E6E6E6" /><path d="M12.9333 0.861418H11.4777C11.4466 0.861418 11.4167 0.84905 11.3947 0.827036C11.3727 0.805022 11.3604 0.775165 11.3604 0.744033C11.3604 0.7129 11.3727 0.683043 11.3947 0.661029C11.4167 0.639016 11.4466 0.626648 11.4777 0.626648H12.9333C12.9644 0.626648 12.9943 0.639016 13.0163 0.661029C13.0383 0.683043 13.0507 0.7129 13.0507 0.744033C13.0507 0.775165 13.0383 0.805022 13.0163 0.827036C12.9943 0.84905 12.9644 0.861418 12.9333 0.861418Z" fill="white" /><path d="M13.6847 0.837962C13.7366 0.837962 13.7786 0.795918 13.7786 0.744054C13.7786 0.69219 13.7366 0.650146 13.6847 0.650146C13.6329 0.650146 13.5908 0.69219 13.5908 0.744054C13.5908 0.795918 13.6329 0.837962 13.6847 0.837962Z" fill="white" /><path d="M25.4631 23.2616L24.7553 23.2615L24.4185 20.5311L25.4632 20.5311L25.4631 23.2616Z" fill="#FFB6B6" /><path d="M25.4881 24L23.3113 24V23.9724C23.3113 23.7477 23.4006 23.5322 23.5595 23.3733C23.7184 23.2144 23.9339 23.1252 24.1586 23.1251H24.1586L24.5562 22.8235L25.2981 23.1252L25.4882 23.1252L25.4881 24Z" fill="#2F2E41" /><path d="M30.8569 19.5356L30.5217 20.1591L27.9573 19.1627L28.4521 18.2425L30.8569 19.5356Z" fill="#FFB6B6" /><path d="M31.519 19.8633L30.4881 21.7806L30.4639 21.7676C30.266 21.6612 30.1184 21.4805 30.0537 21.2653C29.989 21.0501 30.0124 20.818 30.1188 20.6201L30.1189 20.62L30.0414 20.127L30.6585 19.6164L30.7485 19.449L31.519 19.8633Z" fill="#2F2E41" /><path d="M24.1245 10.7574L23.4998 15.7557L23.8121 17.4314L29.4352 19.8948L29.7476 18.8796C28.3102 18.0001 26.7738 16.669 25.8056 16.5712C25.8056 16.5712 27.9123 11.7337 27.8342 11.3432C27.7561 10.9527 24.1245 10.7574 24.1245 10.7574Z" fill="#2F2E41" /><path d="M24.017 15.7413L23.6902 17.8521L24.5151 22.1597H25.6085C26.0013 20.7123 26.0216 18.81 25.6476 17.2005L24.017 15.7413Z" fill="#2F2E41" /><path d="M24.7195 4.65068L25.2235 3.7724L25.7647 3.33826L26.7799 3.18207L27.062 3.39895C28.0771 4.95042 28.4557 6.83325 28.119 8.65648L27.8419 10.1577L28.0804 11.2903C28.1005 11.3861 28.0991 11.4851 28.0762 11.5802C28.0534 11.6754 28.0096 11.7642 27.9481 11.8403C27.8866 11.9164 27.809 11.9779 27.7208 12.0202C27.6326 12.0626 27.536 12.0848 27.4382 12.0852L24.9192 12.0955C24.7549 12.0962 24.5924 12.0613 24.4429 11.9933C24.2934 11.9252 24.1604 11.8256 24.053 11.7012C23.9457 11.5769 23.8665 11.4308 23.821 11.2729C23.7754 11.1151 23.7646 10.9493 23.7892 10.7869L24.7195 4.65068Z" fill="#6C63FF" /><path d="M26.6971 7.67496L25.6904 7.53076C25.3499 8.10011 25.2289 9.61555 25.2289 9.61555L24.2436 11.9573C24.1784 12.0017 24.1259 12.0624 24.0916 12.1334C24.0573 12.2044 24.0423 12.2832 24.0481 12.3619C24.0539 12.4406 24.0804 12.5163 24.1248 12.5815C24.1691 12.6467 24.2299 12.6991 24.301 12.7333C24.3721 12.7675 24.4509 12.7825 24.5295 12.7765C24.6082 12.7706 24.6839 12.7441 24.7491 12.6996C24.8142 12.6551 24.8665 12.5943 24.9006 12.5232C24.9348 12.4521 24.9496 12.3732 24.9436 12.2946L26.5613 9.56883L26.6971 7.67496Z" fill="#FFB8B8" /><path d="M26.5366 4.87992C26.6924 4.90405 26.841 4.96223 26.9718 5.05032C27.1026 5.13841 27.2124 5.25423 27.2933 5.38956C27.3742 5.52489 27.4243 5.6764 27.4401 5.83329C27.4558 5.99019 27.4367 6.14863 27.3843 6.29733L27.1706 6.90288C27.1706 6.90288 27.0543 8.7262 26.6108 9.24088L25.2499 9.11768C25.2499 9.11768 25.4987 8.19779 25.3077 7.75271C25.1907 7.48014 25.1972 6.53871 25.3124 5.77287C25.334 5.63379 25.3829 5.50035 25.4561 5.38016C25.5294 5.25998 25.6256 5.15543 25.7393 5.07248C25.853 4.98954 25.982 4.92984 26.1188 4.8968C26.2556 4.86375 26.3976 4.85802 26.5366 4.87992Z" fill="#6C63FF" /><path d="M24.5872 5.92207L24.3481 4.93354C23.6931 4.82823 22.2407 5.27734 22.2407 5.27734L19.7005 5.22987C19.6352 5.18569 19.5594 5.15949 19.4807 5.15393C19.402 5.14837 19.3232 5.16363 19.2523 5.19818C19.1814 5.23273 19.1209 5.28535 19.0768 5.35075C19.0327 5.41614 19.0066 5.492 19.0011 5.57069C18.9956 5.64938 19.011 5.72812 19.0456 5.79899C19.0802 5.86986 19.1329 5.93035 19.1984 5.97438C19.2638 6.01841 19.3397 6.04442 19.4184 6.04979C19.4971 6.05517 19.5758 6.03972 19.6467 6.005L22.7778 6.49763L24.5872 5.92207Z" fill="#FFB8B8" /><path d="M27.1238 4.73761C27.1592 4.89129 27.1602 5.05087 27.1268 5.20498C27.0935 5.3591 27.0265 5.50397 26.9308 5.62928C26.8351 5.7546 26.713 5.85728 26.5731 5.93002C26.4332 6.00276 26.2789 6.04377 26.1214 6.05014L25.4798 6.07607C25.4798 6.07607 23.7431 6.64362 23.1008 6.42236L22.7109 5.11263C22.7109 5.11263 23.6576 5.00291 24.0002 4.66057C24.21 4.45091 25.0868 4.10813 25.8409 3.93144C25.9781 3.89998 26.1201 3.89588 26.2589 3.91939C26.3976 3.94289 26.5304 3.99354 26.6496 4.06842C26.7687 4.1433 26.872 4.24095 26.9534 4.35578C27.0347 4.47061 27.0927 4.60037 27.1238 4.73761Z" fill="#6C63FF" /><path d="M26.0064 2.93734C26.7436 2.93734 27.3413 2.33965 27.3413 1.60237C27.3413 0.865082 26.7436 0.267395 26.0064 0.267395C25.2691 0.267395 24.6714 0.865082 24.6714 1.60237C24.6714 2.33965 25.2691 2.93734 26.0064 2.93734Z" fill="#FFB8B8" /><path d="M26.029 2.89946C26.2243 2.9025 26.4195 2.88886 26.6126 2.85867C26.8039 2.81977 27.2319 2.50614 27.3512 2.31741C27.4381 2.15551 27.498 1.98047 27.5284 1.79924C27.5715 1.58884 27.5698 1.37176 27.5236 1.16204C27.4774 0.952326 27.3877 0.75465 27.2602 0.581816C27.2112 0.509524 27.1436 0.451814 27.0645 0.414794C27.0575 0.412053 27.0503 0.409625 27.043 0.407548C26.9278 0.377226 26.8242 0.313148 26.7457 0.223545C26.7304 0.205421 26.7139 0.188419 26.6962 0.17267C26.6074 0.0977333 26.5022 0.0448753 26.389 0.0184149C26.2064 -0.03046 25.9421 0.0180553 25.6035 0.162753C25.4427 0.219256 25.2683 0.224616 25.1042 0.178097C25.0962 0.176546 25.0879 0.177124 25.0802 0.179775C25.0724 0.182425 25.0655 0.187054 25.0601 0.193202C24.9992 0.250368 24.919 0.282366 24.8355 0.282766C24.7843 0.285012 24.7306 0.355844 24.6658 0.448211C24.651 0.469177 24.6339 0.493648 24.6215 0.508531L24.6198 0.479938L24.5909 0.511836C24.5454 0.561973 24.5133 0.622804 24.4977 0.688666C24.482 0.754528 24.4833 0.823278 24.5014 0.888515C24.5195 0.953751 24.5538 1.01335 24.6011 1.06177C24.6484 1.11018 24.7072 1.14584 24.772 1.16541C24.8234 1.1791 24.8762 1.1875 24.9293 1.19048C24.9615 1.19338 24.9948 1.19638 25.0268 1.20192C25.1292 1.2229 25.2245 1.27009 25.3033 1.33888C25.382 1.40767 25.4416 1.4957 25.4762 1.5944C25.4844 1.61721 25.4977 1.63784 25.5151 1.65469C25.5325 1.67154 25.5536 1.68417 25.5767 1.69159C25.5997 1.69901 25.6242 1.70103 25.6482 1.69749C25.6722 1.69395 25.695 1.68496 25.7149 1.67119C25.7482 1.6453 25.7872 1.62783 25.8287 1.62028C25.8702 1.61273 25.9128 1.61532 25.9531 1.62783C25.9879 1.64717 26.0149 1.67788 26.0298 1.71481C26.0478 1.75595 26.0776 1.7908 26.1155 1.8149C26.2452 1.88174 26.2541 2.17785 26.2076 2.42469C26.1627 2.66263 26.074 2.83475 25.9918 2.84326C25.9286 2.8498 25.9213 2.8543 25.9168 2.86548L25.9127 2.87549L25.9198 2.88486C25.9547 2.89752 25.992 2.9025 26.029 2.89946Z" fill="#2F2E41" /><path d="M18.7588 17.9756H6.31472C6.23633 17.9755 6.16118 17.945 6.10574 17.8907C6.05031 17.8364 6.01913 17.7627 6.01904 17.6859V14.2428C6.01913 14.166 6.05031 14.0923 6.10574 14.038C6.16118 13.9837 6.23633 13.9531 6.31472 13.9531H18.7588C18.8372 13.9531 18.9124 13.9837 18.9678 14.038C19.0232 14.0923 19.0544 14.166 19.0545 14.2428V17.6859C19.0544 17.7627 19.0232 17.8364 18.9678 17.8907C18.9124 17.945 18.8372 17.9755 18.7588 17.9756Z" fill="white" /><path d="M18.7588 18.0303H6.31462C6.22143 18.0302 6.13209 17.9939 6.0662 17.9293C6.00031 17.8648 5.96324 17.7772 5.96313 17.6859V14.2428C5.96324 14.1515 6.00031 14.0639 6.0662 13.9994C6.13209 13.9348 6.22143 13.8985 6.31462 13.8984H18.7588C18.8519 13.8985 18.9413 13.9348 19.0072 13.9994C19.0731 14.0639 19.1101 14.1515 19.1102 14.2428V17.6859C19.1101 17.7772 19.0731 17.8648 19.0072 17.9293C18.9413 17.9939 18.8519 18.0302 18.7588 18.0303ZM6.31462 14.0077C6.25103 14.0078 6.19006 14.0326 6.1451 14.0767C6.10013 14.1207 6.07483 14.1805 6.07476 14.2428V17.6859C6.07483 17.7482 6.10013 17.808 6.1451 17.852C6.19006 17.8961 6.25103 17.9209 6.31462 17.921H18.7588C18.8223 17.9209 18.8833 17.8961 18.9283 17.852C18.9732 17.808 18.9985 17.7482 18.9986 17.6859V14.2428C18.9985 14.1805 18.9732 14.1207 18.9283 14.0767C18.8833 14.0326 18.8223 14.0078 18.7588 14.0077H6.31462Z" fill="#CCCCCC" /><path d="M7.4488 15.5851C7.71379 15.5851 7.92861 15.3747 7.92861 15.115C7.92861 14.8554 7.71379 14.6449 7.4488 14.6449C7.18381 14.6449 6.96899 14.8554 6.96899 15.115C6.96899 15.3747 7.18381 15.5851 7.4488 15.5851Z" fill="#6C63FF" /><path d="M17.9616 16.2997H7.11187C7.07398 16.2997 7.03764 16.2849 7.01084 16.2587C6.98405 16.2324 6.96899 16.1968 6.96899 16.1597C6.96899 16.1226 6.98405 16.087 7.01084 16.0607C7.03764 16.0345 7.07398 16.0197 7.11187 16.0197H17.9616C17.9995 16.0197 18.0358 16.0345 18.0626 16.0607C18.0894 16.087 18.1045 16.1226 18.1045 16.1597C18.1045 16.1968 18.0894 16.2324 18.0626 16.2587C18.0358 16.2849 17.9995 16.2997 17.9616 16.2997Z" fill="#6C63FF" /><path d="M16.7949 16.8529H7.11192C7.09313 16.8529 7.07452 16.8493 7.05715 16.8423C7.03978 16.8353 7.024 16.825 7.0107 16.812C6.9974 16.799 6.98685 16.7835 6.97965 16.7665C6.97246 16.7495 6.96875 16.7313 6.96875 16.7129C6.96875 16.6945 6.97246 16.6762 6.97965 16.6592C6.98685 16.6422 6.9974 16.6268 7.0107 16.6138C7.024 16.6008 7.03978 16.5905 7.05715 16.5835C7.07452 16.5764 7.09313 16.5728 7.11192 16.5729H16.7949C16.8327 16.5729 16.869 16.5877 16.8957 16.614C16.9224 16.6402 16.9375 16.6758 16.9375 16.7129C16.9375 16.75 16.9224 16.7855 16.8957 16.8118C16.869 16.838 16.8327 16.8528 16.7949 16.8529Z" fill="#6C63FF" /><path d="M18.8057 12.9046H6.3616C6.28321 12.9045 6.20805 12.874 6.15262 12.8196C6.09719 12.7653 6.06601 12.6917 6.06592 12.6149V9.17172C6.06601 9.09491 6.09719 9.02127 6.15262 8.96696C6.20805 8.91265 6.28321 8.8821 6.3616 8.88202H18.8057C18.8841 8.8821 18.9593 8.91265 19.0147 8.96696C19.0701 9.02127 19.1013 9.09491 19.1014 9.17172V12.6149C19.1013 12.6917 19.0701 12.7653 19.0147 12.8196C18.9593 12.874 18.8841 12.9045 18.8057 12.9046Z" fill="white" /><path d="M18.8056 12.9593H6.3615C6.26831 12.9592 6.17897 12.9229 6.11307 12.8583C6.04718 12.7937 6.01012 12.7062 6.01001 12.6149V9.17172C6.01012 9.08041 6.04718 8.99288 6.11307 8.92831C6.17897 8.86375 6.26831 8.82744 6.3615 8.82733H18.8056C18.8988 8.82744 18.9882 8.86375 19.054 8.92831C19.1199 8.99288 19.157 9.08041 19.1571 9.17172V12.6149C19.157 12.7062 19.1199 12.7937 19.054 12.8583C18.9882 12.9229 18.8988 12.9592 18.8056 12.9593ZM6.3615 8.9367C6.2979 8.93677 6.23694 8.96156 6.19197 9.00562C6.147 9.04968 6.12171 9.10941 6.12163 9.17172V12.6149C6.12171 12.6772 6.147 12.7369 6.19197 12.781C6.23694 12.8251 6.2979 12.8498 6.3615 12.8499H18.8056C18.8692 12.8498 18.9302 12.8251 18.9752 12.781C19.0201 12.7369 19.0454 12.6772 19.0455 12.6149V9.17172C19.0454 9.10941 19.0201 9.04968 18.9752 9.00562C18.9302 8.96156 18.8692 8.93677 18.8056 8.9367H6.3615Z" fill="#CCCCCC" /><path d="M7.49568 10.5141C7.76067 10.5141 7.97548 10.3036 7.97548 10.044C7.97548 9.78433 7.76067 9.57385 7.49568 9.57385C7.23069 9.57385 7.01587 9.78433 7.01587 10.044C7.01587 10.3036 7.23069 10.5141 7.49568 10.5141Z" fill="#6C63FF" /><path d="M18.0085 11.2286H7.15874C7.12085 11.2286 7.08451 11.2139 7.05772 11.1876C7.03092 11.1614 7.01587 11.1258 7.01587 11.0887C7.01587 11.0515 7.03092 11.0159 7.05772 10.9897C7.08451 10.9634 7.12085 10.9487 7.15874 10.9487H18.0085C18.0464 10.9487 18.0827 10.9634 18.1095 10.9897C18.1363 11.0159 18.1513 11.0515 18.1513 11.0887C18.1513 11.1258 18.1363 11.1614 18.1095 11.1876C18.0827 11.2139 18.0464 11.2286 18.0085 11.2286Z" fill="#6C63FF" /><path d="M16.8417 11.7818H7.15879C7.14 11.7818 7.12139 11.7782 7.10403 11.7712C7.08666 11.7642 7.07087 11.7539 7.05758 11.7409C7.04428 11.7279 7.03373 11.7124 7.02653 11.6954C7.01933 11.6784 7.01562 11.6602 7.01562 11.6418C7.01562 11.6234 7.01933 11.6051 7.02653 11.5881C7.03373 11.5711 7.04428 11.5557 7.05758 11.5427C7.07087 11.5297 7.08666 11.5194 7.10403 11.5123C7.12139 11.5053 7.14 11.5017 7.15879 11.5018H16.8417C16.8796 11.5018 16.9158 11.5166 16.9426 11.5429C16.9693 11.5691 16.9843 11.6047 16.9843 11.6418C16.9843 11.6789 16.9693 11.7144 16.9426 11.7407C16.9158 11.7669 16.8796 11.7817 16.8417 11.7818Z" fill="#6C63FF" /><path d="M18.8528 7.83355H6.40872C6.33033 7.83346 6.25517 7.80291 6.19974 7.7486C6.14431 7.69429 6.11313 7.62065 6.11304 7.54384V4.10067C6.11313 4.02386 6.14431 3.95023 6.19974 3.89592C6.25517 3.84161 6.33033 3.81106 6.40872 3.81097H18.8528C18.9312 3.81106 19.0064 3.84161 19.0618 3.89592C19.1172 3.95023 19.1484 4.02386 19.1485 4.10067V7.54384C19.1484 7.62065 19.1172 7.69429 19.0618 7.7486C19.0064 7.80291 18.9312 7.83346 18.8528 7.83355Z" fill="white" /><path d="M18.8527 7.88823H6.40861C6.31543 7.88813 6.22609 7.85181 6.16019 7.78725C6.0943 7.72269 6.05723 7.63515 6.05713 7.54384V4.10068C6.05723 4.00937 6.0943 3.92183 6.16019 3.85727C6.22609 3.79271 6.31543 3.75639 6.40861 3.75629H18.8527C18.9459 3.75639 19.0353 3.79271 19.1012 3.85727C19.167 3.92183 19.2041 4.00937 19.2042 4.10068V7.54384C19.2041 7.63515 19.167 7.72269 19.1012 7.78725C19.0353 7.85181 18.9459 7.88813 18.8527 7.88823ZM6.40861 3.86565C6.34502 3.86573 6.28406 3.89051 6.23909 3.93457C6.19412 3.97863 6.16883 4.03837 6.16875 4.10068V7.54385C6.16883 7.60616 6.19412 7.66589 6.23909 7.70995C6.28406 7.75401 6.34502 7.77879 6.40861 7.77887H18.8527C18.9163 7.77879 18.9773 7.75401 19.0223 7.70995C19.0672 7.66589 19.0925 7.60616 19.0926 7.54385V4.10068C19.0925 4.03837 19.0672 3.97863 19.0223 3.93457C18.9773 3.89051 18.9163 3.86573 18.8527 3.86565H6.40861Z" fill="#CCCCCC" /><path d="M7.5428 5.44304C7.80779 5.44304 8.0226 5.23256 8.0226 4.97292C8.0226 4.71328 7.80779 4.50281 7.5428 4.50281C7.27781 4.50281 7.06299 4.71328 7.06299 4.97292C7.06299 5.23256 7.27781 5.44304 7.5428 5.44304Z" fill="#6C63FF" /><path d="M18.0556 6.1576H7.20586C7.16797 6.1576 7.13163 6.14285 7.10484 6.1166C7.07804 6.09035 7.06299 6.05474 7.06299 6.01761C7.06299 5.98049 7.07804 5.94488 7.10484 5.91862C7.13163 5.89237 7.16797 5.87762 7.20586 5.87762H18.0556C18.0935 5.87762 18.1298 5.89237 18.1566 5.91862C18.1834 5.94488 18.1985 5.98049 18.1985 6.01761C18.1985 6.05474 18.1834 6.09035 18.1566 6.1166C18.1298 6.14285 18.0935 6.1576 18.0556 6.1576Z" fill="#6C63FF" /><path d="M16.8886 6.71078H7.20567C7.18688 6.71082 7.16827 6.70723 7.1509 6.70021C7.13353 6.69319 7.11775 6.68288 7.10445 6.66987C7.09115 6.65687 7.0806 6.64143 7.0734 6.62442C7.06621 6.60742 7.0625 6.58919 7.0625 6.57078C7.0625 6.55238 7.06621 6.53415 7.0734 6.51714C7.0806 6.50014 7.09115 6.4847 7.10445 6.47169C7.11775 6.45869 7.13353 6.44838 7.1509 6.44136C7.16827 6.43434 7.18688 6.43075 7.20567 6.43079H16.8886C16.9265 6.43086 16.9627 6.44564 16.9895 6.47189C17.0162 6.49814 17.0312 6.5337 17.0312 6.57078C17.0312 6.60787 17.0162 6.64343 16.9895 6.66968C16.9627 6.69593 16.9265 6.71071 16.8886 6.71078Z" fill="#6C63FF" /></svg>