<svg viewBox="0 0 52 28" fill="none" xmlns="http://www.w3.org/2000/svg"><g clip-path="url(#clip0_986_141)"><path d="M13.6341 8.77134C15.2789 8.77134 16.6122 7.47695 16.6122 5.88024C16.6122 4.28353 15.2789 2.98914 13.6341 2.98914C11.9894 2.98914 10.656 4.28353 10.656 5.88024C10.656 7.47695 11.9894 8.77134 13.6341 8.77134Z" fill="#FF6584" /><path d="M22.9732 14.7895H8.36343C8.34514 14.7897 8.32686 14.7883 8.30884 14.7853L15.2186 3.16637C15.2608 3.09401 15.322 3.03382 15.3959 2.99193C15.4699 2.95005 15.554 2.92798 15.6397 2.92798C15.7253 2.92798 15.8094 2.95005 15.8834 2.99193C15.9574 3.03382 16.0186 3.09401 16.0607 3.16637L20.6981 10.9636L20.9202 11.3367L22.9732 14.7895Z" fill="#3F3D56" /><path opacity="0.2" d="M22.9732 14.7895H17.9851L20.4338 11.3367L20.61 11.088L20.6981 10.9636L20.9203 11.3367L22.9732 14.7895Z" fill="black" /><path d="M31.1077 14.7895H18.4714L20.9201 11.3367L21.0963 11.088L24.2871 6.58824C24.4963 6.29334 24.9996 6.27497 25.2455 6.53262C25.262 6.5502 25.2774 6.56877 25.2915 6.58824L31.1077 14.7895Z" fill="#3F3D56" /><path d="M34.8171 12.8781C35.3127 12.8781 35.7145 12.488 35.7145 12.0069C35.7145 11.5257 35.3127 11.1357 34.8171 11.1357C34.3215 11.1357 33.9197 11.5257 33.9197 12.0069C33.9197 12.488 34.3215 12.8781 34.8171 12.8781Z" fill="#6C63FF" /><path d="M34.9035 14.631H34.7197L34.8035 11.8757L34.9035 14.631Z" fill="#3F3D56" /><path d="M34.8197 12.3979L35.0171 12.1328L34.817 12.4635L34.7954 12.4267L34.8197 12.3979Z" fill="#3F3D56" /><path d="M34.7982 12.6655L34.6008 12.4005L34.8009 12.7311L34.8225 12.6944L34.7982 12.6655Z" fill="#3F3D56" /><path d="M43.049 12.8781C43.5446 12.8781 43.9464 12.488 43.9464 12.0069C43.9464 11.5257 43.5446 11.1357 43.049 11.1357C42.5534 11.1357 42.1516 11.5257 42.1516 12.0069C42.1516 12.488 42.5534 12.8781 43.049 12.8781Z" fill="#6C63FF" /><path d="M43.1355 14.631H42.9517L43.0355 11.8757L43.1355 14.631Z" fill="#3F3D56" /><path d="M43.0517 12.3979L43.249 12.1328L43.049 12.4635L43.0273 12.4267L43.0517 12.3979Z" fill="#3F3D56" /><path d="M43.0301 12.6655L42.8328 12.4005L43.0328 12.7311L43.0544 12.6944L43.0301 12.6655Z" fill="#3F3D56" /><path d="M37.4167 12.0421C38.1487 12.0421 38.7421 11.466 38.7421 10.7554C38.7421 10.0448 38.1487 9.46875 37.4167 9.46875C36.6847 9.46875 36.0913 10.0448 36.0913 10.7554C36.0913 11.466 36.6847 12.0421 37.4167 12.0421Z" fill="#6C63FF" /><path d="M37.5444 14.631H37.2729L37.3967 10.5616L37.5444 14.631Z" fill="#3F3D56" /><path d="M37.4207 11.3329L37.7121 10.9415L37.4167 11.4298L37.3848 11.3755L37.4207 11.3329Z" fill="#3F3D56" /><path d="M37.3886 11.7282L37.0972 11.3368L37.3926 11.8251L37.4245 11.7708L37.3886 11.7282Z" fill="#3F3D56" /><path d="M40.6489 12.0421C41.3809 12.0421 41.9743 11.466 41.9743 10.7554C41.9743 10.0448 41.3809 9.46875 40.6489 9.46875C39.9169 9.46875 39.3235 10.0448 39.3235 10.7554C39.3235 11.466 39.9169 12.0421 40.6489 12.0421Z" fill="#6C63FF" /><path d="M40.7766 14.631H40.5051L40.6289 10.5616L40.7766 14.631Z" fill="#3F3D56" /><path d="M40.6528 11.3329L40.9443 10.9415L40.6489 11.4298L40.6169 11.3755L40.6528 11.3329Z" fill="#3F3D56" /><path d="M40.6208 11.7282L40.3293 11.3368L40.6248 11.8251L40.6567 11.7708L40.6208 11.7282Z" fill="#3F3D56" /><path d="M32.2653 12.0421C32.9973 12.0421 33.5907 11.466 33.5907 10.7554C33.5907 10.0448 32.9973 9.46875 32.2653 9.46875C31.5333 9.46875 30.9399 10.0448 30.9399 10.7554C30.9399 11.466 31.5333 12.0421 32.2653 12.0421Z" fill="#6C63FF" /><path d="M32.393 14.631H32.1216L32.2454 10.5616L32.393 14.631Z" fill="#3F3D56" /><path d="M32.2693 11.3329L32.5607 10.9415L32.2653 11.4298L32.2334 11.3755L32.2693 11.3329Z" fill="#3F3D56" /><path d="M32.2373 11.7282L31.9458 11.3368L32.2412 11.8251L32.2732 11.7708L32.2373 11.7282Z" fill="#3F3D56" /><path d="M47.946 28H4.69251C4.14755 28 3.60793 27.8958 3.10446 27.6934C2.60098 27.4909 2.14351 27.1942 1.75817 26.8201C1.37283 26.446 1.06715 26.0019 0.858608 25.5132C0.650062 25.0244 0.542725 24.5005 0.542725 23.9715C0.542725 23.4425 0.650062 22.9186 0.858608 22.4298C1.06715 21.9411 1.37283 21.497 1.75817 21.1229C2.14351 20.7488 2.60098 20.4521 3.10446 20.2496C3.60793 20.0472 4.14755 19.943 4.69251 19.943H47.8503C48.2736 19.943 48.6796 19.7797 48.9789 19.4891C49.2782 19.1986 49.4464 18.8045 49.4464 18.3935C49.4464 17.9826 49.2782 17.5885 48.9789 17.2979C48.6796 17.0073 48.2736 16.8441 47.8503 16.8441H3.25605V14.365H47.8503C48.9509 14.365 50.0064 14.7894 50.7846 15.5449C51.5629 16.3004 52.0001 17.3251 52.0001 18.3935C52.0001 19.462 51.5629 20.4866 50.7846 21.2421C50.0064 21.9976 48.9509 22.4221 47.8503 22.4221H4.69251C4.26921 22.4221 3.86324 22.5853 3.56392 22.8759C3.2646 23.1665 3.09644 23.5606 3.09644 23.9715C3.09644 24.3824 3.2646 24.7765 3.56392 25.0671C3.86324 25.3577 4.26921 25.5209 4.69251 25.5209H47.946V28Z" fill="#E6E6E6" /><path d="M6.83118 15.5425H4.85205V15.6665H6.83118V15.5425Z" fill="white" /><path d="M12.4493 15.5425H10.4702V15.6665H12.4493V15.5425Z" fill="white" /><path d="M18.0675 15.5425H16.0884V15.6665H18.0675V15.5425Z" fill="white" /><path d="M23.6857 15.5425H21.7065V15.6665H23.6857V15.5425Z" fill="white" /><path d="M29.3038 15.5425H27.3247V15.6665H29.3038V15.5425Z" fill="white" /><path d="M34.922 15.5425H32.9429V15.6665H34.922V15.5425Z" fill="white" /><path d="M40.5402 15.5425H38.561V15.6665H40.5402V15.5425Z" fill="white" /><path d="M46.1583 15.5425H44.1792V15.6665H46.1583V15.5425Z" fill="white" /><path d="M6.83118 21.1205H4.85205V21.2444H6.83118V21.1205Z" fill="white" /><path d="M12.4493 21.1205H10.4702V21.2444H12.4493V21.1205Z" fill="white" /><path d="M18.0675 21.1205H16.0884V21.2444H18.0675V21.1205Z" fill="white" /><path d="M23.6857 21.1205H21.7065V21.2444H23.6857V21.1205Z" fill="white" /><path d="M29.3038 21.1205H27.3247V21.2444H29.3038V21.1205Z" fill="white" /><path d="M34.922 21.1205H32.9429V21.2444H34.922V21.1205Z" fill="white" /><path d="M40.5402 21.1205H38.561V21.2444H40.5402V21.1205Z" fill="white" /><path d="M46.1583 21.1205H44.1792V21.2444H46.1583V21.1205Z" fill="white" /><path d="M6.83118 26.6985H4.85205V26.8224H6.83118V26.6985Z" fill="white" /><path d="M12.4493 26.6985H10.4702V26.8224H12.4493V26.6985Z" fill="white" /><path d="M18.0675 26.6985H16.0884V26.8224H18.0675V26.6985Z" fill="white" /><path d="M23.6857 26.6985H21.7065V26.8224H23.6857V26.6985Z" fill="white" /><path d="M29.3038 26.6985H27.3247V26.8224H29.3038V26.6985Z" fill="white" /><path d="M34.922 26.6985H32.9429V26.8224H34.922V26.6985Z" fill="white" /><path d="M40.5402 26.6985H38.561V26.8224H40.5402V26.6985Z" fill="white" /><path d="M46.1583 26.6985H44.1792V26.8224H46.1583V26.6985Z" fill="white" /><path d="M34.7233 4.91931C34.9313 4.91912 35.1358 4.97043 35.3176 5.06838H34.1306C34.3119 4.97046 34.5159 4.91915 34.7233 4.91931Z" fill="#E6E6E6" /><path d="M32.4201 4.7702C32.7674 4.76981 33.1063 4.87397 33.3901 5.06835H31.4514C31.7348 4.8742 32.0732 4.77005 32.4201 4.7702Z" fill="#E6E6E6" /><path d="M19.3727 2.88316C19.4148 2.1601 19.7201 1.47506 20.2341 0.950175C20.7481 0.425294 21.4375 0.0946932 22.1792 0.017315C22.921 -0.0600631 23.6669 0.120811 24.2841 0.52769C24.9012 0.934569 25.3495 1.541 25.5489 2.23887C25.587 2.23755 25.6251 2.23606 25.6636 2.23606C26.3437 2.23618 27.0055 2.45006 27.5499 2.84571C28.0943 3.24136 28.4922 3.79751 28.6839 4.43094C29.1346 4.23872 29.6382 4.19701 30.1159 4.31236C30.5936 4.42771 31.0183 4.69359 31.3237 5.06838H21.5044C21.2179 5.06917 20.9343 5.01383 20.6703 4.90568C20.4064 4.79753 20.1677 4.6388 19.9685 4.43898C19.7692 4.23917 19.6136 4.00238 19.5108 3.74279C19.4081 3.4832 19.3603 3.20615 19.3705 2.92824C19.3711 2.91323 19.3718 2.89821 19.3727 2.88316Z" fill="#E6E6E6" /><path d="M35.44 7.15051C35.232 7.15032 35.0275 7.20163 34.8457 7.29957H36.0327C35.8514 7.20166 35.6474 7.15035 35.44 7.15051Z" fill="#E6E6E6" /><path d="M37.7432 7.0014C37.3959 7.00101 37.057 7.10517 36.7732 7.29952H38.7119C38.4285 7.10539 38.0901 7.00125 37.7432 7.0014Z" fill="#E6E6E6" /><path d="M50.7906 5.11437C50.7485 4.3913 50.4432 3.70626 49.9292 3.18138C49.4152 2.6565 48.7258 2.32589 47.9841 2.24852C47.2423 2.17114 46.4964 2.35201 45.8792 2.75889C45.2621 3.16577 44.8138 3.77221 44.6144 4.47008C44.5763 4.46875 44.5382 4.46726 44.4997 4.46726C43.8196 4.46738 43.1578 4.68127 42.6134 5.07692C42.069 5.47257 41.6711 6.02871 41.4794 6.66215C41.0287 6.46993 40.5251 6.42822 40.0474 6.54357C39.5698 6.65892 39.145 6.9248 38.8396 7.29959H48.6589C48.9454 7.30037 49.229 7.24504 49.493 7.13689C49.7569 7.02874 49.9956 6.87001 50.1948 6.67019C50.3941 6.47037 50.5497 6.23358 50.6525 5.97399C50.7552 5.71441 50.803 5.43736 50.7928 5.15944C50.7922 5.14444 50.7915 5.12942 50.7906 5.11437Z" fill="#E6E6E6" /><path d="M44.2443 26.2675L45.3855 26.2681L45.3856 26.0923L44.2444 26.0917L44.2443 26.2675Z" fill="#3F3D56" /><path d="M35.9929 26.1314L36.2284 26.1842L45.1771 26.1889L45.2576 26.0069C45.398 25.6947 45.4461 25.3507 45.3967 25.0135C45.3582 24.7621 45.2616 24.5124 45.0423 24.4039L44.6451 21.8362L39.6943 21.8276L37.7788 23.3274C37.7788 23.3274 36.8752 23.3116 36.3843 23.9049C36.2073 24.1255 36.1027 24.3927 36.0843 24.6718L36.0649 24.9804L35.9929 26.1314Z" fill="#6C63FF" /><path d="M37.9585 27.1612C38.5688 27.1612 39.0635 26.6809 39.0635 26.0885C39.0635 25.496 38.5688 25.0157 37.9585 25.0157C37.3482 25.0157 36.8535 25.496 36.8535 26.0885C36.8535 26.6809 37.3482 27.1612 37.9585 27.1612Z" fill="#3F3D56" /><path d="M37.9583 26.653C38.2795 26.653 38.5399 26.4003 38.5399 26.0885C38.5399 25.7766 38.2795 25.5239 37.9583 25.5239C37.6371 25.5239 37.3767 25.7766 37.3767 26.0885C37.3767 26.4003 37.6371 26.653 37.9583 26.653Z" fill="#CCCCCC" /><path d="M43.4109 27.164C44.0212 27.164 44.5159 26.6837 44.5159 26.0913C44.5159 25.4988 44.0212 25.0186 43.4109 25.0186C42.8006 25.0186 42.3059 25.4988 42.3059 26.0913C42.3059 26.6837 42.8006 27.164 43.4109 27.164Z" fill="#3F3D56" /><path d="M43.4109 26.6559C43.7321 26.6559 43.9925 26.4031 43.9925 26.0913C43.9925 25.7794 43.7321 25.5267 43.4109 25.5267C43.0897 25.5267 42.8293 25.7794 42.8293 26.0913C42.8293 26.4031 43.0897 26.6559 43.4109 26.6559Z" fill="#CCCCCC" /><path d="M38.5398 23.1521L41.2129 23.1532H41.5392L42.0901 23.1536V23.1146L42.0905 22.6443L42.0909 22.1162H41.7243L41.398 22.1158L40.82 22.1154H40.4937L39.8264 22.1151L38.5398 23.1521Z" fill="white" /><path d="M42.5251 23.154L43.9379 23.1547L43.9382 22.8856V22.4153L43.9386 22.1173H43.7318L43.4055 22.1169L42.5256 22.1166L42.5251 23.154Z" fill="white" /><path d="M41.9084 24.2616L42.0896 24.2617L42.0898 23.9275L41.9086 23.9274L41.9084 24.2616Z" fill="#3F3D56" /><path d="M39.2641 23.6271L39.2642 23.4513L38.92 23.4511L38.9199 23.627L39.2641 23.6271Z" fill="#3F3D56" /><path d="M39.1372 23.5286L39.1173 23.5286C39.0676 23.5285 39.0183 23.519 38.9724 23.5005C38.9265 23.482 38.8848 23.4549 38.8496 23.4208C38.8145 23.3866 38.7866 23.3461 38.7676 23.3015C38.7486 23.2569 38.7388 23.2091 38.7389 23.1608C38.7389 23.1126 38.7487 23.0648 38.7678 23.0202C38.7868 22.9756 38.8147 22.9351 38.8499 22.901C38.8851 22.8669 38.9268 22.8398 38.9728 22.8214C39.0187 22.8029 39.068 22.7935 39.1177 22.7935L39.1376 22.7935L39.1372 23.5286Z" fill="#3F3D56" /><path d="M36.0649 24.9804C36.2019 24.9949 36.3398 24.962 36.4542 24.8874C36.5687 24.8129 36.6523 24.7016 36.6905 24.5731C36.7287 24.4445 36.7189 24.307 36.6629 24.1848C36.6069 24.0626 36.5083 23.9635 36.3844 23.9049C36.2073 24.1255 36.1027 24.3927 36.0843 24.6718L36.0649 24.9804Z" fill="#3F3D56" /><path d="M41.3979 22.1158L42.09 23.1146L42.0904 22.6443L41.7243 22.1162L41.3979 22.1158Z" fill="#F2F2F2" /><path d="M43.4053 22.1169L43.938 22.8856V22.4153L43.7316 22.1173L43.4053 22.1169Z" fill="#F2F2F2" /><path d="M40.4937 22.1155L41.2128 23.1532H41.5391L40.82 22.1155H40.4937Z" fill="#F2F2F2" /><path d="M2.93677 17.7117C4.55871 17.7117 5.87354 16.4353 5.87354 14.8608C5.87354 13.2862 4.55871 12.0098 2.93677 12.0098C1.31484 12.0098 0 13.2862 0 14.8608C0 16.4353 1.31484 17.7117 2.93677 17.7117Z" fill="#3F3D56" /><path d="M2.94905 15.7191L1.47939 14.2924C1.43158 14.2459 1.40475 14.1828 1.40479 14.1171C1.40482 14.0514 1.43173 13.9884 1.47959 13.942C1.52745 13.8955 1.59235 13.8694 1.66003 13.8693C1.72772 13.8693 1.79265 13.8954 1.84056 13.9418L2.92461 14.9941L6.38387 11.1646C6.42856 11.1153 6.49158 11.0852 6.5591 11.081C6.62663 11.0767 6.69313 11.0986 6.744 11.142C6.79488 11.1853 6.82596 11.2464 6.83044 11.312C6.83491 11.3775 6.81241 11.4421 6.76786 11.4915L2.94905 15.7191Z" fill="#6C63FF" /></g><defs><clipPath id="clip0_986_141"><rect width="52" height="28" fill="white" /></clipPath></defs></svg>