<svg viewBox="0 0 64 28" fill="none" xmlns="http://www.w3.org/2000/svg"><g clip-path="url(#clip0_986_2)"><path d="M31.2812 28.0001C48.5573 28.0001 62.5624 27.0427 62.5624 25.8617C62.5624 24.6807 48.5573 23.7233 31.2812 23.7233C14.0051 23.7233 0 24.6807 0 25.8617C0 27.0427 14.0051 28.0001 31.2812 28.0001Z" fill="#E6E6E6" /><path d="M55.7196 27.0592C50.619 26.1854 45.0413 26.3307 39.1904 27.0592C41.8572 24.8923 44.1587 22.7254 41.492 20.5585C46.6937 21.5914 47.4223 21.4869 53.2089 20.5585C51.8667 22.7254 54.3775 24.8923 55.7196 27.0592Z" fill="#6C63FF" /><path opacity="0.2" d="M55.7196 27.0592C50.619 26.1854 45.0413 26.3307 39.1904 27.0592C41.8572 24.8923 44.1587 22.7254 41.492 20.5585C46.6937 21.5914 47.4223 21.4869 53.2089 20.5585C51.8667 22.7254 54.3775 24.8923 55.7196 27.0592Z" fill="black" /><path d="M54.4756 26.1347C50.1428 25.4372 45.4047 25.5532 40.4346 26.1347C42.6999 24.4051 44.6549 22.6754 42.3896 20.9457C46.8084 21.7702 47.4273 21.6868 52.3428 20.9457C51.2026 22.6754 53.3355 24.4051 54.4756 26.1347Z" fill="#6C63FF" /><path d="M52.8252 23.3477C54.1002 23.3477 55.1339 22.3529 55.1339 21.1257C55.1339 19.8985 54.1002 18.9036 52.8252 18.9036C51.5502 18.9036 50.5166 19.8985 50.5166 21.1257C50.5166 22.3529 51.5502 23.3477 52.8252 23.3477Z" fill="#2F2E41" /><path d="M42.3452 18.5484L43.9448 18.805L44.7446 21.0289L42.4341 22.3975L39.7681 18.5484H42.2564H42.3452Z" fill="#FFB8B8" /><path d="M46.8772 21.9698C48.9386 21.9698 50.6096 20.3614 50.6096 18.3774C50.6096 16.3934 48.9386 14.785 46.8772 14.785C44.8158 14.785 43.1448 16.3934 43.1448 18.3774C43.1448 20.3614 44.8158 21.9698 46.8772 21.9698Z" fill="#FFB8B8" /><path d="M26.2604 5.29059C26.2604 5.29059 17.1959 6.23147 15.5963 6.0604C13.9967 5.88933 13.2858 5.71826 13.2858 5.71826C13.2858 5.71826 12.2194 7.08682 12.7526 7.68556C13.0512 8.03058 13.4125 8.32042 13.819 8.54091C13.819 8.54091 14.7965 8.2843 15.5075 8.54091C16.2184 8.79751 23.4166 9.90946 24.6608 8.88305C25.9049 7.85663 26.2604 5.29059 26.2604 5.29059Z" fill="#2F2E41" /><path d="M26.882 24.3647C26.882 24.3647 20.9279 22.7396 19.8615 15.5547V14.8704C19.8615 14.8704 18.6835 16.8596 18.2619 17.2654C17.7732 17.7358 16.0403 21.9697 16.1291 22.3974C16.218 22.8251 16.1291 22.9962 16.1291 22.9962L13.552 22.7396V21.9697C13.552 21.9697 14.9294 17.9924 15.0183 17.0515C15.1072 16.1107 18.4397 9.56728 18.4397 9.56728C18.4397 9.56728 19.6838 7.08679 21.8166 9.56728C23.9494 12.0478 24.1272 13.7585 24.1272 13.7585L26.882 18.8905L26.882 24.3647Z" fill="#2F2E41" /><path d="M13.5523 5.46166L10.7086 4.52078C10.7086 4.52078 8.04258 2.63903 8.66465 4.52078C9.28672 6.40254 12.1305 10.5082 12.9303 10.0805C13.7301 9.65284 14.692 8.59128 14.4776 8.43779C14.2633 8.28429 12.8414 7.17235 13.5523 5.46166Z" fill="#2F2E41" /><path d="M13.8959 21.4648L11.6003 22.5439C11.6003 22.5439 8.82419 22.955 10.3724 23.7257C11.9206 24.4965 16.1915 25.3186 16.405 24.5992C16.6186 23.8799 16.5339 22.686 16.3093 22.7177C16.0847 22.7494 14.5365 22.9036 13.8959 21.4648Z" fill="#2F2E41" /><path d="M25.7271 18.7195C25.7271 18.7195 24.5719 23.5095 26.5269 24.5359C28.482 25.5623 42.1675 25.7334 43.2339 23.8516C44.3004 21.9699 43.7672 21.9699 43.7672 21.9699L40.9234 18.8906L43.2339 18.7195C43.2339 18.7195 43.2339 18.0353 42.4341 17.9497C41.6343 17.8642 39.1461 17.0088 37.0133 17.6076C34.8804 18.2063 33.6363 16.4101 33.6363 16.4101L25.7271 18.7195Z" fill="#575A89" /><path d="M24.2164 3.75097L22.7056 11.7057L33.1031 10.5082L34.9693 3.3233L24.2164 3.75097Z" fill="#3F3D56" /><path d="M24.5273 4.05035L23.2832 11.1497L32.7475 10.0806L34.5692 3.62268L24.5273 4.05035Z" fill="white" /><path d="M23.061 11.7911L22.7055 11.7056L22.5278 12.0477L25.3716 19.6604L25.639 19.562L25.727 19.0617L23.061 11.7911Z" fill="#B3B3B3" /><path d="M22.7056 11.6201L25.5493 19.5748L36.3022 18.0352L33.1031 10.5082L22.7056 11.6201Z" fill="#D0CDE1" /><path d="M24.1274 11.3635V11.7912L32.0366 10.9358L31.9477 10.5082L24.1274 11.3635Z" fill="#3F3D56" /><path d="M24.3049 12.2189L25.5491 15.5547L33.636 14.6138L32.2141 11.449L24.3049 12.2189Z" fill="#3F3D56" /><path d="M34.4359 16.9233L34.1693 16.239C34.1693 16.239 32.1254 12.8176 31.059 13.5019C29.9926 14.1862 33.2806 17.522 33.2806 17.522H34.347L34.4359 16.9233Z" fill="#FFB8B8" /><path d="M27.682 17.4365L27.4154 16.4101C27.4154 16.4101 26.7044 13.2454 27.9486 13.4164C29.1927 13.5875 29.5482 16.5812 29.5482 16.5812L29.4593 17.2655L27.682 17.4365Z" fill="#FFB8B8" /><path d="M29.815 17.0088C29.815 17.0088 27.5045 16.6667 27.4156 17.1799C27.3268 17.6931 26.8824 25.3912 29.1041 25.6478C31.3258 25.9044 42.3452 27.0163 41.1899 24.3648C40.0347 21.7132 38.2573 22.0553 38.2573 22.0553L30.7037 22.8251L29.815 17.0088Z" fill="#575A89" /><path d="M36.7908 17.9925L34.4358 16.4101L32.8806 17.5648L34.8357 19.6176L36.7908 17.9925Z" fill="#575A89" /><path opacity="0.2" d="M30.4814 19.5321L30.8368 22.7824L36.9687 22.4403L31.6366 22.3548L30.4814 19.5321Z" fill="black" /><path d="M48.72 23.3069C51.174 23.3069 53.1633 21.3921 53.1633 19.0301C53.1633 16.6682 51.174 14.7534 48.72 14.7534C46.266 14.7534 44.2766 16.6682 44.2766 19.0301C44.2766 21.3921 46.266 23.3069 48.72 23.3069Z" fill="#2F2E41" /><path d="M25.8604 6.53081L31.3701 6.3462L31.9033 4.39252L26.2158 4.55771L25.8604 6.53081Z" fill="#6C63FF" /><path d="M24.4385 7.64279L32.7919 7.38616L32.8808 7.04401L24.5273 7.3271L24.4385 7.64279Z" fill="#E6E6E6" /><path d="M24.261 8.49813L32.6146 8.2415L32.7034 7.89935L24.3498 8.18244L24.261 8.49813Z" fill="#E6E6E6" /><path d="M24.1719 9.18239L32.5254 8.92583L32.6143 8.58368L24.2607 8.86669L24.1719 9.18239Z" fill="#E6E6E6" /></g><defs><clipPath id="clip0_986_2"><rect width="64" height="28" fill="white" /></clipPath></defs></svg>