<svg viewBox="0 0 640 232" fill="none" xmlns="http://www.w3.org/2000/svg"><path d="M95.2679 80.3466C90.9588 80.3466 86.7464 79.0656 83.1634 76.6657C79.5805 74.2657 76.788 70.8546 75.139 66.8636C73.4899 62.8726 73.0584 58.4811 73.8991 54.2443C74.7398 50.0075 76.8148 46.1158 79.8618 43.0612C82.9089 40.0067 86.791 37.9265 91.0173 37.0837C95.2437 36.241 99.6244 36.6735 103.606 38.3266C107.587 39.9797 110.989 42.7792 113.383 46.371C115.777 49.9627 117.055 54.1855 117.055 58.5053V58.5053C117.049 64.296 114.751 69.8476 110.667 73.9423C106.582 78.0369 101.044 80.3401 95.2679 80.3466V80.3466ZM95.2679 39.5762C91.5333 39.5762 87.8826 40.6864 84.7774 42.7664C81.6722 44.8463 79.252 47.8026 77.8228 51.2615C76.3936 54.7203 76.0197 58.5263 76.7483 62.1982C77.4769 65.8701 79.2752 69.2429 81.916 71.8902C84.5567 74.5375 87.9213 76.3403 91.5841 77.0707C95.2469 77.8011 99.0435 77.4262 102.494 75.9935C105.944 74.5608 108.893 72.1347 110.968 69.0218C113.043 65.9089 114.15 62.2492 114.15 58.5053V58.5053C114.145 53.4868 112.153 48.6754 108.614 45.1267C105.074 41.5781 100.274 39.5819 95.2679 39.5762Z" fill="#CCCCCC"/><path d="M94.7847 53.5482H94.7443L92.445 54.7924L92.0996 53.4259L94.9883 51.876H96.5145V65.1342H94.7847V53.5482Z" fill="#CCCCCC"/><path d="M65.5245 115.606C66.0375 115.624 66.5441 115.487 66.9781 115.212C67.4122 114.937 67.7538 114.538 67.9585 114.066C68.1631 113.594 68.2213 113.071 68.1255 112.566C68.0297 112.06 67.7844 111.595 67.4214 111.231C67.0584 110.867 66.5946 110.622 66.0902 110.525C65.5859 110.429 65.0644 110.488 64.5936 110.693C64.1228 110.898 63.7245 111.241 63.4505 111.676C63.1764 112.111 63.0394 112.619 63.0572 113.133C63.0796 113.782 63.3468 114.398 63.8047 114.857C64.2626 115.316 64.8773 115.584 65.5245 115.606Z" fill="#C4C4C4"/><path d="M65.5245 131.623C66.0375 131.641 66.5441 131.503 66.9781 131.229C67.4122 130.954 67.7538 130.555 67.9585 130.083C68.1631 129.611 68.2213 129.088 68.1255 128.582C68.0297 128.077 67.7844 127.612 67.4214 127.248C67.0584 126.884 66.5946 126.638 66.0902 126.542C65.5859 126.446 65.0644 126.504 64.5936 126.71C64.1228 126.915 63.7245 127.257 63.4505 127.692C63.1764 128.127 63.0394 128.635 63.0572 129.15C63.0796 129.798 63.3468 130.414 63.8047 130.874C64.2626 131.333 64.8773 131.6 65.5245 131.623V131.623Z" fill="#C4C4C4"/><path d="M65.5245 147.64C66.0375 147.658 66.5441 147.521 66.9781 147.246C67.4122 146.972 67.7538 146.572 67.9585 146.1C68.1631 145.628 68.2213 145.106 68.1255 144.6C68.0297 144.094 67.7844 143.629 67.4214 143.266C67.0584 142.902 66.5946 142.656 66.0902 142.56C65.5859 142.464 65.0644 142.522 64.5936 142.727C64.1228 142.932 63.7245 143.275 63.4505 143.71C63.1764 144.145 63.0394 144.653 63.0572 145.167C63.0796 145.816 63.3468 146.432 63.8047 146.891C64.2626 147.35 64.8773 147.618 65.5245 147.64Z" fill="#C4C4C4"/><path d="M126.026 114.499H79.5462C79.161 114.499 78.7916 114.346 78.5192 114.073C78.2468 113.8 78.0938 113.429 78.0938 113.043C78.0938 112.657 78.2468 112.286 78.5192 112.013C78.7916 111.74 79.161 111.587 79.5462 111.587H126.026C126.411 111.587 126.781 111.74 127.053 112.013C127.326 112.286 127.479 112.657 127.479 113.043C127.479 113.429 127.326 113.8 127.053 114.073C126.781 114.346 126.411 114.499 126.026 114.499H126.026Z" fill="#C4C4C4"/><path d="M126.026 130.517H79.5463C79.1611 130.517 78.7915 130.364 78.5188 130.091C78.2461 129.818 78.0927 129.448 78.0923 129.062C78.0919 128.676 78.2445 128.305 78.5166 128.032C78.7887 127.759 79.158 127.605 79.5433 127.604H126.026C126.411 127.604 126.781 127.757 127.054 128.03C127.326 128.303 127.48 128.673 127.48 129.059C127.481 129.445 127.328 129.816 127.056 130.089C126.784 130.362 126.414 130.516 126.029 130.517H126.026Z" fill="#C4C4C4"/><path d="M126.026 146.533H79.5462C79.161 146.533 78.7916 146.38 78.5192 146.107C78.2468 145.834 78.0938 145.463 78.0938 145.077C78.0938 144.691 78.2468 144.321 78.5192 144.048C78.7916 143.774 79.161 143.621 79.5462 143.621H126.026C126.217 143.621 126.406 143.658 126.582 143.731C126.758 143.804 126.919 143.911 127.054 144.046C127.189 144.182 127.296 144.342 127.369 144.519C127.442 144.695 127.48 144.884 127.48 145.076C127.48 145.267 127.443 145.456 127.37 145.633C127.297 145.81 127.19 145.97 127.056 146.106C126.921 146.241 126.761 146.348 126.585 146.422C126.409 146.495 126.22 146.533 126.029 146.533H126.026Z" fill="#C4C4C4"/><path d="M230.22 77.3544C225.911 77.3544 221.699 76.0734 218.116 73.6734C214.533 71.2735 211.741 67.8624 210.092 63.8714C208.443 59.8804 208.011 55.4889 208.852 51.2521C209.692 47.0153 211.767 43.1236 214.814 40.069C217.861 37.0145 221.744 34.9343 225.97 34.0916C230.196 33.2488 234.577 33.6813 238.558 35.3344C242.539 36.9876 245.942 39.787 248.336 43.3788C250.73 46.9706 252.008 51.1933 252.008 55.5131C252.008 58.3814 251.444 61.2215 250.349 63.8714C249.255 66.5213 247.65 68.9291 245.627 70.9573C243.603 72.9854 241.202 74.5942 238.558 75.6918C235.915 76.7895 233.082 77.3544 230.22 77.3544V77.3544ZM230.22 36.5841C226.486 36.584 222.835 37.6942 219.73 39.7742C216.625 41.8541 214.205 44.8104 212.775 48.2693C211.346 51.7281 210.972 55.5341 211.701 59.206C212.429 62.8779 214.228 66.2507 216.868 68.898C219.509 71.5453 222.874 73.3482 226.537 74.0785C230.199 74.8089 233.996 74.4341 237.446 73.0014C240.897 71.5687 243.846 69.1425 245.921 66.0296C247.995 62.9168 249.103 59.257 249.103 55.5132V55.5131C249.097 50.4946 247.106 45.6833 243.566 42.1347C240.026 38.586 235.227 36.5899 230.22 36.584V36.5841Z" fill="#CCCCCC"/><path d="M226.367 62.2545V61.1525L227.77 59.786C231.148 56.5638 232.675 54.8489 232.694 52.8511C232.731 52.4985 232.687 52.1423 232.567 51.8089C232.448 51.4754 232.255 51.1731 232.003 50.9245C231.751 50.6759 231.446 50.4872 231.112 50.3725C230.777 50.2578 230.421 50.2199 230.07 50.2617C229.033 50.3 228.041 50.6957 227.262 51.3822L226.692 50.1181C227.743 49.2413 229.069 48.7644 230.436 48.7715C230.962 48.7246 231.492 48.7905 231.991 48.9649C232.49 49.1392 232.946 49.418 233.329 49.7826C233.712 50.1473 234.013 50.5894 234.212 51.0798C234.411 51.5701 234.504 52.0973 234.485 52.6264C234.485 55.0736 232.714 57.053 229.927 59.7447L228.869 60.7245V60.7643H234.811V62.2545H226.367Z" fill="#CCCCCC"/><path d="M287.905 194.23H172.536C170.163 194.228 167.888 193.281 166.21 191.599C164.532 189.917 163.588 187.636 163.585 185.257V116.463C163.588 114.084 164.532 111.804 166.21 110.121C167.888 108.439 170.163 107.493 172.536 107.49H287.905C290.278 107.493 292.553 108.439 294.231 110.121C295.909 111.804 296.853 114.084 296.856 116.463V185.257C296.853 187.636 295.909 189.917 294.231 191.599C292.553 193.281 290.278 194.228 287.905 194.23V194.23Z" fill="white"/><path d="M269.438 126.107H191.003C190.618 126.108 190.249 125.955 189.976 125.682C189.703 125.409 189.55 125.039 189.549 124.653C189.549 124.267 189.702 123.896 189.974 123.623C190.246 123.35 190.615 123.196 191 123.195H269.438C269.823 123.195 270.193 123.348 270.465 123.621C270.738 123.893 270.892 124.264 270.892 124.65C270.892 125.036 270.74 125.407 270.468 125.68C270.196 125.953 269.826 126.107 269.441 126.107H269.438Z" fill="#C4C4C4"/><path d="M269.438 139.212H191.003C190.618 139.212 190.249 139.059 189.976 138.787C189.703 138.514 189.55 138.144 189.549 137.757C189.549 137.371 189.702 137.001 189.974 136.727C190.246 136.454 190.615 136.3 191 136.3H269.438C269.823 136.3 270.193 136.453 270.465 136.726C270.738 136.999 270.891 137.37 270.891 137.756C270.891 138.142 270.738 138.512 270.465 138.786C270.193 139.059 269.823 139.212 269.438 139.212H269.438Z" fill="#C4C4C4"/><path d="M269.438 152.317H191.003C190.618 152.318 190.249 152.165 189.976 151.892C189.703 151.619 189.55 151.249 189.549 150.863C189.549 150.477 189.702 150.106 189.974 149.833C190.246 149.559 190.615 149.406 191 149.405H269.438C269.823 149.405 270.193 149.558 270.465 149.831C270.738 150.103 270.892 150.474 270.892 150.86C270.892 151.246 270.74 151.617 270.468 151.89C270.196 152.163 269.826 152.317 269.441 152.317H269.438Z" fill="#C4C4C4"/><path d="M269.438 165.422H191.003C190.619 165.421 190.25 165.268 189.978 164.995C189.706 164.723 189.553 164.353 189.553 163.967C189.552 163.582 189.704 163.212 189.976 162.939C190.247 162.665 190.616 162.511 191 162.51H269.438C269.822 162.511 270.191 162.665 270.463 162.938C270.734 163.211 270.887 163.58 270.887 163.966C270.887 164.351 270.734 164.721 270.463 164.994C270.191 165.267 269.822 165.421 269.438 165.422H269.438Z" fill="#C4C4C4"/><path d="M269.438 178.526H191.003C190.618 178.526 190.249 178.373 189.976 178.1C189.704 177.827 189.551 177.457 189.551 177.07C189.551 176.684 189.704 176.314 189.976 176.041C190.249 175.768 190.618 175.614 191.003 175.614H269.438C269.823 175.614 270.193 175.767 270.465 176.04C270.738 176.312 270.892 176.683 270.892 177.069C270.892 177.455 270.74 177.825 270.468 178.099C270.196 178.372 269.826 178.526 269.441 178.526H269.438Z" fill="#C4C4C4"/><path d="M287.905 194.23H172.536C170.163 194.228 167.888 193.281 166.21 191.599C164.532 189.917 163.588 187.636 163.585 185.257V116.463C163.588 114.084 164.532 111.804 166.21 110.121C167.888 108.439 170.163 107.493 172.536 107.49H287.905C290.278 107.493 292.553 108.439 294.231 110.121C295.909 111.804 296.853 114.084 296.856 116.463V185.257C296.853 187.636 295.909 189.917 294.231 191.599C292.553 193.281 290.278 194.228 287.905 194.23V194.23ZM172.536 109.484C170.691 109.486 168.921 110.222 167.616 111.531C166.311 112.839 165.577 114.613 165.575 116.463V185.257C165.577 187.107 166.311 188.881 167.616 190.19C168.921 191.498 170.691 192.234 172.536 192.236H287.905C289.75 192.234 291.52 191.498 292.825 190.19C294.13 188.881 294.865 187.107 294.867 185.257V116.463C294.865 114.613 294.13 112.839 292.825 111.531C291.52 110.222 289.75 109.486 287.905 109.484H172.536Z" fill="#C4C4C4"/><path d="M376.193 77.3544C371.884 77.3544 367.671 76.0734 364.088 73.6734C360.505 71.2735 357.713 67.8624 356.064 63.8714C354.415 59.8804 353.983 55.4889 354.824 51.2521C355.665 47.0153 357.74 43.1236 360.787 40.069C363.834 37.0145 367.716 34.9343 371.942 34.0916C376.169 33.2488 380.549 33.6813 384.53 35.3344C388.512 36.9876 391.914 39.787 394.308 43.3788C396.702 46.9706 397.98 51.1933 397.98 55.5131C397.98 61.3058 395.685 66.8612 391.599 70.9573C387.513 75.0533 381.971 77.3544 376.193 77.3544V77.3544ZM376.193 36.5841C372.458 36.584 368.807 37.6942 365.702 39.7742C362.597 41.8541 360.177 44.8104 358.748 48.2693C357.318 51.7281 356.944 55.5341 357.673 59.206C358.402 62.8779 360.2 66.2507 362.841 68.898C365.481 71.5453 368.846 73.3482 372.509 74.0785C376.172 74.8089 379.968 74.4341 383.419 73.0014C386.869 71.5687 389.818 69.1425 391.893 66.0296C393.968 62.9168 395.075 59.257 395.075 55.5132V55.5131C395.069 50.4946 393.078 45.6833 389.538 42.1347C385.998 38.586 381.199 36.5899 376.193 36.584V36.5841Z" fill="#CCCCCC"/><path d="M372.551 60.0828C373.439 60.6095 374.448 60.8975 375.48 60.9189C377.781 60.9189 378.493 59.45 378.471 58.3494C378.452 56.4923 376.782 55.6975 375.054 55.6975H374.056V54.3509H375.054C376.357 54.3509 378.005 53.6783 378.005 52.107C378.005 51.0462 377.333 50.1078 375.684 50.1078C374.736 50.1345 373.817 50.4401 373.04 50.9865L372.572 49.6812C373.601 49.0092 374.803 48.6542 376.03 48.6602C378.635 48.6602 379.815 50.2101 379.815 51.8226C379.801 52.5381 379.555 53.2296 379.115 53.7925C378.674 54.3554 378.062 54.7591 377.372 54.9424V54.9837C378.19 55.1023 378.937 55.5115 379.479 56.1366C380.021 56.7618 380.32 57.5613 380.323 58.3893C380.323 60.5108 378.674 62.3679 375.501 62.3679C374.295 62.3835 373.108 62.0731 372.063 61.4692L372.551 60.0828Z" fill="#CCCCCC"/><path d="M344 175.016C344.513 175.033 345.019 174.896 345.453 174.621C345.887 174.347 346.229 173.947 346.434 173.475C346.638 173.003 346.696 172.481 346.601 171.975C346.505 171.469 346.259 171.004 345.897 170.641C345.534 170.277 345.07 170.031 344.565 169.935C344.061 169.839 343.54 169.897 343.069 170.102C342.598 170.307 342.2 170.65 341.926 171.085C341.652 171.52 341.515 172.028 341.532 172.542C341.555 173.191 341.822 173.807 342.28 174.266C342.738 174.725 343.352 174.993 344 175.016V175.016Z" fill="#C4C4C4"/><path d="M404.501 173.909H358.021C357.636 173.909 357.267 173.756 356.994 173.483C356.722 173.21 356.569 172.839 356.569 172.453C356.569 172.067 356.722 171.697 356.994 171.424C357.267 171.15 357.636 170.997 358.021 170.997H404.501C404.692 170.997 404.881 171.034 405.057 171.107C405.233 171.18 405.394 171.287 405.529 171.422C405.664 171.558 405.771 171.718 405.844 171.895C405.917 172.071 405.955 172.26 405.955 172.452C405.955 172.643 405.918 172.832 405.845 173.009C405.772 173.186 405.666 173.346 405.531 173.482C405.396 173.617 405.236 173.724 405.06 173.798C404.884 173.871 404.695 173.909 404.504 173.909H404.501Z" fill="#C4C4C4"/><path d="M416.969 154.35H335.416C333.57 154.348 331.801 153.612 330.495 152.303C329.19 150.995 328.456 149.221 328.454 147.371V114.469C328.456 112.619 329.19 110.845 330.495 109.537C331.801 108.228 333.57 107.492 335.416 107.49H416.969C418.815 107.492 420.585 108.228 421.89 109.537C423.195 110.845 423.929 112.619 423.931 114.469V147.371C423.929 149.221 423.195 150.995 421.89 152.303C420.585 153.612 418.815 154.348 416.969 154.35V154.35ZM335.416 109.484C334.098 109.486 332.834 110.011 331.901 110.946C330.969 111.881 330.445 113.148 330.443 114.469V147.371C330.445 148.692 330.969 149.959 331.901 150.894C332.834 151.829 334.098 152.354 335.416 152.356H416.969C418.288 152.354 419.552 151.829 420.484 150.894C421.416 149.959 421.941 148.692 421.942 147.371V114.469C421.941 113.148 421.416 111.881 420.484 110.946C419.552 110.011 418.288 109.486 416.969 109.484H335.416Z" fill="#C4C4C4"/><path d="M421.074 109.651L330.624 150.52L331.441 152.337L421.892 111.469L421.074 109.651Z" fill="#C4C4C4"/><path d="M331.82 109.143L330.99 110.955L420.94 152.331L421.769 150.519L331.82 109.143Z" fill="#C4C4C4"/><path d="M483.975 132.266C483.92 132.15 483.848 132.042 483.763 131.946V131.946L472.87 121.025C472.735 120.89 472.575 120.782 472.399 120.709C472.222 120.636 472.033 120.598 471.842 120.598C471.652 120.598 471.462 120.635 471.286 120.708C471.11 120.781 470.949 120.889 470.814 121.024C470.679 121.159 470.572 121.32 470.499 121.497C470.426 121.674 470.389 121.863 470.389 122.055C470.389 122.246 470.427 122.435 470.5 122.612C470.573 122.789 470.681 122.949 470.816 123.084L479.23 131.519H442.067C441.682 131.519 441.312 131.673 441.04 131.946C440.767 132.219 440.614 132.589 440.614 132.976C440.614 133.362 440.767 133.732 441.04 134.005C441.312 134.278 441.682 134.432 442.067 134.432H479.23L471.542 142.139C471.407 142.274 471.299 142.434 471.226 142.611C471.152 142.788 471.115 142.977 471.114 143.169C471.114 143.36 471.152 143.55 471.225 143.727C471.298 143.904 471.405 144.065 471.54 144.2C471.675 144.335 471.835 144.443 472.012 144.516C472.188 144.589 472.377 144.627 472.568 144.626C472.759 144.626 472.948 144.588 473.125 144.515C473.301 144.441 473.461 144.333 473.596 144.198L483.762 134.006L483.764 134.005C483.985 133.779 484.126 133.486 484.165 133.172C484.203 132.857 484.136 132.539 483.975 132.266V132.266Z" fill="#CCCCCC"/><path d="M576.734 103.646H576.053V84.9523C576.053 83.5315 575.774 82.1245 575.231 80.8119C574.689 79.4992 573.894 78.3065 572.892 77.3018C571.89 76.2971 570.7 75.5002 569.39 74.9564C568.081 74.4127 566.677 74.1328 565.26 74.1328H525.752C524.335 74.1328 522.932 74.4127 521.622 74.9564C520.313 75.5001 519.123 76.2971 518.121 77.3017C517.118 78.3064 516.323 79.4991 515.781 80.8118C515.239 82.1245 514.959 83.5314 514.959 84.9522V187.508C514.959 190.377 516.097 193.129 518.121 195.158C520.145 197.188 522.89 198.327 525.752 198.327H565.26C566.677 198.327 568.081 198.048 569.39 197.504C570.7 196.96 571.889 196.163 572.892 195.159C573.894 194.154 574.689 192.961 575.231 191.648C575.774 190.336 576.053 188.929 576.053 187.508V116.953H576.734V103.646Z" fill="#3F3D56"/><path d="M573.755 85.0285V187.433C573.755 189.576 572.906 191.632 571.395 193.147C569.883 194.662 567.833 195.514 565.695 195.514H525.998C523.86 195.514 521.81 194.662 520.298 193.147C518.787 191.632 517.938 189.576 517.938 187.433V85.0285C517.938 82.8855 518.787 80.8303 520.298 79.3149C521.81 77.7996 523.86 76.9483 525.998 76.9482H530.814C530.577 77.5312 530.487 78.1635 530.551 78.7895C530.616 79.4156 530.832 80.0162 531.183 80.5385C531.533 81.0608 532.006 81.4889 532.56 81.785C533.114 82.0811 533.732 82.2362 534.359 82.2367H556.993C557.621 82.2362 558.239 82.0811 558.793 81.785C559.347 81.4889 559.82 81.0608 560.17 80.5385C560.52 80.0161 560.737 79.4155 560.801 78.7895C560.866 78.1635 560.776 77.5312 560.539 76.9482H565.695C567.833 76.9483 569.883 77.7996 571.395 79.3149C572.906 80.8303 573.755 82.8855 573.755 85.0285V85.0285Z" fill="white"/><path d="M53.4599 203.338C53.0479 202.816 52.7603 202.206 52.6188 201.555C52.4774 200.905 52.4859 200.23 52.6437 199.583C56.4142 183.752 56.4141 167.253 52.6434 151.422C52.4857 150.775 52.4773 150.1 52.6188 149.45C52.7603 148.799 53.048 148.189 53.4599 147.667C53.8631 147.152 54.3781 146.736 54.9659 146.45C55.5536 146.165 56.1986 146.017 56.8517 146.02H97.1582C98.1882 146.021 99.184 146.39 99.9684 147.059C100.753 147.728 101.275 148.655 101.441 149.674C104.071 166.792 104.071 184.213 101.441 201.332C101.275 202.35 100.753 203.277 99.9684 203.946C99.184 204.615 98.1882 204.984 97.1582 204.985H56.8517C56.1986 204.988 55.5536 204.84 54.9658 204.555C54.3781 204.269 53.863 203.853 53.4599 203.338Z" fill="#2C3E50"/><path d="M89.3798 167.776H68.1467C67.3557 167.775 66.5973 167.459 66.0379 166.899C65.4786 166.338 65.1639 165.578 65.1631 164.785V163.514C65.1639 162.721 65.4786 161.961 66.0379 161.4C66.5973 160.84 67.3557 160.524 68.1467 160.523H89.3798C90.1709 160.524 90.9293 160.84 91.4886 161.4C92.048 161.961 92.3626 162.721 92.3635 163.514V164.785C92.3626 165.578 92.048 166.338 91.4886 166.899C90.9293 167.459 90.1709 167.775 89.3798 167.776Z" fill="white"/><path d="M89.3798 180.285H68.1467C67.3557 180.285 66.5973 179.969 66.0379 179.408C65.4786 178.848 65.1639 178.087 65.1631 177.294V176.024C65.1639 175.231 65.4786 174.471 66.0379 173.91C66.5973 173.349 67.3557 173.034 68.1467 173.033H89.3798C90.1709 173.034 90.9293 173.349 91.4886 173.91C92.048 174.471 92.3626 175.231 92.3635 176.024V177.294C92.3626 178.087 92.048 178.848 91.4886 179.408C90.9293 179.969 90.1709 180.285 89.3798 180.285V180.285Z" fill="white"/><path d="M426.245 221.265C423.658 204.423 423.658 187.283 426.245 170.442C426.409 169.439 426.923 168.528 427.694 167.869C428.466 167.211 429.446 166.849 430.459 166.847H470.114C470.757 166.845 471.392 166.99 471.97 167.271C472.548 167.552 473.055 167.961 473.451 168.468C473.857 168.982 474.14 169.582 474.279 170.222C474.418 170.862 474.409 171.525 474.254 172.162C470.545 187.737 470.545 203.969 474.254 219.545C474.409 220.181 474.418 220.844 474.279 221.484C474.14 222.125 473.857 222.724 473.451 223.238C473.055 223.745 472.548 224.155 471.97 224.436C471.392 224.717 470.757 224.862 470.114 224.86H430.459C429.446 224.858 428.466 224.495 427.694 223.837C426.923 223.179 426.409 222.267 426.245 221.265V221.265Z" fill="#2C3E50"/><path d="M458.635 192.68H437.825C437.034 192.679 436.276 192.364 435.717 191.803C435.157 191.242 434.843 190.482 434.842 189.689V188.52C434.843 187.727 435.157 186.967 435.717 186.406C436.276 185.846 437.034 185.53 437.825 185.529H458.635C459.426 185.53 460.185 185.846 460.744 186.406C461.303 186.967 461.618 187.727 461.619 188.52V189.689C461.618 190.482 461.303 191.242 460.744 191.803C460.185 192.364 459.426 192.679 458.635 192.68Z" fill="white"/></svg>