<svg viewBox="0 0 412 343" fill="none" xmlns="http://www.w3.org/2000/svg"><g clip-path="url(#clip0_984_4)"><rect x="-54" y="288.411" width="480" height="72" transform="rotate(-45 -54 288.411)" fill="#FFD500" /><rect x="-47.9275" y="178.202" width="308.001" height="56" transform="rotate(-45 -47.9275 178.202)" fill="#FFD500" /><path d="M354.592 295.509C354.592 295.599 354.575 295.688 354.541 295.771C354.506 295.854 354.456 295.929 354.393 295.993C354.329 296.056 354.254 296.107 354.171 296.141C354.088 296.175 353.999 296.192 353.909 296.192H96.5545C96.3733 296.192 96.1995 296.12 96.0714 295.992C95.9433 295.864 95.8713 295.69 95.8713 295.509C95.8713 295.328 95.9433 295.154 96.0714 295.026C96.1995 294.898 96.3733 294.826 96.5545 294.826H353.909C353.999 294.826 354.088 294.843 354.171 294.877C354.254 294.912 354.329 294.962 354.392 295.025C354.456 295.089 354.506 295.164 354.541 295.247C354.575 295.33 354.592 295.419 354.592 295.509Z" fill="#CCCCCC" /><path d="M213.056 0H93.3356C74.7155 0 59.6208 15.0946 59.6208 33.7148V307.289C59.6208 325.909 74.7155 341.003 93.3356 341.003H213.056C231.676 341.003 246.771 325.909 246.771 307.289V33.7148C246.771 15.0946 231.676 0 213.056 0Z" fill="#3F3D56" /><path d="M243.614 33.7169V307.289C243.604 315.391 240.382 323.158 234.653 328.887C228.924 334.615 221.157 337.838 213.055 337.847H93.3368C85.2352 337.838 77.468 334.615 71.7392 328.887C66.0105 323.158 62.7879 315.391 62.7786 307.289V33.7169C62.7879 25.6152 66.0105 17.848 71.7392 12.1192C77.468 6.39049 85.2352 3.16795 93.3368 3.15857H108.992V8.56641C108.992 11.0146 109.965 13.3625 111.696 15.0937C113.427 16.8249 115.775 17.7975 118.223 17.7976H188.169C190.617 17.7975 192.965 16.8249 194.696 15.0937C196.428 13.3625 197.4 11.0146 197.4 8.56641V3.15857H213.055C221.157 3.16795 228.924 6.39049 234.653 12.1192C240.382 17.848 243.604 25.6152 243.614 33.7169Z" fill="white" /><path d="M58.7597 69.1766C58.1509 69.1759 57.5672 68.9337 57.1367 68.5033C56.7062 68.0728 56.4641 67.4891 56.4634 66.8803V62.2877C56.4634 61.6786 56.7053 61.0945 57.136 60.6639C57.5666 60.2333 58.1507 59.9913 58.7597 59.9913C59.3687 59.9913 59.9528 60.2333 60.3834 60.6639C60.8141 61.0945 61.056 61.6786 61.056 62.2877V66.8803C61.0553 67.4891 60.8132 68.0728 60.3827 68.5033C59.9522 68.9337 59.3685 69.1759 58.7597 69.1766V69.1766Z" fill="#3F3D56" /><path d="M58.7597 92.7263C58.1509 92.7256 57.5672 92.4834 57.1367 92.0529C56.7062 91.6224 56.4641 91.0387 56.4634 90.4299V77.7878C56.4634 77.1788 56.7053 76.5947 57.136 76.1641C57.5666 75.7334 58.1507 75.4915 58.7597 75.4915C59.3687 75.4915 59.9528 75.7334 60.3834 76.1641C60.8141 76.5947 61.056 77.1788 61.056 77.7878V90.4299C61.0553 91.0387 60.8132 91.6224 60.3827 92.0529C59.9522 92.4834 59.3685 92.7256 58.7597 92.7263V92.7263Z" fill="#3F3D56" /><path d="M58.7597 111.659C58.1509 111.658 57.5672 111.416 57.1367 110.985C56.7062 110.555 56.4641 109.971 56.4634 109.362V96.7202C56.4634 96.1111 56.7053 95.527 57.136 95.0964C57.5666 94.6658 58.1507 94.4238 58.7597 94.4238C59.3687 94.4238 59.9528 94.6658 60.3834 95.0964C60.8141 95.527 61.056 96.1111 61.056 96.7202V109.362C61.0553 109.971 60.8132 110.555 60.3827 110.985C59.9522 111.416 59.3685 111.658 58.7597 111.659V111.659Z" fill="#3F3D56" /><path d="M247.058 101.325C246.449 101.324 245.865 101.082 245.435 100.652C245.004 100.221 244.762 99.6376 244.761 99.0288V68.1815C244.761 67.5725 245.003 66.9884 245.434 66.5578C245.865 66.1271 246.449 65.8852 247.058 65.8852C247.667 65.8852 248.251 66.1271 248.682 66.5578C249.112 66.9884 249.354 67.5725 249.354 68.1815V99.0288C249.353 99.6376 249.111 100.221 248.681 100.652C248.25 101.082 247.667 101.324 247.058 101.325V101.325Z" fill="#3F3D56" /><path d="M114.082 315.474H94.1426C91.5347 315.471 89.0346 314.434 87.1906 312.59C85.3466 310.746 84.3093 308.246 84.3064 305.638V285.699C84.3093 283.091 85.3466 280.591 87.1906 278.747C89.0346 276.903 91.5347 275.866 94.1426 275.863H114.082C116.69 275.866 119.19 276.903 121.034 278.747C122.878 280.591 123.915 283.091 123.918 285.699V305.638C123.915 308.246 122.878 310.746 121.034 312.59C119.19 314.434 116.69 315.471 114.082 315.474Z" fill="#FFD500" /><path d="M163.166 315.761H143.226C140.618 315.758 138.118 314.721 136.274 312.877C134.43 311.033 133.393 308.533 133.39 305.925V285.986C133.393 283.378 134.43 280.878 136.274 279.034C138.118 277.19 140.618 276.153 143.226 276.15H163.166C165.773 276.153 168.274 277.19 170.118 279.034C171.962 280.878 172.999 283.378 173.002 285.986V305.925C172.999 308.533 171.962 311.033 170.118 312.877C168.274 314.721 165.773 315.758 163.166 315.761V315.761Z" fill="#E6E6E6" /><path d="M212.25 316.048H192.31C189.702 316.045 187.202 315.008 185.358 313.164C183.514 311.32 182.477 308.82 182.474 306.212V286.273C182.477 283.665 183.514 281.165 185.358 279.321C187.202 277.477 189.702 276.44 192.31 276.437H212.25C214.857 276.44 217.358 277.477 219.202 279.321C221.046 281.165 222.083 283.665 222.086 286.273V306.212C222.083 308.82 221.046 311.32 219.202 313.164C217.358 315.008 214.857 316.045 212.25 316.048V316.048Z" fill="#E6E6E6" /><path d="M221.848 322.076H84.6974C81.5701 322.073 78.5719 320.829 76.3605 318.618C74.1492 316.406 72.9052 313.408 72.9016 310.281V281.056C72.9052 277.929 74.1492 274.931 76.3605 272.72C78.5719 270.508 81.5701 269.264 84.6974 269.261H221.848C224.976 269.264 227.974 270.508 230.185 272.72C232.397 274.931 233.64 277.929 233.644 281.056V310.281C233.64 313.408 232.397 316.406 230.185 318.618C227.974 320.829 224.976 322.073 221.848 322.076V322.076ZM84.6974 270.409C81.8745 270.412 79.1681 271.535 77.172 273.531C75.1759 275.527 74.053 278.234 74.0498 281.056V310.281C74.053 313.104 75.1759 315.81 77.172 317.806C79.1681 319.802 81.8745 320.925 84.6974 320.928H221.848C224.671 320.925 227.377 319.802 229.374 317.806C231.37 315.81 232.493 313.104 232.496 310.281V281.056C232.493 278.234 231.37 275.527 229.374 273.531C227.377 271.535 224.671 270.412 221.848 270.409H84.6974Z" fill="#E6E6E6" /><path d="M170.181 287.369C173.985 287.369 177.07 284.285 177.07 280.48C177.07 276.675 173.985 273.591 170.181 273.591C166.376 273.591 163.292 276.675 163.292 280.48C163.292 284.285 166.376 287.369 170.181 287.369Z" fill="#CCCCCC" /><path d="M102.152 16.6904H86.6521C85.8909 16.6904 85.1608 16.388 84.6225 15.8497C84.0842 15.3114 83.7817 14.5813 83.7817 13.82C83.7817 13.0587 84.0842 12.3286 84.6225 11.7903C85.1608 11.252 85.8909 10.9496 86.6521 10.9496H102.152C102.914 10.9496 103.644 11.252 104.182 11.7903C104.72 12.3286 105.023 13.0587 105.023 13.82C105.023 14.5813 104.72 15.3114 104.182 15.8497C103.644 16.388 102.914 16.6904 102.152 16.6904Z" fill="#E6E6E6" /><path d="M203.765 16.4034C205.191 16.4034 206.348 15.2467 206.348 13.82C206.348 12.3932 205.191 11.2366 203.765 11.2366C202.338 11.2366 201.181 12.3932 201.181 13.82C201.181 15.2467 202.338 16.4034 203.765 16.4034Z" fill="#E6E6E6" /><path d="M211.802 16.4034C213.228 16.4034 214.385 15.2467 214.385 13.82C214.385 12.3932 213.228 11.2366 211.802 11.2366C210.375 11.2366 209.218 12.3932 209.218 13.82C209.218 15.2467 210.375 16.4034 211.802 16.4034Z" fill="#E6E6E6" /><path d="M219.839 16.4034C221.265 16.4034 222.422 15.2467 222.422 13.82C222.422 12.3932 221.265 11.2366 219.839 11.2366C218.412 11.2366 217.255 12.3932 217.255 13.82C217.255 15.2467 218.412 16.4034 219.839 16.4034Z" fill="#E6E6E6" /><path d="M158.129 10.5319H140.332C139.952 10.5319 139.587 10.3807 139.318 10.1115C139.048 9.84238 138.897 9.47734 138.897 9.0967C138.897 8.71606 139.048 8.35101 139.318 8.08186C139.587 7.81271 139.952 7.6615 140.332 7.6615H158.129C158.51 7.6615 158.875 7.81271 159.144 8.08186C159.413 8.35101 159.564 8.71606 159.564 9.0967C159.564 9.47734 159.413 9.84238 159.144 10.1115C158.875 10.3807 158.51 10.5319 158.129 10.5319Z" fill="white" /><path d="M167.314 10.2449C167.948 10.2449 168.462 9.73082 168.462 9.09671C168.462 8.4626 167.948 7.94855 167.314 7.94855C166.68 7.94855 166.166 8.4626 166.166 9.09671C166.166 9.73082 166.68 10.2449 167.314 10.2449Z" fill="white" /><path d="M287.634 288.442L281.408 288.441L278.445 264.422L287.635 264.423L287.634 288.442Z" fill="#FFB6B6" /><path d="M287.853 294.938L268.704 294.937V294.695C268.704 292.718 269.49 290.822 270.888 289.425C272.285 288.027 274.181 287.242 276.158 287.241H276.158L279.656 284.588L286.182 287.242L287.854 287.242L287.853 294.938Z" fill="#2F2E41" /><path d="M335.081 255.666L332.132 261.15L309.574 252.385L313.927 244.29L335.081 255.666Z" fill="#FFB6B6" /><path d="M340.907 258.548L331.838 275.414L331.625 275.299C329.884 274.363 328.586 272.774 328.017 270.881C327.448 268.988 327.654 266.946 328.59 265.205L328.59 265.205L327.909 260.867L333.337 256.376L334.129 254.904L340.907 258.548Z" fill="#2F2E41" /><path d="M275.861 178.446L270.365 222.415L273.113 237.155L322.577 258.826L325.325 249.895C312.682 242.158 299.166 230.449 290.649 229.588C290.649 229.588 309.181 187.034 308.494 183.599C307.807 180.164 275.861 178.446 275.861 178.446Z" fill="#2F2E41" /><path d="M274.914 222.288L272.039 240.856L279.296 278.749H288.914C292.369 266.017 292.548 249.283 289.258 235.125L274.914 222.288Z" fill="#2F2E41" /><path d="M281.094 124.726L285.527 117L290.288 113.181L299.219 111.807L301.7 113.715C310.63 127.363 313.96 143.926 310.999 159.964L308.561 173.17L310.659 183.134C310.836 183.976 310.824 184.847 310.622 185.684C310.421 186.52 310.036 187.302 309.495 187.971C308.954 188.641 308.271 189.182 307.495 189.554C306.719 189.927 305.87 190.122 305.01 190.125L282.85 190.217C281.405 190.223 279.976 189.916 278.661 189.317C277.346 188.718 276.176 187.842 275.231 186.748C274.287 185.654 273.59 184.369 273.19 182.98C272.789 181.592 272.694 180.133 272.91 178.705L281.094 124.726Z" fill="#FFD500" /><path d="M298.488 151.33L289.632 150.062C286.636 155.07 285.572 168.401 285.572 168.401L276.905 189.001C276.331 189.391 275.87 189.926 275.568 190.55C275.266 191.175 275.134 191.868 275.185 192.56C275.236 193.252 275.469 193.919 275.859 194.492C276.25 195.066 276.785 195.526 277.41 195.827C278.035 196.129 278.728 196.26 279.42 196.208C280.112 196.156 280.778 195.922 281.351 195.531C281.924 195.14 282.384 194.605 282.685 193.979C282.985 193.354 283.115 192.66 283.063 191.968L297.293 167.99L298.488 151.33Z" fill="#FFB8B8" /><path d="M297.078 126.743C298.449 126.956 299.756 127.467 300.907 128.242C302.057 129.017 303.023 130.036 303.735 131.226C304.447 132.417 304.887 133.75 305.026 135.13C305.164 136.51 304.997 137.904 304.535 139.212L302.656 144.539C302.656 144.539 301.633 160.578 297.731 165.106L285.759 164.022C285.759 164.022 287.948 155.93 286.268 152.015C285.238 149.617 285.296 141.335 286.31 134.598C286.5 133.375 286.929 132.201 287.574 131.144C288.218 130.087 289.064 129.167 290.065 128.437C291.065 127.708 292.199 127.182 293.403 126.892C294.606 126.601 295.855 126.551 297.078 126.743V126.743Z" fill="#FFD500" /><path d="M279.929 135.911L277.826 127.215C272.064 126.288 259.288 130.239 259.288 130.239L236.943 129.822C236.368 129.433 235.701 129.202 235.009 129.154C234.316 129.105 233.624 129.239 233 129.543C232.376 129.847 231.843 130.31 231.455 130.885C231.067 131.46 230.838 132.127 230.79 132.82C230.741 133.512 230.876 134.205 231.181 134.828C231.486 135.451 231.949 135.984 232.525 136.371C233.101 136.758 233.768 136.987 234.461 137.034C235.153 137.082 235.845 136.946 236.469 136.64L264.013 140.974L279.929 135.911Z" fill="#FFB8B8" /><path d="M302.244 125.491C302.554 126.843 302.563 128.247 302.27 129.602C301.977 130.958 301.388 132.232 300.546 133.335C299.704 134.437 298.629 135.34 297.399 135.98C296.168 136.62 294.811 136.981 293.426 137.037L287.781 137.265C287.781 137.265 272.505 142.258 266.854 140.311L263.425 128.79C263.425 128.79 271.752 127.825 274.766 124.813C276.611 122.969 284.325 119.954 290.958 118.399C292.165 118.123 293.414 118.087 294.635 118.293C295.856 118.5 297.023 118.946 298.072 119.604C299.12 120.263 300.028 121.122 300.744 122.132C301.46 123.142 301.97 124.284 302.244 125.491V125.491Z" fill="#FFD500" /><path d="M292.413 109.655C298.899 109.655 304.157 104.397 304.157 97.9113C304.157 91.4255 298.899 86.1678 292.413 86.1678C285.928 86.1678 280.67 91.4255 280.67 97.9113C280.67 104.397 285.928 109.655 292.413 109.655Z" fill="#FFB8B8" /><path d="M292.612 109.321C294.331 109.348 296.048 109.228 297.746 108.963C299.429 108.62 303.194 105.862 304.243 104.201C305.008 102.777 305.535 101.237 305.803 99.6431C306.181 97.7923 306.167 95.8827 305.76 94.0379C305.354 92.193 304.565 90.4541 303.443 88.9338C303.012 88.2978 302.418 87.7902 301.722 87.4645C301.66 87.4404 301.597 87.419 301.533 87.4008C300.519 87.134 299.608 86.5704 298.917 85.7821C298.783 85.6227 298.637 85.4731 298.482 85.3346C297.701 84.6754 296.775 84.2104 295.78 83.9777C294.173 83.5477 291.848 83.9745 288.87 85.2474C287.455 85.7444 285.92 85.7916 284.478 85.3823C284.407 85.3687 284.334 85.3738 284.266 85.3971C284.198 85.4204 284.137 85.4611 284.09 85.5152C283.554 86.0181 282.848 86.2996 282.113 86.3031C281.663 86.3229 281.191 86.9459 280.62 87.7585C280.491 87.9429 280.34 88.1582 280.231 88.2891L280.216 88.0376L279.962 88.3182C279.562 88.7592 279.28 89.2943 279.142 89.8737C279.004 90.4531 279.016 91.0578 279.175 91.6317C279.334 92.2056 279.635 92.7299 280.051 93.1558C280.468 93.5817 280.985 93.8953 281.555 94.0675C282.008 94.1879 282.471 94.2618 282.939 94.2881C283.222 94.3136 283.515 94.3399 283.796 94.3886C284.697 94.5732 285.535 94.9883 286.228 95.5934C286.921 96.1986 287.446 96.973 287.75 97.8412C287.822 98.0419 287.939 98.2233 288.092 98.3716C288.245 98.5198 288.431 98.6309 288.634 98.6961C288.836 98.7614 289.052 98.7792 289.263 98.7481C289.474 98.717 289.674 98.6378 289.85 98.5167C290.142 98.2889 290.486 98.1353 290.851 98.0689C291.215 98.0024 291.591 98.0252 291.945 98.1353C292.251 98.3054 292.489 98.5755 292.619 98.9004C292.778 99.2623 293.041 99.5689 293.374 99.7809C294.514 100.369 294.593 102.974 294.183 105.145C293.789 107.238 293.008 108.752 292.285 108.827C291.729 108.885 291.666 108.924 291.625 109.023L291.589 109.111L291.652 109.193C291.959 109.304 292.287 109.348 292.612 109.321V109.321Z" fill="#2F2E41" /><path d="M229.353 219.778H77.2057C76.2473 219.777 75.3284 219.403 74.6506 218.739C73.9729 218.075 73.5917 217.175 73.5906 216.236V174.138C73.5917 173.199 73.9729 172.299 74.6506 171.635C75.3284 170.971 76.2473 170.597 77.2057 170.596H229.353C230.312 170.597 231.23 170.971 231.908 171.635C232.586 172.299 232.967 173.199 232.968 174.138V216.236C232.967 217.175 232.586 218.075 231.908 218.739C231.23 219.403 230.312 219.777 229.353 219.778Z" fill="white" /><path d="M229.353 220.447H77.2056C76.0663 220.445 74.974 220.001 74.1683 219.212C73.3627 218.423 72.9095 217.352 72.9082 216.236V174.138C72.9095 173.022 73.3627 171.952 74.1683 171.162C74.974 170.373 76.0663 169.929 77.2056 169.928H229.353C230.493 169.929 231.585 170.373 232.391 171.162C233.196 171.952 233.649 173.022 233.651 174.138V216.236C233.649 217.352 233.196 218.423 232.391 219.212C231.585 220.001 230.493 220.445 229.353 220.447ZM77.2056 171.265C76.4281 171.266 75.6827 171.569 75.1329 172.107C74.5831 172.646 74.2739 173.376 74.2729 174.138V216.236C74.2739 216.998 74.5831 217.728 75.1329 218.267C75.6827 218.806 76.4281 219.109 77.2056 219.11H229.353C230.131 219.109 230.876 218.806 231.426 218.267C231.976 217.728 232.285 216.998 232.286 216.236V174.138C232.285 173.376 231.976 172.646 231.426 172.107C230.876 171.569 230.131 171.266 229.353 171.265H77.2056Z" fill="#CCCCCC" /><path d="M91.0717 190.55C94.3115 190.55 96.938 187.977 96.938 184.802C96.938 181.628 94.3115 179.055 91.0717 179.055C87.8318 179.055 85.2053 181.628 85.2053 184.802C85.2053 187.977 87.8318 190.55 91.0717 190.55Z" fill="#42B983" /><path d="M219.606 199.287H86.9522C86.4889 199.287 86.0446 199.107 85.717 198.786C85.3894 198.465 85.2053 198.03 85.2053 197.576C85.2053 197.122 85.3894 196.687 85.717 196.366C86.0446 196.045 86.4889 195.864 86.9522 195.864H219.606C220.069 195.864 220.513 196.045 220.841 196.366C221.169 196.687 221.353 197.122 221.353 197.576C221.353 198.03 221.169 198.465 220.841 198.786C220.513 199.107 220.069 199.287 219.606 199.287V199.287Z" fill="#42B983" /><path d="M205.34 206.05H86.9523C86.7226 206.051 86.4951 206.007 86.2827 205.921C86.0704 205.835 85.8774 205.709 85.7148 205.55C85.5522 205.391 85.4232 205.202 85.3352 204.994C85.2472 204.786 85.2019 204.564 85.2019 204.339C85.2019 204.113 85.2472 203.891 85.3352 203.683C85.4232 203.475 85.5522 203.286 85.7148 203.127C85.8774 202.968 86.0704 202.842 86.2827 202.756C86.4951 202.67 86.7226 202.626 86.9523 202.627H205.34C205.803 202.628 206.247 202.808 206.573 203.129C206.9 203.45 207.084 203.885 207.084 204.339C207.084 204.792 206.9 205.227 206.573 205.548C206.247 205.869 205.803 206.049 205.34 206.05V206.05Z" fill="#42B983" /><path d="M229.927 157.777H77.7797C76.8212 157.776 75.9023 157.403 75.2246 156.739C74.5469 156.075 74.1656 155.174 74.1646 154.235V112.138C74.1657 111.198 74.5469 110.298 75.2246 109.634C75.9023 108.97 76.8212 108.597 77.7797 108.596H229.927C230.886 108.597 231.804 108.97 232.482 109.634C233.16 110.298 233.541 111.198 233.542 112.138V154.235C233.541 155.174 233.16 156.075 232.482 156.739C231.804 157.403 230.886 157.776 229.927 157.777Z" fill="white" /><path d="M229.927 158.446H77.7796C76.6402 158.445 75.5479 158.001 74.7423 157.211C73.9366 156.422 73.4835 155.352 73.4822 154.235V112.138C73.4835 111.021 73.9366 109.951 74.7423 109.162C75.5479 108.372 76.6402 107.928 77.7796 107.927H229.927C231.067 107.928 232.159 108.372 232.964 109.162C233.77 109.951 234.223 111.021 234.225 112.138V154.235C234.223 155.352 233.77 156.422 232.964 157.211C232.159 158.001 231.067 158.445 229.927 158.446ZM77.7796 109.264C77.0021 109.265 76.2567 109.568 75.7069 110.107C75.1571 110.645 74.8478 111.376 74.8469 112.138V154.235C74.8478 154.997 75.1571 155.728 75.7069 156.266C76.2567 156.805 77.0021 157.108 77.7796 157.109H229.927C230.705 157.108 231.45 156.805 232 156.266C232.55 155.728 232.859 154.997 232.86 154.235V112.138C232.859 111.376 232.55 110.645 232 110.107C231.45 109.568 230.705 109.265 229.927 109.264H77.7796Z" fill="#CCCCCC" /><path d="M91.6456 128.55C94.8855 128.55 97.512 125.976 97.512 122.802C97.512 119.627 94.8855 117.054 91.6456 117.054C88.4057 117.054 85.7793 119.627 85.7793 122.802C85.7793 125.976 88.4057 128.55 91.6456 128.55Z" fill="#42B983" /><path d="M220.18 137.287H87.5262C87.0629 137.287 86.6185 137.106 86.2909 136.785C85.9633 136.464 85.7793 136.029 85.7793 135.575C85.7793 135.121 85.9633 134.686 86.2909 134.365C86.6185 134.044 87.0629 133.864 87.5262 133.864H220.18C220.643 133.864 221.087 134.044 221.415 134.365C221.743 134.686 221.927 135.121 221.927 135.575C221.927 136.029 221.743 136.464 221.415 136.785C221.087 137.106 220.643 137.287 220.18 137.287V137.287Z" fill="#42B983" /><path d="M205.914 144.05H87.5263C87.2966 144.05 87.0691 144.006 86.8567 143.92C86.6444 143.834 86.4514 143.708 86.2888 143.549C86.1262 143.39 85.9972 143.202 85.9092 142.994C85.8212 142.786 85.7759 142.563 85.7759 142.338C85.7759 142.113 85.8212 141.89 85.9092 141.682C85.9972 141.474 86.1262 141.285 86.2888 141.126C86.4514 140.967 86.6444 140.841 86.8567 140.756C87.0691 140.67 87.2966 140.626 87.5263 140.626H205.914C206.377 140.627 206.82 140.808 207.147 141.129C207.474 141.45 207.658 141.885 207.658 142.338C207.658 142.791 207.474 143.226 207.147 143.547C206.82 143.868 206.377 144.049 205.914 144.05V144.05Z" fill="#42B983" /><path d="M230.501 95.7767H78.3539C77.3955 95.7756 76.4766 95.4021 75.7988 94.738C75.1211 94.074 74.7399 93.1736 74.7388 92.2345V50.1368C74.7399 49.1977 75.1211 48.2974 75.7988 47.6334C76.4766 46.9694 77.3955 46.5959 78.3539 46.5948H230.501C231.46 46.5959 232.379 46.9694 233.056 47.6334C233.734 48.2974 234.115 49.1977 234.116 50.1368V92.2345C234.115 93.1736 233.734 94.074 233.056 94.738C232.379 95.4021 231.46 95.7756 230.501 95.7767Z" fill="white" /><path d="M230.501 96.4454H78.3538C77.2145 96.4442 76.1222 96.0001 75.3165 95.2108C74.5109 94.4214 74.0577 93.3511 74.0564 92.2348V50.137C74.0577 49.0207 74.5109 47.9504 75.3165 47.1611C76.1222 46.3717 77.2145 45.9277 78.3538 45.9264H230.501C231.641 45.9277 232.733 46.3717 233.539 47.1611C234.344 47.9504 234.797 49.0207 234.799 50.137V92.2348C234.797 93.3511 234.344 94.4214 233.539 95.2108C232.733 96.0001 231.641 96.4442 230.501 96.4454ZM78.3538 47.2636C77.5763 47.2645 76.8309 47.5675 76.2811 48.1062C75.7313 48.6449 75.4221 49.3752 75.4211 50.137V92.2348C75.4221 92.9966 75.7313 93.7269 76.2811 94.2656C76.8309 94.8043 77.5763 95.1073 78.3538 95.1083H230.501C231.279 95.1073 232.024 94.8043 232.574 94.2656C233.124 93.7269 233.433 92.9966 233.434 92.2348V50.137C233.433 49.3752 233.124 48.6449 232.574 48.1062C232.024 47.5675 231.279 47.2645 230.501 47.2636H78.3538Z" fill="#CCCCCC" /><path d="M92.2198 66.549C95.4597 66.549 98.0862 63.9756 98.0862 60.8012C98.0862 57.6267 95.4597 55.0533 92.2198 55.0533C88.98 55.0533 86.3535 57.6267 86.3535 60.8012C86.3535 63.9756 88.98 66.549 92.2198 66.549Z" fill="#42B983" /><path d="M220.754 75.2862H88.1004C87.6371 75.2862 87.1928 75.1059 86.8652 74.7849C86.5376 74.4639 86.3535 74.0286 86.3535 73.5746C86.3535 73.1207 86.5376 72.6853 86.8652 72.3643C87.1928 72.0433 87.6371 71.863 88.1004 71.863H220.754C221.217 71.863 221.662 72.0433 221.989 72.3643C222.317 72.6853 222.501 73.1207 222.501 73.5746C222.501 74.0286 222.317 74.4639 221.989 74.7849C221.662 75.1059 221.217 75.2862 220.754 75.2862V75.2862Z" fill="#42B983" /><path d="M206.489 82.049H88.1005C87.8708 82.0494 87.6433 82.0055 87.4309 81.9197C87.2186 81.8338 87.0256 81.7078 86.863 81.5488C86.7004 81.3898 86.5714 81.201 86.4834 80.9931C86.3954 80.7852 86.3501 80.5623 86.3501 80.3373C86.3501 80.1122 86.3954 79.8894 86.4834 79.6815C86.5714 79.4736 86.7004 79.2847 86.863 79.1257C87.0256 78.9668 87.2186 78.8408 87.4309 78.7549C87.6433 78.6691 87.8708 78.6252 88.1005 78.6256H206.489C206.951 78.6265 207.395 78.8073 207.722 79.1282C208.048 79.4491 208.232 79.8839 208.232 80.3373C208.232 80.7907 208.048 81.2255 207.722 81.5464C207.395 81.8673 206.951 82.0481 206.489 82.049V82.049Z" fill="#42B983" /></g><defs><clipPath id="clip0_984_4"><rect width="412" height="342.341" fill="white" /></clipPath></defs></svg>