<svg width="24" height="24" viewBox="0 0 24 24" fill="none" xmlns="http://www.w3.org/2000/svg"><path d="M16.86 16.1226L20.0836 18.8571M13.684 17.2C13.1288 17.289 12.5649 17.3337 11.9999 17.3333C7.9778 17.3333 4.57366 15.091 3.42847 12C3.73679 11.168 4.21168 10.3874 4.83234 9.69216L13.684 17.2ZM10.0939 10.384C10.5993 9.95527 11.2847 9.71444 11.9994 9.71444C12.7142 9.71444 13.3996 9.95527 13.905 10.384C14.4103 10.8127 14.6942 11.3941 14.6942 12.0003C14.6942 12.6066 14.4103 13.188 13.905 13.6167L10.0939 10.384ZM10.0939 10.3832L13.9041 13.6152L10.0939 10.3832ZM10.0957 10.3847L7.14069 7.87806L10.0957 10.3847ZM13.9059 13.6167L16.8609 16.1234L13.9059 13.6167ZM3.91618 5.14282L7.14069 7.87806L3.91618 5.14282ZM7.14069 7.87806C8.58889 7.08535 10.2764 6.66465 11.9999 6.66663C16.022 6.66663 19.4261 8.90892 20.5713 12C19.939 13.6994 18.6262 15.1577 16.86 16.1226L7.14069 7.87806Z" stroke="#C4C4C4" stroke-width="1.5" stroke-linecap="round" stroke-linejoin="round" /></svg>