<svg width="24" height="24" viewBox="0 0 24 24" fill="none" xmlns="http://www.w3.org/2000/svg"><path d="M14.5713 11.9999C14.5713 12.6819 14.3004 13.3359 13.8182 13.8182C13.3359 14.3004 12.6819 14.5713 11.9999 14.5713C11.3179 14.5713 10.6639 14.3004 10.1816 13.8182C9.69938 13.3359 9.42847 12.6819 9.42847 11.9999C9.42847 11.3179 9.69938 10.6639 10.1816 10.1816C10.6639 9.69938 11.3179 9.42847 11.9999 9.42847C12.6819 9.42847 13.3359 9.69938 13.8182 10.1816C14.3004 10.6639 14.5713 11.3179 14.5713 11.9999V11.9999Z" stroke="#FFD500" stroke-width="2" stroke-linecap="round" stroke-linejoin="round" /><path d="M3.42847 12C4.57288 8.52257 7.97828 6 11.9999 6C16.0224 6 19.4269 8.52257 20.5713 12C19.4269 15.4774 16.0224 18 11.9999 18C7.97828 18 4.57288 15.4774 3.42847 12Z" stroke="#FFD500" stroke-width="2" stroke-linecap="round" stroke-linejoin="round" /></svg>