<svg xmlns="http://www.w3.org/2000/svg" class="w-9 h-9" viewBox="0 0 172 172" fill="#000">
    <g fill="none" fill-rule="nonzero" stroke="none" stroke-width="1" stroke-linecap="butt"
        stroke-linejoin="miter" stroke-miterlimit="10" stroke-dasharray="" stroke-dashoffset="0"
        font-family="none" font-weight="none" font-size="none" text-anchor="none"
        style="mix-blend-mode: normal;">
        <path d="M0,172v-172h172v172z" fill="none"></path>
        <g fill="#fff">
            <path
                d="M86,17.2c-41.16533,0 -74.53333,28.23667 -74.53333,63.06667c0,15.34321 6.49141,29.3896 17.25599,40.3237c0.21737,0.54076 5.74049,14.75457 -10.61562,29.24896c-0.57911,0.5424 -0.90751,1.30056 -0.90703,2.09401c0,1.58322 1.28345,2.86667 2.86667,2.86667c0.20712,-0.00008 0.41362,-0.02261 0.61589,-0.06719c16.48827,-0.97682 30.59327,-9.15924 39.2039,-15.46432c8.13786,2.58069 16.91055,4.06484 26.11354,4.06484c41.16533,0 74.53333,-28.23667 74.53333,-63.06667c0,-34.83 -33.368,-63.06667 -74.53333,-63.06667zM86,43c4.7472,0 8.6,3.8528 8.6,8.6c0,4.7472 -3.8528,8.6 -8.6,8.6c-4.7472,0 -8.6,-3.8528 -8.6,-8.6c0,-4.7472 3.8528,-8.6 8.6,-8.6zM80.26667,74.53333h11.46667v40.13333h-11.46667z"></path>
        </g>
    </g>
</svg>