<svg xmlns="http://www.w3.org/2000/svg" class="w-9 h-9" viewBox="0 0 172 172" fill="#000">
    <g fill="none" fill-rule="nonzero" stroke="none" stroke-width="1" stroke-linecap="butt"
        stroke-linejoin="miter" stroke-miterlimit="10" stroke-dasharray="" stroke-dashoffset="0"
        font-family="none" font-weight="none" font-size="none" text-anchor="none"
        style="mix-blend-mode: normal;">
        <path d="M0,172v-172h172v172z" fill="none"></path>
        <g>
            <path
                d="M101.35714,141.28571h-24.57143c-8.471,0 -15.35714,-6.88614 -15.35714,-15.35714v-12.28571c0,-1.69543 1.376,-3.07143 3.07143,-3.07143c1.69543,0 3.07143,1.376 3.07143,3.07143v12.28571c0,5.08014 4.13414,9.21429 9.21429,9.21429h24.57143c1.69543,0 3.07143,1.376 3.07143,3.07143c0,1.69543 -1.376,3.07143 -3.07143,3.07143z"
                fill="#fff"></path>
            <path
                d="M76.78571,79.85714h-61.42857c-1.69543,0 -3.07143,-1.376 -3.07143,-3.07143c0,-1.69543 1.376,-3.07143 3.07143,-3.07143h61.42857c1.69543,0 3.07143,1.376 3.07143,3.07143c0,1.69543 -1.376,3.07143 -3.07143,3.07143z"
                fill="#fff"></path>
            <path
                d="M110.57143,159.71429c-6.77557,0 -12.28571,-5.51014 -12.28571,-12.28571v-110.57143c0,-5.27671 3.39086,-9.95757 8.428,-11.64071l36.85714,-12.28571c1.18557,-0.41771 2.50629,-0.645 3.85771,-0.645c6.77557,0 12.28571,5.51014 12.28571,12.28571v110.57143c0,5.27671 -3.39086,9.95757 -8.428,11.64071l-36.85714,12.28571c-1.18557,0.41771 -2.50629,0.645 -3.85771,0.645zM147.42857,18.42857c-0.63886,0 -1.27771,0.11057 -1.85514,0.31329l-36.91857,12.31029c-2.53086,0.83543 -4.22629,3.16971 -4.22629,5.805v110.57143c0,3.39086 2.752,6.14286 6.14286,6.14286c0.63886,0 1.27771,-0.11057 1.85514,-0.31329l36.91857,-12.31029c2.53086,-0.83543 4.22629,-3.16971 4.22629,-5.805v-110.57143c0,-3.39086 -2.752,-6.14286 -6.14286,-6.14286z"
                fill="#fff"></path>
            <path
                d="M64.5,43c-1.69543,0 -3.07143,-1.376 -3.07143,-3.07143v-12.28571c0,-8.471 6.88614,-15.35714 15.35714,-15.35714h70.64286c1.69543,0 3.07143,1.376 3.07143,3.07143c0,1.69543 -1.376,3.07143 -3.07143,3.07143h-70.64286c-5.08014,0 -9.21429,4.13414 -9.21429,9.21429v12.28571c0,1.69543 -1.376,3.07143 -3.07143,3.07143z"
                fill="#fff"></path>
            <path
                d="M52.21429,104.42857c-0.78629,0 -1.57257,-0.301 -2.17457,-0.89686c-1.19786,-1.19786 -1.19786,-3.14514 0,-4.343l22.39686,-22.39686l-22.39686,-22.403c-1.19786,-1.19786 -1.19786,-3.14514 0,-4.343c1.19786,-1.19786 3.14514,-1.19786 4.343,0l24.57143,24.57143c1.19786,1.19786 1.19786,3.14514 0,4.343l-24.57143,24.57143c-0.59586,0.59586 -1.38214,0.89686 -2.16843,0.89686z"
                fill="#fff"></path>
        </g>
    </g>
</svg>