<svg xmlns="http://www.w3.org/2000/svg" class="w-9 h-9" viewBox="0 0 172 172" fill="#000">
    <g fill="none" fill-rule="nonzero" stroke="none" stroke-width="1" stroke-linecap="butt"
        stroke-linejoin="miter" stroke-miterlimit="10" stroke-dasharray="" stroke-dashoffset="0"
        font-family="none" font-weight="none" font-size="none" text-anchor="none"
        style="mix-blend-mode: normal;">
        <path d="M0,172v-172h172v172z" fill="none"></path>
        <g fill="#000">
            <path fill="#fff"
                d="M57.33333,17.2c-25.32987,0 -45.86667,20.5368 -45.86667,45.86667c0,34.4 40.13333,57.33333 40.13333,80.26667c0,3.1648 2.56853,5.73333 5.73333,5.73333c3.1648,0 5.73333,-2.56853 5.73333,-5.73333c0,-22.93333 40.13333,-45.86667 40.13333,-80.26667c0,-25.32987 -20.5368,-45.86667 -45.86667,-45.86667zM28.66667,51.6h11.46667v11.46667h11.46667v-11.46667h11.46667v11.46667h11.46667v-11.46667h11.46667v11.46667h-11.46667v11.46667h-11.46667v-11.46667h-11.46667v11.46667h-11.46667v-11.46667h-11.46667zM113.51328,51.6c0.7568,3.70373 1.15339,7.53933 1.15339,11.46667c0,1.94933 -0.14101,3.8528 -0.33594,5.73333h18.07344c2.70613,0 5.00296,1.8473 5.58776,4.49036l3.63933,16.39375c-8.62867,-1.84613 -19.37303,-3.30267 -31.76849,-3.57214c-2.51693,6.11173 -5.80652,11.79616 -9.37265,17.08802h19.90989c3.1648,0 5.73333,2.56853 5.73333,5.73333c0,3.1648 -2.56853,5.73333 -5.73333,5.73333h-28.31953c-0.9976,1.28427 -1.98732,2.55223 -2.95625,3.78489c-6.87427,8.7376 -13.89984,17.72953 -14.47891,24.04193c9.3396,0.47013 20.18402,0.83984 31.42136,0.83984c16.69447,0 31.74101,-0.76671 43,-1.52292v4.38958c0,4.7472 3.8528,8.6 8.6,8.6c4.7472,0 8.6,-3.8528 8.6,-8.6v-5.73333v-14.33333v-16.78567c0,-7.52787 -4.84816,-14.19708 -12.03776,-16.42735c-0.04013,-0.01147 -0.08305,-0.02212 -0.12318,-0.03359l-4.91589,-22.08229c-1.74867,-7.86613 -8.72461,-13.47109 -16.78567,-13.47109h-7.22266l-0.60468,-1.81406c-0.78547,-2.34493 -2.97112,-3.91927 -5.44219,-3.91927zM146.2,103.2c4.7472,0 8.6,3.8528 8.6,8.6c0,4.7472 -3.8528,8.6 -8.6,8.6c-4.7472,0 -8.6,-3.8528 -8.6,-8.6c0,-4.7472 3.8528,-8.6 8.6,-8.6z"></path>
        </g>
    </g>
</svg>